<svg width="201" height="48" viewBox="0 0 201 48" fill="none" xmlns="http://www.w3.org/2000/svg">
<path d="M189.86 1H9.87261C8.35159 6.54521 3.32378 8.77169 1 9.19178V37.5479C6.07006 37.5479 9.0276 43.8493 9.87261 47H189.86C189.86 40.9507 196.62 38.1781 200 37.5479V9.19178C194.423 8.18356 190.916 3.3105 189.86 1Z" fill="white" stroke="white" stroke-width="2"/>
<path d="M32.6455 18.0137L32.7368 21.0767H32.1392C32.0008 20.479 31.8237 20.0225 31.6079 19.707C31.3976 19.3916 31.0988 19.173 30.7114 19.0513C30.3296 18.9295 29.8149 18.8576 29.1675 18.8354L26.9761 18.7607V23.4922L29.2505 23.4839C29.4608 23.4839 29.6296 23.4424 29.7568 23.3594C29.8841 23.2764 29.992 23.1159 30.0806 22.8779C30.1691 22.6344 30.2632 22.2747 30.3628 21.7988H30.9272V25.9326H30.3628C30.2798 25.4622 30.194 25.1081 30.1055 24.8701C30.0169 24.6266 29.9062 24.4634 29.7734 24.3804C29.6406 24.2918 29.4663 24.2448 29.2505 24.2393H26.9761V29.2529L29.2007 29.1782C29.7873 29.1561 30.2715 29.1146 30.6533 29.0537C31.0407 28.9873 31.3534 28.8683 31.5913 28.6968C31.8293 28.5197 32.0202 28.2624 32.1641 27.9248C32.3079 27.5872 32.4325 27.1335 32.5376 26.5635H33.1436L33.019 30H23.4648V29.3525C23.8854 29.3083 24.1953 29.2529 24.3945 29.1865C24.5938 29.1201 24.721 29.0233 24.7764 28.896C24.8372 28.7632 24.8677 28.5723 24.8677 28.3232V19.6904C24.8677 19.4414 24.8372 19.2533 24.7764 19.126C24.721 18.9932 24.5938 18.8936 24.3945 18.8271C24.1953 18.7607 23.8854 18.7054 23.4648 18.6611V18.0137H32.6455ZM37.709 18.0137L44.6567 28.5391H44.3496L44.1753 19.8896C44.1698 19.5798 44.1366 19.3446 44.0757 19.1841C44.0203 19.0236 43.8931 18.9074 43.6938 18.8354C43.4946 18.758 43.1903 18.6999 42.7808 18.6611V18.0137H46.5825V18.6611C46.1841 18.7109 45.8908 18.7746 45.7026 18.8521C45.52 18.924 45.3983 19.0402 45.3374 19.2007C45.2821 19.3556 45.2544 19.5798 45.2544 19.873L45.188 30H43.063L36.0405 19.3501H36.356L36.5303 28.124C36.5358 28.4339 36.569 28.6691 36.6299 28.8296C36.6963 28.9901 36.8263 29.1063 37.02 29.1782C37.2192 29.2502 37.5264 29.3083 37.9414 29.3525V30H34.123V29.3525C34.5215 29.3027 34.8148 29.2419 35.0029 29.1699C35.1911 29.0924 35.3128 28.9762 35.3682 28.8213C35.429 28.6608 35.4595 28.4339 35.4595 28.1406L35.501 19.8813C35.501 19.5881 35.4705 19.3639 35.4097 19.209C35.3543 19.0485 35.2326 18.9295 35.0444 18.8521C34.8563 18.7746 34.5658 18.7109 34.1729 18.6611V18.0137H37.709ZM57.7637 18.0137L57.855 21.0767H57.2573C57.1466 20.4513 56.9862 19.981 56.7759 19.6655C56.5711 19.3446 56.2557 19.126 55.8296 19.0098C55.409 18.888 54.828 18.8105 54.0864 18.7773L53.5967 18.7607V28.207C53.5967 28.4782 53.6299 28.6885 53.6963 28.8379C53.7627 28.9873 53.9038 29.1007 54.1196 29.1782C54.3354 29.2502 54.6675 29.3083 55.1157 29.3525V30H49.9692V29.3525C50.4175 29.3083 50.7495 29.2502 50.9653 29.1782C51.1812 29.1007 51.3223 28.9873 51.3887 28.8379C51.4551 28.6885 51.4883 28.4782 51.4883 28.207V18.7607L51.0068 18.7773C50.2542 18.8105 49.6676 18.888 49.2471 19.0098C48.832 19.126 48.5194 19.3418 48.3091 19.6572C48.1043 19.9727 47.9438 20.4458 47.8276 21.0767H47.23L47.3296 18.0137H57.7637ZM67.8906 18.0137L67.9819 21.0767H67.3843C67.2459 20.479 67.0688 20.0225 66.853 19.707C66.6427 19.3916 66.3439 19.173 65.9565 19.0513C65.5747 18.9295 65.0601 18.8576 64.4126 18.8354L62.2212 18.7607V23.4922L64.4956 23.4839C64.7059 23.4839 64.8747 23.4424 65.002 23.3594C65.1292 23.2764 65.2371 23.1159 65.3257 22.8779C65.4142 22.6344 65.5083 22.2747 65.6079 21.7988H66.1724V25.9326H65.6079C65.5249 25.4622 65.4391 25.1081 65.3506 24.8701C65.262 24.6266 65.1514 24.4634 65.0186 24.3804C64.8857 24.2918 64.7114 24.2448 64.4956 24.2393H62.2212V29.2529L64.4458 29.1782C65.0324 29.1561 65.5166 29.1146 65.8984 29.0537C66.2858 28.9873 66.5985 28.8683 66.8364 28.6968C67.0744 28.5197 67.2653 28.2624 67.4092 27.9248C67.5531 27.5872 67.6776 27.1335 67.7827 26.5635H68.3887L68.2642 30H58.71V29.3525C59.1305 29.3083 59.4404 29.2529 59.6396 29.1865C59.8389 29.1201 59.9661 29.0233 60.0215 28.896C60.0824 28.7632 60.1128 28.5723 60.1128 28.3232V19.6904C60.1128 19.4414 60.0824 19.2533 60.0215 19.126C59.9661 18.9932 59.8389 18.8936 59.6396 18.8271C59.4404 18.7607 59.1305 18.7054 58.71 18.6611V18.0137H67.8906ZM79.1548 21.2427C79.1548 21.7684 79.0386 22.236 78.8062 22.6455C78.5793 23.0495 78.2666 23.3843 77.8682 23.6499C77.4753 23.9155 77.0326 24.0981 76.54 24.1978V23.791L78.3081 27.1196C78.6401 27.7339 78.9168 28.196 79.1382 28.5059C79.3595 28.8158 79.5505 29.0316 79.7109 29.1533C79.877 29.2751 80.043 29.3581 80.209 29.4023V30H77.6357L74.8301 24.6875H72.8794V28.3647C72.8794 28.5972 72.9071 28.7798 72.9624 28.9126C73.0233 29.0399 73.1478 29.134 73.3359 29.1948C73.5241 29.2557 73.8146 29.3083 74.2075 29.3525V30H69.3682V29.3525C69.7832 29.3083 70.0903 29.2529 70.2896 29.1865C70.4888 29.1201 70.616 29.0233 70.6714 28.896C70.7323 28.7632 70.7627 28.5723 70.7627 28.3232V19.6904C70.7627 19.4414 70.7323 19.2505 70.6714 19.1177C70.616 18.9849 70.4888 18.888 70.2896 18.8271C70.0903 18.7607 69.7832 18.7054 69.3682 18.6611V18.0137H74.415C75.4609 18.0137 76.3353 18.1437 77.0381 18.4038C77.7409 18.6639 78.2694 19.0374 78.6235 19.5244C78.9777 20.0114 79.1548 20.5841 79.1548 21.2427ZM77.0381 21.417C77.0381 20.8802 76.9219 20.4209 76.6895 20.0391C76.457 19.6517 76.1029 19.3556 75.627 19.1509C75.1566 18.9406 74.5589 18.8216 73.834 18.7939L72.8794 18.7607V23.9487L74.0332 23.9072C75.0072 23.8796 75.7515 23.661 76.2661 23.2515C76.7808 22.8364 77.0381 22.2249 77.0381 21.417ZM95.2666 18.0137L95.3579 21.0767H94.7603C94.6496 20.4513 94.4891 19.981 94.2788 19.6655C94.0741 19.3446 93.7586 19.126 93.3325 19.0098C92.9119 18.888 92.3309 18.8105 91.5894 18.7773L91.0996 18.7607V28.207C91.0996 28.4782 91.1328 28.6885 91.1992 28.8379C91.2656 28.9873 91.4067 29.1007 91.6226 29.1782C91.8384 29.2502 92.1704 29.3083 92.6187 29.3525V30H87.4722V29.3525C87.9204 29.3083 88.2524 29.2502 88.4683 29.1782C88.6841 29.1007 88.8252 28.9873 88.8916 28.8379C88.958 28.6885 88.9912 28.4782 88.9912 28.207V18.7607L88.5098 18.7773C87.7572 18.8105 87.1706 18.888 86.75 19.0098C86.335 19.126 86.0223 19.3418 85.812 19.6572C85.6073 19.9727 85.4468 20.4458 85.3306 21.0767H84.7329L84.8325 18.0137H95.2666ZM99.7075 28.3647C99.7075 28.5972 99.738 28.7798 99.7988 28.9126C99.8597 29.0399 99.9842 29.1367 100.172 29.2031C100.361 29.264 100.648 29.3138 101.036 29.3525V30H96.1963V29.3525C96.6169 29.3083 96.9268 29.2529 97.126 29.1865C97.3252 29.1201 97.4525 29.0233 97.5078 28.896C97.5687 28.7632 97.5991 28.5723 97.5991 28.3232V19.6904C97.5991 19.4414 97.5687 19.2533 97.5078 19.126C97.4525 18.9932 97.3252 18.8936 97.126 18.8271C96.9268 18.7607 96.6169 18.7054 96.1963 18.6611V18.0137H101.036V18.6694C100.648 18.7082 100.361 18.7607 100.172 18.8271C99.9842 18.888 99.8597 18.9821 99.7988 19.1094C99.738 19.2367 99.7075 19.4193 99.7075 19.6572V28.3647ZM107.61 28.3232C107.61 28.5723 107.64 28.7632 107.701 28.896C107.768 29.0288 107.9 29.1284 108.1 29.1948C108.299 29.2557 108.603 29.3083 109.013 29.3525V30H104.182V29.3525C104.58 29.3138 104.871 29.264 105.053 29.2031C105.241 29.1367 105.363 29.0399 105.418 28.9126C105.474 28.7853 105.501 28.6027 105.501 28.3647V19.6489C105.501 19.411 105.474 19.2284 105.418 19.1011C105.363 18.9738 105.241 18.8797 105.053 18.8188C104.871 18.7524 104.58 18.6999 104.182 18.6611V18.0137H109.013V18.6611C108.603 18.7054 108.299 18.7607 108.1 18.8271C107.9 18.888 107.768 18.9849 107.701 19.1177C107.64 19.2505 107.61 19.4414 107.61 19.6904V28.3232ZM98.6533 24.2725V23.4673H106.556V24.2725H98.6533ZM119.106 18.0137L119.198 21.0767H118.6C118.462 20.479 118.285 20.0225 118.069 19.707C117.859 19.3916 117.56 19.173 117.172 19.0513C116.791 18.9295 116.276 18.8576 115.628 18.8354L113.437 18.7607V23.4922L115.711 23.4839C115.922 23.4839 116.09 23.4424 116.218 23.3594C116.345 23.2764 116.453 23.1159 116.542 22.8779C116.63 22.6344 116.724 22.2747 116.824 21.7988H117.388V25.9326H116.824C116.741 25.4622 116.655 25.1081 116.566 24.8701C116.478 24.6266 116.367 24.4634 116.234 24.3804C116.102 24.2918 115.927 24.2448 115.711 24.2393H113.437V29.2529L115.662 29.1782C116.248 29.1561 116.732 29.1146 117.114 29.0537C117.502 28.9873 117.814 28.8683 118.052 28.6968C118.29 28.5197 118.481 28.2624 118.625 27.9248C118.769 27.5872 118.893 27.1335 118.999 26.5635H119.604L119.48 30H109.926V29.3525C110.346 29.3083 110.656 29.2529 110.855 29.1865C111.055 29.1201 111.182 29.0233 111.237 28.896C111.298 28.7632 111.329 28.5723 111.329 28.3232V19.6904C111.329 19.4414 111.298 19.2533 111.237 19.126C111.182 18.9932 111.055 18.8936 110.855 18.8271C110.656 18.7607 110.346 18.7054 109.926 18.6611V18.0137H119.106ZM134.504 21.2427C134.504 21.7684 134.388 22.236 134.156 22.6455C133.929 23.0495 133.616 23.3843 133.218 23.6499C132.825 23.9155 132.382 24.0981 131.89 24.1978V23.791L133.658 27.1196C133.99 27.7339 134.266 28.196 134.488 28.5059C134.709 28.8158 134.9 29.0316 135.061 29.1533C135.227 29.2751 135.393 29.3581 135.559 29.4023V30H132.985L130.18 24.6875H128.229V28.3647C128.229 28.5972 128.257 28.7798 128.312 28.9126C128.373 29.0399 128.497 29.134 128.686 29.1948C128.874 29.2557 129.164 29.3083 129.557 29.3525V30H124.718V29.3525C125.133 29.3083 125.44 29.2529 125.639 29.1865C125.838 29.1201 125.966 29.0233 126.021 28.896C126.082 28.7632 126.112 28.5723 126.112 28.3232V19.6904C126.112 19.4414 126.082 19.2505 126.021 19.1177C125.966 18.9849 125.838 18.888 125.639 18.8271C125.44 18.7607 125.133 18.7054 124.718 18.6611V18.0137H129.765C130.811 18.0137 131.685 18.1437 132.388 18.4038C133.09 18.6639 133.619 19.0374 133.973 19.5244C134.327 20.0114 134.504 20.5841 134.504 21.2427ZM132.388 21.417C132.388 20.8802 132.271 20.4209 132.039 20.0391C131.807 19.6517 131.452 19.3556 130.977 19.1509C130.506 18.9406 129.909 18.8216 129.184 18.7939L128.229 18.7607V23.9487L129.383 23.9072C130.357 23.8796 131.101 23.661 131.616 23.2515C132.13 22.8364 132.388 22.2249 132.388 21.417ZM135.849 24.0151C135.849 23.1463 135.993 22.3356 136.281 21.583C136.574 20.8249 136.989 20.1608 137.526 19.5908C138.068 19.0153 138.718 18.5698 139.477 18.2544C140.235 17.9334 141.081 17.7729 142.017 17.7729C142.813 17.7729 143.577 17.9141 144.308 18.1963C145.044 18.4785 145.699 18.8936 146.275 19.4414C146.85 19.9837 147.304 20.6395 147.636 21.4087C147.974 22.1724 148.143 23.0356 148.143 23.9985C148.143 24.8674 147.996 25.6808 147.703 26.439C147.415 27.1916 147 27.8556 146.458 28.4312C145.921 29.0011 145.273 29.4466 144.515 29.7676C143.757 30.083 142.91 30.2407 141.975 30.2407C141.178 30.2407 140.412 30.0996 139.676 29.8174C138.945 29.5352 138.292 29.1229 137.717 28.5806C137.141 28.0327 136.685 27.377 136.347 26.6133C136.015 25.8441 135.849 24.978 135.849 24.0151ZM138.207 23.8574C138.207 24.599 138.295 25.299 138.472 25.9575C138.649 26.616 138.907 27.1999 139.244 27.709C139.582 28.2126 139.991 28.6082 140.473 28.896C140.954 29.1838 141.499 29.3276 142.108 29.3276C142.977 29.3276 143.68 29.0952 144.216 28.6304C144.759 28.16 145.154 27.5347 145.403 26.7544C145.658 25.9686 145.785 25.1025 145.785 24.1562C145.785 23.4147 145.697 22.7147 145.52 22.0562C145.342 21.3976 145.082 20.8166 144.739 20.313C144.402 19.8039 143.992 19.4054 143.511 19.1177C143.035 18.8299 142.493 18.686 141.884 18.686C141.015 18.686 140.309 18.9212 139.767 19.3916C139.23 19.8564 138.835 20.4818 138.58 21.2676C138.331 22.0479 138.207 22.9111 138.207 23.8574ZM149.695 24.0151C149.695 23.1463 149.839 22.3356 150.126 21.583C150.42 20.8249 150.835 20.1608 151.372 19.5908C151.914 19.0153 152.564 18.5698 153.322 18.2544C154.08 17.9334 154.927 17.7729 155.862 17.7729C156.659 17.7729 157.423 17.9141 158.153 18.1963C158.889 18.4785 159.545 18.8936 160.121 19.4414C160.696 19.9837 161.15 20.6395 161.482 21.4087C161.819 22.1724 161.988 23.0356 161.988 23.9985C161.988 24.8674 161.842 25.6808 161.548 26.439C161.261 27.1916 160.846 27.8556 160.303 28.4312C159.766 29.0011 159.119 29.4466 158.361 29.7676C157.603 30.083 156.756 30.2407 155.821 30.2407C155.024 30.2407 154.257 30.0996 153.521 29.8174C152.791 29.5352 152.138 29.1229 151.562 28.5806C150.987 28.0327 150.53 27.377 150.193 26.6133C149.861 25.8441 149.695 24.978 149.695 24.0151ZM152.052 23.8574C152.052 24.599 152.141 25.299 152.318 25.9575C152.495 26.616 152.752 27.1999 153.09 27.709C153.427 28.2126 153.837 28.6082 154.318 28.896C154.8 29.1838 155.345 29.3276 155.954 29.3276C156.822 29.3276 157.525 29.0952 158.062 28.6304C158.604 28.16 159 27.5347 159.249 26.7544C159.504 25.9686 159.631 25.1025 159.631 24.1562C159.631 23.4147 159.542 22.7147 159.365 22.0562C159.188 21.3976 158.928 20.8166 158.585 20.313C158.247 19.8039 157.838 19.4054 157.356 19.1177C156.881 18.8299 156.338 18.686 155.729 18.686C154.861 18.686 154.155 18.9212 153.613 19.3916C153.076 19.8564 152.68 20.4818 152.426 21.2676C152.177 22.0479 152.052 22.9111 152.052 23.8574ZM166.753 18.0137L170.546 28.0659H170.322L173.767 18.0137H177.585V18.6611C177.181 18.6999 176.877 18.7524 176.672 18.8188C176.473 18.8853 176.34 18.9849 176.274 19.1177C176.213 19.2505 176.185 19.4414 176.191 19.6904L176.407 28.3232C176.412 28.5723 176.445 28.7632 176.506 28.896C176.567 29.0288 176.694 29.1284 176.888 29.1948C177.087 29.2612 177.395 29.3138 177.81 29.3525V30H172.979V29.3525C173.377 29.3138 173.67 29.264 173.858 29.2031C174.052 29.1367 174.177 29.0399 174.232 28.9126C174.287 28.7798 174.312 28.5944 174.307 28.3564L174.099 18.9434H174.39L171.385 27.0781L170.314 30H169.218L164.968 18.9185H165.25L165.226 28.1157C165.231 28.4201 165.262 28.6525 165.317 28.813C165.372 28.9735 165.494 29.0924 165.682 29.1699C165.876 29.2474 166.172 29.3083 166.57 29.3525V30H162.835V29.3525C163.228 29.3083 163.518 29.2502 163.707 29.1782C163.895 29.1007 164.016 28.9845 164.072 28.8296C164.133 28.6691 164.166 28.4422 164.171 28.1489L164.387 19.8813C164.393 19.5881 164.365 19.3639 164.304 19.209C164.243 19.0485 164.116 18.9295 163.922 18.8521C163.734 18.769 163.449 18.7054 163.067 18.6611V18.0137H166.753Z" fill="black"/>
</svg>
