<?xml version="1.0" encoding="UTF-8"?>
<svg id="_레이어_2" data-name="레이어 2" xmlns="http://www.w3.org/2000/svg" viewBox="0 0 535.21 264.06">
  <defs>
    <style>
      .cls-1 {
        fill: #fff;
        stroke-width: 0px;
      }
    </style>
  </defs>
  <g id="_레이어_1-2" data-name="레이어 1">
    <g>
      <g>
        <path class="cls-1" d="M81.95,113.82c-5.87,11.58-16.26,29.13-30.72,29.45-16.87.4-22.25-17.68-19.13-31.96,4.09-18.01,22.16-37.09,19.71-57.54-1.57-13.11-24-7-21.96,10.08.21,3.4,2.54,7.75,4.28,10.57,8.36,14.31-6.26,28.54-20.67,24.22C.96,95.1-4,77.16,3.61,63.36c7.94-14.44,22.98-23.49,39.4-24.24,15.21-.81,24.72,6.31,26.73,19.77,1.91,14.27-8.32,33.22-7.37,41.16.26,2.19,1.17,3.08,2.19,3.16,5.51-1.06,10.61-7.31,15.07-15.5-.33-21.31,1.35-37.62,4.75-42.87,5.22-10.29,16.76-11.47,19.18-1.28,2.13,9.41-5.15,34.45-11.54,46.7,1.04,8.74,3.58,21.53,9.46,20.22,4.52-.94,5.12-11.09,5.39-15.55,1.03-16.64,4.29-36.57,10.06-52.36,2.7-7.78,5.73-14.38,9.23-18.83,11.02-14.01,28.23-9.82,33.03,1.69,4.55,11.14-.13,19.15-12.01,19.16-4.04-.12-7.85,1.74-11.36,4.38-18.98,14.75-17.31,43.96-16.36,65.4.61,11.81-.5,27.86-15.79,29.68-12.11,1.45-18.79-12.26-21.74-30.23Z"/>
        <path class="cls-1" d="M182.31,80.48c-2.25,13.16-10.74,18-17.21,16.16-2.27,6.31-6.71,19.73-21,21.44-5.98.51-14.53-1.89-17.73-10.17-4.99-13.1-.93-34.74,9.06-47.21,8.94-11.14,28.39-11.85,32.99,1.3,1.93,6.01,2.03,13.65.53,21.29.17,1.39.81,1.72,1.41,1.65,2.36-.48,4.49-4.57,5.67-6.52,1.78-3.64,6.71-2.82,6.29,2.07ZM155.92,65.3c-8.25,1.79-13.19,31.18-6.27,30.16,1.56-.39,3.21-1.79,4.58-3.77-.27-.57-.56-1.34-.86-2.11-1.41-5.07,1.69-9.47,5.59-10.54,1.33-7.41.67-14.58-3.05-13.73Z"/>
        <path class="cls-1" d="M231.75,74.57c-2.25,13.16-10.74,18-17.2,16.15-2.27,6.31-6.71,19.73-21,21.44-5.98.51-14.53-1.89-17.73-10.17-4.99-13.1-.93-34.74,9.06-47.21,8.94-11.14,28.39-11.85,32.99,1.3,1.93,6.01,2.03,13.65.53,21.29.17,1.39.81,1.72,1.41,1.65,2.36-.48,4.49-4.56,5.67-6.52,1.78-3.64,6.71-2.82,6.29,2.07ZM205.37,59.4c-8.25,1.79-13.19,31.18-6.27,30.16,1.57-.39,3.21-1.79,4.58-3.77-.27-.57-.56-1.34-.86-2.11-1.41-5.07,1.69-9.47,5.59-10.54,1.33-7.41.67-14.58-3.05-13.73Z"/>
        <path class="cls-1" d="M320.66,38.17c4.36-12.4,7.78-20.87,14.31-26.89,5.96-5.75,12.91-1.54,12.42,6.17-1.01,11.8-12.03,22.39-17.12,27.02-3.36,10.67-4.13,34.53,1.2,43.77,2.55,4.53,6.45,5.07,10.14,5.64,17.85,2.7,15.66,31.57-9.09,30.09-8.73-.57-19.49-6.33-21.5-24.82-1.54-12.91.2-27.01,3.07-40.05-2.84,3.16-8.7,13.12-9.36,16.02.29,2.38.83,6.95-.18,10.29-.91,2.53-3.25,4.82-6.35,4.18-3.34-1.01-5.91-7.35-.78-16.63-1.03-6.93-2.3-14.23-3.32-19.34-1.93,12.52-3.66,30.04-9.89,43.68-13.58,29.62-55.52,27.58-58.82-.02-1.3-10.92,5.1-21.36,16.09-17.03,5.89,2.12,12.67,1.51,18.39-1.19,15.82-7.53,22.12-34.06,26.26-48.26.33-.64.65-1.29.76-2.1-9.04,1.89-19.2,4.51-20.96,13.38-.64,3.1.35,8.01.93,11.17,3.95,16.24-14.08,25.45-26.74,17.29-10.93-7.16-10.33-25.76,1.04-36.78,10.28-10.09,35.48-9.88,48.4-13.03,9.32-26.49,26.61-3.18,9.23,4.74-.69,7.74,3.49,24.16,4.3,39.37,5.65-13.37,13.92-23.42,17.56-26.67ZM339.2,18.03c-1.22-.06-4.14,4.12-5.99,10.58,5.48-4.68,7.6-10.58,5.99-10.58Z"/>
        <path class="cls-1" d="M390.42,55.62c-2.25,13.16-10.74,18-17.21,16.15-2.27,6.31-6.71,19.73-21,21.44-5.98.51-14.53-1.89-17.73-10.17-4.99-13.1-.93-34.74,9.06-47.21,8.94-11.14,28.39-11.85,32.99,1.3,1.93,6.01,2.03,13.65.53,21.29.17,1.39.81,1.72,1.41,1.65,2.36-.48,4.49-4.56,5.67-6.52,1.78-3.64,6.71-2.82,6.29,2.07ZM364.03,40.44c-8.25,1.79-13.19,31.18-6.27,30.16,1.57-.39,3.21-1.79,4.58-3.77-.27-.57-.56-1.34-.86-2.11-1.41-5.07,1.69-9.47,5.59-10.54,1.33-7.41.67-14.58-3.05-13.73Z"/>
        <path class="cls-1" d="M439.87,49.71c-2.25,13.16-10.74,18-17.21,16.15-2.27,6.31-6.71,19.73-21,21.44-5.98.51-14.53-1.89-17.73-10.17-4.99-13.1-.93-34.73,9.06-47.21,8.94-11.14,28.39-11.85,32.99,1.3,1.93,6.01,2.04,13.66.53,21.29.17,1.39.81,1.72,1.41,1.64,2.36-.48,4.49-4.56,5.67-6.52,1.78-3.64,6.71-2.82,6.29,2.07ZM413.48,34.53c-8.25,1.79-13.19,31.18-6.27,30.16,1.57-.39,3.21-1.79,4.58-3.77-.27-.57-.56-1.34-.86-2.11-1.41-5.07,1.69-9.47,5.59-10.54,1.33-7.41.67-14.58-3.05-13.73Z"/>
        <path class="cls-1" d="M463.68,45.05c1.44-4.8,7.59-3.93,6.37,1.05-2.41,13.58-7.33,34.71-24.08,34.5-5.43.04-11.07-3.31-13.2-9.3-5.23-15.09,4.15-37.76,5.75-54.67.54-3.89.51-7.51-.09-10.87-.33-2.78,1.73-4.03,3.79-3.68,1.83.18,4.86.23,8.26.02,4.17-.5,8.47-1.62,9.83-1.98,2.34-.68,3.39,1.41,2.63,3.51-3.4,8.66-15.18,54.99-7.89,55.33,2.83.06,5.29-6.27,8.61-13.92Z"/>
      </g>
      <g>
        <path class="cls-1" d="M146.95,233.72c-5.87,11.58-16.26,29.13-30.72,29.45-16.87.4-22.25-17.68-19.13-31.96,4.09-18.01,22.16-37.09,19.71-57.54-1.57-13.11-24-7-21.96,10.08.21,3.4,2.54,7.75,4.28,10.57,8.36,14.31-6.26,28.54-20.67,24.22-12.51-3.54-17.47-21.48-9.85-35.28,7.94-14.44,22.98-23.49,39.4-24.24,15.21-.81,24.72,6.31,26.73,19.77,1.91,14.27-8.32,33.22-7.37,41.16.26,2.19,1.17,3.08,2.19,3.16,5.51-1.06,10.61-7.31,15.07-15.5-.33-21.31,1.35-37.62,4.75-42.87,5.22-10.29,16.76-11.47,19.18-1.29,2.13,9.41-5.15,34.45-11.54,46.7,1.04,8.74,3.58,21.53,9.46,20.22,4.52-.94,5.12-11.08,5.39-15.55,1.03-16.64,4.29-36.57,10.06-52.36,2.7-7.78,5.73-14.38,9.23-18.83,11.02-14.01,28.23-9.82,33.03,1.69,4.55,11.14-.13,19.15-12.01,19.16-4.04-.12-7.85,1.74-11.36,4.38-18.98,14.75-17.31,43.96-16.36,65.4.61,11.81-.5,27.86-15.79,29.68-12.11,1.45-18.79-12.26-21.74-30.23Z"/>
        <path class="cls-1" d="M247.31,200.38c-2.25,13.16-10.74,18-17.21,16.15-2.27,6.31-6.71,19.73-21,21.44-5.98.51-14.53-1.89-17.73-10.17-4.99-13.1-.93-34.74,9.06-47.21,8.94-11.14,28.39-11.85,32.99,1.3,1.93,6.01,2.03,13.66.53,21.29.17,1.39.81,1.72,1.41,1.65,2.36-.48,4.49-4.56,5.67-6.52,1.78-3.64,6.71-2.82,6.29,2.07ZM220.92,185.2c-8.25,1.79-13.19,31.18-6.27,30.16,1.56-.39,3.21-1.79,4.58-3.77-.27-.57-.56-1.34-.86-2.11-1.41-5.07,1.69-9.47,5.59-10.54,1.33-7.41.67-14.58-3.05-13.73Z"/>
        <path class="cls-1" d="M296.75,194.47c-2.25,13.16-10.74,18-17.2,16.15-2.27,6.31-6.71,19.73-21,21.44-5.98.51-14.53-1.89-17.73-10.17-4.99-13.1-.93-34.73,9.06-47.21,8.94-11.14,28.4-11.85,32.99,1.3,1.93,6.01,2.03,13.65.53,21.29.17,1.39.81,1.72,1.41,1.65,2.36-.48,4.49-4.56,5.67-6.52,1.78-3.64,6.71-2.82,6.29,2.07ZM270.37,179.3c-8.25,1.79-13.19,31.18-6.27,30.16,1.57-.39,3.21-1.79,4.59-3.77-.27-.57-.56-1.34-.86-2.11-1.41-5.07,1.69-9.47,5.59-10.54,1.33-7.41.67-14.58-3.05-13.73Z"/>
        <path class="cls-1" d="M385.66,158.07c4.36-12.41,7.78-20.87,14.31-26.89,5.96-5.75,12.91-1.54,12.42,6.17-1.01,11.8-12.03,22.39-17.12,27.02-3.36,10.67-4.13,34.53,1.2,43.77,2.55,4.53,6.45,5.07,10.14,5.64,17.85,2.7,15.66,31.56-9.09,30.09-8.73-.57-19.49-6.33-21.5-24.82-1.54-12.91.2-27.01,3.07-40.05-2.84,3.16-8.7,13.12-9.36,16.02.29,2.38.83,6.95-.18,10.29-.91,2.52-3.25,4.82-6.35,4.18-3.34-1.01-5.91-7.35-.78-16.63-1.03-6.93-2.3-14.23-3.32-19.34-1.93,12.52-3.66,30.05-9.89,43.68-13.58,29.62-55.52,27.58-58.82-.02-1.3-10.92,5.1-21.36,16.09-17.03,5.89,2.12,12.67,1.51,18.39-1.19,15.82-7.53,22.12-34.06,26.26-48.26.33-.64.65-1.29.76-2.1-9.04,1.88-19.2,4.51-20.96,13.38-.64,3.1.35,8.01.93,11.17,3.95,16.25-14.08,25.45-26.74,17.29-10.93-7.16-10.33-25.76,1.04-36.78,10.28-10.09,35.48-9.88,48.4-13.03,9.32-26.49,26.61-3.18,9.23,4.74-.69,7.74,3.49,24.16,4.3,39.37,5.65-13.36,13.92-23.42,17.56-26.67ZM404.2,137.93c-1.22-.06-4.14,4.12-5.99,10.58,5.48-4.68,7.6-10.58,5.99-10.58Z"/>
        <path class="cls-1" d="M455.42,175.52c-2.25,13.16-10.74,18-17.21,16.15-2.27,6.31-6.71,19.73-21,21.44-5.98.51-14.53-1.89-17.73-10.17-4.99-13.1-.93-34.74,9.06-47.21,8.94-11.14,28.39-11.85,32.99,1.3,1.93,6.01,2.03,13.65.53,21.29.17,1.39.81,1.72,1.41,1.65,2.36-.48,4.49-4.56,5.67-6.52,1.78-3.64,6.71-2.82,6.29,2.07ZM429.03,160.34c-8.25,1.79-13.19,31.18-6.27,30.16,1.57-.39,3.21-1.79,4.58-3.77-.27-.57-.56-1.34-.86-2.11-1.41-5.07,1.69-9.47,5.59-10.54,1.33-7.41.67-14.58-3.05-13.73Z"/>
        <path class="cls-1" d="M504.87,169.61c-2.25,13.16-10.74,18-17.21,16.15-2.27,6.31-6.71,19.73-21,21.44-5.98.51-14.53-1.89-17.73-10.17-4.99-13.1-.93-34.74,9.06-47.21,8.94-11.14,28.39-11.85,32.99,1.3,1.93,6.01,2.04,13.66.53,21.29.17,1.39.81,1.72,1.41,1.65,2.36-.48,4.49-4.56,5.67-6.52,1.78-3.64,6.71-2.82,6.29,2.07ZM478.48,154.43c-8.25,1.79-13.19,31.18-6.27,30.16,1.57-.39,3.21-1.79,4.58-3.77-.27-.57-.56-1.34-.86-2.11-1.41-5.07,1.69-9.47,5.59-10.54,1.33-7.41.67-14.58-3.05-13.73Z"/>
        <path class="cls-1" d="M528.68,164.95c1.44-4.81,7.59-3.93,6.37,1.05-2.41,13.58-7.33,34.71-24.08,34.5-5.43.04-11.07-3.31-13.2-9.3-5.23-15.09,4.15-37.76,5.75-54.67.54-3.89.51-7.51-.09-10.87-.33-2.78,1.73-4.04,3.79-3.68,1.83.18,4.86.23,8.26.02,4.17-.5,8.47-1.62,9.83-1.98,2.34-.68,3.39,1.41,2.63,3.51-3.4,8.67-15.18,54.99-7.89,55.33,2.83.07,5.29-6.27,8.61-13.92Z"/>
      </g>
    </g>
  </g>
</svg>