<svg width="16" height="20" viewBox="0 0 16 20" fill="none" xmlns="http://www.w3.org/2000/svg">
<path d="M15.2727 0H3.09091C2.99091 0 2.90909 0.0803571 2.90909 0.178571V1.42857C2.90909 1.52679 2.99091 1.60714 3.09091 1.60714H14.3636V16.9643C14.3636 17.0625 14.4455 17.1429 14.5455 17.1429H15.8182C15.9182 17.1429 16 17.0625 16 16.9643V0.714286C16 0.319196 15.675 0 15.2727 0ZM12.3636 2.85714H0.727273C0.325 2.85714 0 3.17634 0 3.57143V15.4174C0 15.6071 0.0772726 15.7879 0.213636 15.9219L4.15227 19.7902C4.20227 19.8393 4.25909 19.8795 4.32045 19.9129V19.9554H4.41591C4.49545 19.9844 4.57955 20 4.66591 20H12.3636C12.7659 20 13.0909 19.6808 13.0909 19.2857V3.57143C13.0909 3.17634 12.7659 2.85714 12.3636 2.85714ZM4.31818 17.683L2.36136 15.7589H4.31818V17.683ZM11.4545 18.3929H5.77273V15.2232C5.77273 14.7299 5.36591 14.3304 4.86364 14.3304H1.63636V4.46429H11.4545V18.3929Z" fill="white"/>
</svg>
