<svg width="288" height="183" viewBox="0 0 288 183" fill="none" xmlns="http://www.w3.org/2000/svg">
<rect width="288" height="183" fill="#484848"/>
<path d="M111.703 133.641V135.234C111.703 137.125 111.703 139.078 111.188 142.047L109.422 141.891C109.969 139.109 109.969 137.062 109.969 135.234V135.047H101.828V133.641H111.703ZM113.344 143.031V144.453H100.469V143.031H113.344ZM127.188 139.156V140.531H121.578V141.938H119.859V140.531H114.281V139.156H127.188ZM117.656 141.25V142.531H123.891V141.25H125.609V146.219H115.938V141.25H117.656ZM117.656 144.891H123.891V143.828H117.656V144.891ZM125.594 132.516V136H117.641V137H125.875V138.297H115.922V134.766H123.859V133.828H115.875V132.516H125.594ZM136.328 134.891C136.328 136.422 137.219 137.953 139.078 138.656L138.156 139.984C136.898 139.5 136.023 138.602 135.516 137.5C135 138.766 134.078 139.844 132.734 140.406L131.797 139.078C133.734 138.219 134.641 136.453 134.656 134.891V133.141H136.328V134.891ZM144 132.281V140.938H142.344V137.266H140.938V140.5H139.312V132.547H140.938V135.844H142.344V132.281H144ZM139.234 141.172C142.188 141.172 144.062 142.141 144.078 143.766C144.062 145.391 142.188 146.375 139.234 146.375C136.25 146.375 134.391 145.391 134.391 143.766C134.391 142.141 136.25 141.172 139.234 141.172ZM139.234 142.484C137.281 142.484 136.125 142.938 136.125 143.766C136.125 144.609 137.281 145.047 139.234 145.047C141.172 145.047 142.328 144.609 142.328 143.766C142.328 142.938 141.172 142.484 139.234 142.484ZM150.922 134.297C150.906 136.219 152.031 137.969 154.25 138.672L153.312 140.031C151.773 139.492 150.695 138.469 150.094 137.125C149.469 138.664 148.289 139.875 146.578 140.469L145.656 139.062C148 138.297 149.172 136.406 149.172 134.375V133.031H150.922V134.297ZM157.578 132.266V140.578H155.844V136.422H153.031V135H155.844V132.266H157.578ZM152.797 140.953C155.797 140.953 157.625 141.953 157.625 143.672C157.625 145.391 155.797 146.375 152.797 146.375C149.812 146.375 147.984 145.391 148 143.672C147.984 141.953 149.812 140.953 152.797 140.953ZM152.797 142.297C150.828 142.297 149.719 142.781 149.719 143.672C149.719 144.531 150.828 145.016 152.797 145.016C154.766 145.016 155.891 144.531 155.891 143.672C155.891 142.781 154.766 142.297 152.797 142.297ZM170.641 132.266V137.891H172.812V139.328H170.641V146.391H168.922V132.266H170.641ZM167.828 134.438V135.828H159.5V134.438H162.844V132.469H164.578V134.438H167.828ZM163.719 136.75C165.75 136.75 167.266 138.125 167.266 140.078C167.266 142.031 165.75 143.391 163.719 143.391C161.656 143.391 160.141 142.031 160.156 140.078C160.141 138.125 161.656 136.75 163.719 136.75ZM163.719 138.172C162.609 138.172 161.812 138.922 161.812 140.078C161.812 141.234 162.609 141.969 163.719 141.953C164.797 141.969 165.594 141.234 165.609 140.078C165.594 138.922 164.797 138.172 163.719 138.172ZM185.203 132.266V146.391H183.453V132.266H185.203ZM180.984 133.766C180.984 137.969 179.359 141.547 174.406 143.891L173.5 142.5C177.195 140.742 178.914 138.352 179.219 135.141H174.219V133.766H180.984Z" fill="white"/>
<path d="M144 103C161.673 103 176 88.6731 176 71C176 53.3269 161.673 39 144 39C126.327 39 112 53.3269 112 71C112 88.6731 126.327 103 144 103Z" fill="white"/>
<path d="M130.286 71H157.714" stroke="#484848" stroke-width="4" stroke-linecap="round" stroke-linejoin="round"/>
<path d="M144 57.2861V84.7147" stroke="#484848" stroke-width="4" stroke-linecap="round" stroke-linejoin="round"/>
</svg>
