<svg width="24" height="24" viewBox="0 0 24 24" fill="none" xmlns="http://www.w3.org/2000/svg">
<path d="M15.2806 9.28063L12.8103 11.75L15.2806 14.2194C15.3503 14.2891 15.4056 14.3718 15.4433 14.4628C15.481 14.5539 15.5004 14.6515 15.5004 14.75C15.5004 14.8485 15.481 14.9461 15.4433 15.0372C15.4056 15.1282 15.3503 15.2109 15.2806 15.2806C15.2109 15.3503 15.1282 15.4056 15.0372 15.4433C14.9461 15.481 14.8486 15.5004 14.75 15.5004C14.6515 15.5004 14.5539 15.481 14.4628 15.4433C14.3718 15.4056 14.2891 15.3503 14.2194 15.2806L11.75 12.8103L9.28063 15.2806C9.21095 15.3503 9.12822 15.4056 9.03718 15.4433C8.94613 15.481 8.84855 15.5004 8.75 15.5004C8.65146 15.5004 8.55388 15.481 8.46283 15.4433C8.37179 15.4056 8.28906 15.3503 8.21938 15.2806C8.1497 15.2109 8.09442 15.1282 8.05671 15.0372C8.019 14.9461 7.99959 14.8485 7.99959 14.75C7.99959 14.6515 8.019 14.5539 8.05671 14.4628C8.09442 14.3718 8.1497 14.2891 8.21938 14.2194L10.6897 11.75L8.21938 9.28063C8.07865 9.1399 7.99959 8.94902 7.99959 8.75C7.99959 8.55098 8.07865 8.36011 8.21938 8.21938C8.36011 8.07864 8.55098 7.99958 8.75 7.99958C8.94903 7.99958 9.1399 8.07864 9.28063 8.21938L11.75 10.6897L14.2194 8.21938C14.2891 8.14969 14.3718 8.09442 14.4628 8.05671C14.5539 8.01899 14.6515 7.99958 14.75 7.99958C14.8486 7.99958 14.9461 8.01899 15.0372 8.05671C15.1282 8.09442 15.2109 8.14969 15.2806 8.21938C15.3503 8.28906 15.4056 8.37178 15.4433 8.46283C15.481 8.55387 15.5004 8.65145 15.5004 8.75C15.5004 8.84855 15.481 8.94613 15.4433 9.03717C15.4056 9.12822 15.3503 9.21094 15.2806 9.28063ZM21.5 11.75C21.5 13.6784 20.9282 15.5634 19.8568 17.1668C18.7855 18.7702 17.2627 20.0199 15.4812 20.7578C13.6996 21.4958 11.7392 21.6889 9.84787 21.3127C7.95656 20.9365 6.21928 20.0079 4.85571 18.6443C3.49215 17.2807 2.56355 15.5434 2.18735 13.6521C1.81114 11.7608 2.00422 9.80042 2.74218 8.01884C3.48013 6.23726 4.72982 4.71452 6.33319 3.64317C7.93657 2.57183 9.82164 2 11.75 2C14.335 2.00273 16.8134 3.03084 18.6413 4.85872C20.4692 6.68661 21.4973 9.16498 21.5 11.75ZM20 11.75C20 10.1183 19.5162 8.52325 18.6096 7.16655C17.7031 5.80984 16.4146 4.75242 14.9071 4.12799C13.3997 3.50357 11.7409 3.34019 10.1405 3.65852C8.54017 3.97685 7.07016 4.76259 5.91637 5.91637C4.76259 7.07015 3.97685 8.54016 3.65853 10.1405C3.3402 11.7408 3.50358 13.3996 4.128 14.9071C4.75242 16.4146 5.80984 17.7031 7.16655 18.6096C8.52326 19.5161 10.1183 20 11.75 20C13.9373 19.9975 16.0343 19.1275 17.5809 17.5809C19.1275 16.0343 19.9975 13.9373 20 11.75Z" fill="#EA2323"/>
</svg>
