<svg width="37" height="19" viewBox="0 0 37 19" fill="none" xmlns="http://www.w3.org/2000/svg">
<path fill-rule="evenodd" clip-rule="evenodd" d="M24.2059 15.9192C24.0112 16.0821 23.855 16.2785 23.7466 16.4968C23.6383 16.715 23.5801 16.9506 23.5754 17.1895C23.5707 17.4284 23.6196 17.6657 23.7193 17.8872C23.819 18.1087 23.9674 18.31 24.1556 18.4789C24.3438 18.6478 24.568 18.781 24.8148 18.8705C25.0617 18.96 25.326 19.0039 25.5922 18.9997C25.8583 18.9955 26.1208 18.9432 26.3639 18.846C26.6071 18.7487 26.8259 18.6085 27.0074 18.4337L35.5993 10.7241L37 9.46688L35.5993 8.20962L27.01 0.500015C26.6363 0.175769 26.1357 -0.00377258 25.616 5.96119e-05C25.0963 0.0038918 24.5991 0.190792 24.2314 0.520505C23.8637 0.850217 23.655 1.29636 23.6502 1.76285C23.6455 2.22933 23.845 2.67883 24.2059 3.01453L29.4124 7.68774L1.98214 7.68774C1.45645 7.68774 0.952282 7.87518 0.580558 8.20883C0.208835 8.54249 -3.93185e-07 8.99502 -4.1381e-07 9.46688C-4.34436e-07 9.93873 0.208835 10.3913 0.580558 10.7249C0.952281 11.0586 1.45645 11.246 1.98214 11.246L29.4124 11.246L24.2059 15.9192Z" fill="black"/>
</svg>
