<svg width="29" height="15" viewBox="0 0 29 15" fill="none" xmlns="http://www.w3.org/2000/svg">
<path fill-rule="evenodd" clip-rule="evenodd" d="M18.9722 12.5678C18.8196 12.6964 18.6972 12.8515 18.6122 13.0238C18.5273 13.1961 18.4817 13.382 18.478 13.5706C18.4743 13.7592 18.5127 13.9466 18.5908 14.1215C18.669 14.2964 18.7853 14.4552 18.9328 14.5886C19.0803 14.722 19.256 14.8271 19.4495 14.8978C19.6429 14.9684 19.8501 15.0031 20.0587 14.9998C20.2673 14.9965 20.473 14.9552 20.6636 14.8784C20.8542 14.8016 21.0257 14.691 21.1679 14.553L27.9021 8.46642L29 7.47385L27.9021 6.48128L21.17 0.394749C20.8771 0.138765 20.4848 -0.00297835 20.0774 4.70649e-05C19.6701 0.00307248 19.2803 0.150625 18.9922 0.410925C18.704 0.671224 18.5404 1.02344 18.5367 1.39172C18.5329 1.76 18.6894 2.11487 18.9722 2.37989L23.0529 6.06927L1.55357 6.06927C1.14154 6.06927 0.746383 6.21725 0.455032 6.48066C0.163681 6.74407 -3.10409e-07 7.10133 -3.26692e-07 7.47385C-3.42976e-07 7.84637 0.163681 8.20363 0.455032 8.46704C0.746383 8.73045 1.14154 8.87843 1.55357 8.87843L23.0529 8.87843L18.9722 12.5678Z" fill="#2892C2"/>
</svg>
