<svg width="209" height="48" viewBox="0 0 209 48" fill="none" xmlns="http://www.w3.org/2000/svg">
<path d="M197.452 1H10.2293C8.64713 6.54521 3.4172 8.77169 1 9.19178V37.5479C6.27389 37.5479 9.35032 43.8493 10.2293 47H197.452C197.452 40.9507 204.484 38.1781 208 37.5479V9.19178C202.199 8.18356 198.551 3.3105 197.452 1Z" stroke="#CACACA" stroke-width="2"/>
<path d="M38.0787 24.9199V26.4473H32.1022V31.4775H30.276V26.4473H24.3658V24.9199H38.0787ZM31.1891 17.001C34.3766 17.0176 36.6012 18.3125 36.6012 20.3711C36.6012 22.4131 34.3766 23.6914 31.1891 23.6914C27.985 23.6914 25.7936 22.4131 25.8102 20.3711C25.7936 18.3125 27.985 17.0176 31.1891 17.001ZM31.1891 18.4951C29.0641 18.4951 27.6862 19.1924 27.7028 20.3711C27.6862 21.5332 29.0641 22.2305 31.1891 22.2305C33.3141 22.2305 34.692 21.5332 34.692 20.3711C34.692 19.1924 33.3141 18.4951 31.1891 18.4951ZM52.7545 22.5625V24.0234H46.8112V25.1523H51.0446V28.8379H42.5114V29.9336H51.4596V31.3447H40.7018V27.5098H49.235V26.5469H40.6852V25.1523H44.9684V24.0234H39.0748V22.5625H52.7545ZM50.9948 16.9346V21.6162H40.8014V16.9346H50.9948ZM42.611 18.3789V20.1719H49.152V18.3789H42.611ZM65.6041 16.4365V19.8232H67.7125V21.3174H65.6041V24.6211H63.7614V16.4365H65.6041ZM65.6041 25.2852V28.9043H57.6354V29.9668H66.069V31.3447H55.8092V27.626H63.7614V26.6299H55.7926V25.2852H65.6041ZM62.6823 17.6816V19.0928H53.7838V17.6816H57.3199V16.3535H59.1627V17.6816H62.6823ZM58.233 19.5576C60.4576 19.5742 61.8854 20.5205 61.902 22.0146C61.8854 23.5586 60.4576 24.4717 58.233 24.4717C56.0084 24.4717 54.5475 23.5586 54.5475 22.0146C54.5475 20.5205 56.0084 19.5742 58.233 19.5576ZM58.233 20.8857C57.0709 20.8857 56.3405 21.3008 56.3405 22.0146C56.3405 22.7451 57.0709 23.1436 58.233 23.1436C59.3951 23.1436 60.1422 22.7451 60.1422 22.0146C60.1422 21.3008 59.3951 20.8857 58.233 20.8857ZM84.9449 17.1504V18.6279H80.5953C80.7614 20.0391 82.5958 21.3838 85.4928 21.7324L84.7955 23.1934C82.1061 22.8696 80.1222 21.6826 79.317 20.0557C78.5118 21.6743 76.5446 22.8696 73.8551 23.1934L73.1744 21.7324C76.0714 21.3838 77.881 20.0391 78.0553 18.6279H73.7389V17.1504H84.9449ZM86.1901 24.0234V25.5176H80.3961V28.2568H78.5699V25.5176H72.4772V24.0234H86.1901ZM84.6793 29.6846V31.1787H74.1373V26.8789H75.9801V29.6846H84.6793ZM99.6705 16.4697V31.4941H97.8112V16.4697H99.6705ZM89.8258 17.6982V21.4502H93.4615V17.6982H95.2877V27.958H87.983V17.6982H89.8258ZM89.8258 26.4473H93.4615V22.8945H89.8258V26.4473ZM113.632 16.4697V22.3301H115.857V23.874H113.632V31.4443H111.79V16.4697H113.632ZM109.665 18.0303C109.665 22.4463 107.839 26.3145 102.841 28.7715L101.796 27.3438C105.448 25.5259 107.423 22.9692 107.805 19.5576H102.609V18.0303H109.665ZM129.537 22.6953V24.1895H126.499V26.8125C127.81 26.7544 129.122 26.6631 130.367 26.5303L130.516 27.8916C127.213 28.3896 123.743 28.4229 120.904 28.4229L120.672 26.8955C121.908 26.9038 123.261 26.9038 124.656 26.8623V24.1895H121.717V17.8477H129.47V19.3086H123.544V22.6953H129.537ZM133.106 16.4697V31.4941H131.263V16.4697H133.106ZM140.793 26.1982C140.776 27.4683 141.357 28.7798 142.652 29.6182C143.947 28.7134 144.528 27.3271 144.545 26.1982V25.501H146.354V26.1982C146.354 27.7588 147.267 29.2695 149.276 29.9004L148.346 31.2783C146.894 30.7637 145.931 29.8008 145.424 28.5889C144.926 29.7842 144.03 30.8467 142.652 31.3945C141.257 30.8716 140.369 29.8506 139.88 28.6387C139.348 29.8008 138.394 30.7554 137.007 31.2783L136.111 29.9004C138.053 29.2363 138.983 27.6758 139 26.1982V25.501H140.793V26.1982ZM139.464 17.2666C141.382 17.2666 142.926 18.3955 143.316 20.0557H146.022V16.4697H147.865V24.9365H146.022V21.5498H143.333C142.976 23.2598 141.415 24.4053 139.464 24.4053C137.19 24.4053 135.497 22.9277 135.497 20.8359C135.497 18.7607 137.19 17.2666 139.464 17.2666ZM139.464 18.8105C138.203 18.8105 137.273 19.6074 137.273 20.8359C137.273 22.0479 138.203 22.8779 139.464 22.8779C140.693 22.8779 141.623 22.0479 141.623 20.8359C141.623 19.6074 140.693 18.8105 139.464 18.8105ZM154.09 17.5654C156.124 17.5654 157.627 19.2588 157.892 21.998H160.748V16.4697H162.574V31.4941H160.748V23.4922H157.909C157.71 26.3892 156.182 28.1738 154.09 28.1738C151.833 28.1738 150.239 26.1318 150.239 22.8613C150.239 19.624 151.833 17.5654 154.09 17.5654ZM154.09 19.2256C152.845 19.2256 151.999 20.5703 152.015 22.8613C151.999 25.1689 152.845 26.5137 154.09 26.5137C155.336 26.5137 156.166 25.1689 156.182 22.8613C156.166 20.5703 155.336 19.2256 154.09 19.2256ZM178.395 28.1406V29.6514H164.682V28.1406H167.853V24.3389C166.658 23.6582 165.936 22.5874 165.944 21.251C165.927 18.8604 168.285 17.2832 171.505 17.2832C174.743 17.2832 177.1 18.8604 177.1 21.251C177.1 22.5625 176.403 23.6167 175.241 24.3057V28.1406H178.395ZM171.505 18.7441C169.264 18.7441 167.737 19.6904 167.754 21.251C167.737 22.7949 169.264 23.7578 171.505 23.7578C173.747 23.7578 175.291 22.7949 175.291 21.251C175.291 19.6904 173.747 18.7441 171.505 18.7441ZM169.679 28.1406H173.365V25.0029C172.792 25.1357 172.17 25.2021 171.505 25.2021C170.858 25.2021 170.244 25.1357 169.679 25.0195V28.1406ZM182.463 17.9805L182.28 26.4639H180.404L180.205 17.9805H182.463ZM181.35 30.1328C180.636 30.1328 180.055 29.5518 180.055 28.8379C180.055 28.1406 180.636 27.5596 181.35 27.5596C182.031 27.5596 182.629 28.1406 182.629 28.8379C182.629 29.5518 182.031 30.1328 181.35 30.1328Z" fill="#CACACA"/>
</svg>
