<svg width="209" height="48" viewBox="0 0 209 48" fill="none" xmlns="http://www.w3.org/2000/svg">
<path d="M197.452 1H10.2293C8.64713 6.54521 3.4172 8.77169 1 9.19178V37.5479C6.27389 37.5479 9.35032 43.8493 10.2293 47H197.452C197.452 40.9507 204.484 38.1781 208 37.5479V9.19178C202.199 8.18356 198.551 3.3105 197.452 1Z" stroke="#2892C2" stroke-width="2"/>
<path d="M41.1965 22.2637V23.7744H38.9719V31.4443H37.1292V16.4697H38.9719V22.2637H41.1965ZM29.5755 17.9307V26.2148C31.5759 26.1816 33.7092 26.0073 35.9671 25.5342L36.1663 27.0947C33.6428 27.5928 31.2356 27.7422 29.011 27.7422H27.7493V17.9307H29.5755ZM49.5305 17.7646V24.8535H42.4251V17.7646H49.5305ZM44.2346 19.2422V23.3926H47.721V19.2422H44.2346ZM53.7473 16.4697V20.8691H55.8391V22.4131H53.7473V27.4268H51.9046V16.4697H53.7473ZM54.345 29.6846V31.1787H44.135V26.3643H45.9778V29.6846H54.345ZM61.4671 17.5156C63.8411 17.499 65.5842 19.0098 65.6008 21.1348C65.5842 23.2764 63.8411 24.7705 61.4671 24.7705C59.1096 24.7705 57.3499 23.2764 57.3499 21.1348C57.3499 19.0098 59.1096 17.499 61.4671 17.5156ZM61.4671 19.1094C60.1555 19.1094 59.176 19.8896 59.176 21.1348C59.176 22.3965 60.1555 23.1602 61.4671 23.1602C62.7952 23.1602 63.7913 22.3965 63.7913 21.1348C63.7913 19.8896 62.7952 19.1094 61.4671 19.1094ZM69.1038 16.4697V31.4941H67.261V16.4697H69.1038ZM56.6692 26.8457C59.3753 26.8457 63.1272 26.8125 66.3645 26.3477L66.5139 27.6924C63.1438 28.3398 59.5413 28.3564 56.9016 28.3564L56.6692 26.8457ZM87.8967 16.4697V24.7373H86.054V21.7324H83.1487V20.2383H86.054V16.4697H87.8967ZM79.8616 25.418V26.9121H86.0706V25.418H87.8967V31.2949H78.052V25.418H79.8616ZM79.8616 29.8008H86.0706V28.3398H79.8616V29.8008ZM83.2317 17.1836C83.2151 21.2012 81.1565 23.8906 76.3421 25.3184L75.6282 23.8408C77.8279 23.2183 79.2888 22.3467 80.177 21.251L75.8772 21.583L75.595 20.1221L80.9573 19.9229C81.0984 19.5244 81.198 19.1094 81.2561 18.6777H76.3587V17.1836H83.2317ZM96.845 17.3164C100.016 17.3164 102.44 18.9932 102.44 21.5498C102.44 24.1396 100.016 25.8164 96.845 25.8164C93.6907 25.8164 91.2669 24.1396 91.2835 21.5498C91.2669 18.9932 93.6907 17.3164 96.845 17.3164ZM96.845 18.8105C94.6702 18.7939 93.0598 19.8896 93.0598 21.5498C93.0598 23.2432 94.6702 24.3057 96.845 24.3057C99.0364 24.3057 100.63 23.2432 100.63 21.5498C100.63 19.8896 99.0364 18.7939 96.845 18.8105ZM103.735 28.0742V29.585H90.0217V28.0742H103.735ZM118.427 28.207V29.7344H104.714V28.207H110.624V25.7666H106.341V20.8525H114.974V18.9932H106.308V17.499H116.8V22.3135H108.184V24.2559H117.149V25.7666H112.45V28.207H118.427ZM128.903 19.126C128.903 21.1182 130.098 23.0605 132.422 23.8574L131.409 25.3018C129.791 24.6875 128.629 23.5171 128.006 22.0479C127.35 23.6914 126.13 24.9946 124.37 25.6504L123.391 24.1895C125.798 23.376 127.027 21.3008 127.043 19.1094V17.3994H128.903V19.126ZM136.008 16.4863V27.626H134.165V21.3008H131.177V19.79H134.165V16.4863H136.008ZM136.34 29.6846V31.1787H126.114V26.4141H127.99V29.6846H136.34ZM144.591 17.5156V18.9932H140.474V20.4541H144.442V21.8652H140.474V23.4424C142.308 23.4258 143.578 23.3511 145.039 23.0771L145.239 24.5713C143.479 24.9033 142.018 24.9531 139.694 24.9531H138.698V17.5156H144.591ZM150.966 16.4863V25.6172H149.206V21.7158H147.646V25.501H145.919V16.7686H147.646V20.2383H149.206V16.4863H150.966ZM150.966 26.2812V31.4775H149.123V27.7754H140.69V26.2812H150.966ZM164.579 16.4697V22.4463H166.887V23.9736H164.579V31.4775H162.753V16.4697H164.579ZM161.591 18.7773V20.2549H152.742V18.7773H156.295V16.6855H158.138V18.7773H161.591ZM157.225 21.2344C159.383 21.2344 160.993 22.6953 160.993 24.7705C160.993 26.8457 159.383 28.29 157.225 28.29C155.033 28.29 153.423 26.8457 153.44 24.7705C153.423 22.6953 155.033 21.2344 157.225 21.2344ZM157.225 22.7451C156.046 22.7451 155.199 23.542 155.199 24.7705C155.199 25.999 156.046 26.7793 157.225 26.7627C158.37 26.7793 159.217 25.999 159.234 24.7705C159.217 23.542 158.37 22.7451 157.225 22.7451ZM180.052 16.4697V31.4775H178.193V16.4697H180.052ZM175.57 18.0635C175.57 22.5293 173.843 26.3311 168.58 28.8213L167.617 27.3438C171.544 25.4761 173.37 22.936 173.694 19.5244H168.381V18.0635H175.57Z" fill="#2892C2"/>
</svg>
