<svg width="201" height="48" viewBox="0 0 201 48" fill="none" xmlns="http://www.w3.org/2000/svg">
<path d="M189.86 1H9.87261C8.35159 6.54521 3.32378 8.77169 1 9.19178V37.5479C6.07006 37.5479 9.0276 43.8493 9.87261 47H189.86C189.86 40.9507 196.62 38.1781 200 37.5479V9.19178C194.423 8.18356 190.916 3.3105 189.86 1Z" stroke="white" stroke-width="2"/>
<path d="M25.2334 18.0137L29.0269 28.0659H28.8027L32.2476 18.0137H36.0659V18.6611C35.6619 18.6999 35.3576 18.7524 35.1528 18.8188C34.9536 18.8853 34.8208 18.9849 34.7544 19.1177C34.6935 19.2505 34.6659 19.4414 34.6714 19.6904L34.8872 28.3232C34.8927 28.5723 34.9259 28.7632 34.9868 28.896C35.0477 29.0288 35.175 29.1284 35.3687 29.1948C35.5679 29.2612 35.875 29.3138 36.29 29.3525V30H31.459V29.3525C31.8574 29.3138 32.1507 29.264 32.3389 29.2031C32.5326 29.1367 32.6571 29.0399 32.7124 28.9126C32.7677 28.7798 32.7926 28.5944 32.7871 28.3564L32.5796 18.9434H32.8701L29.8652 27.0781L28.7944 30H27.6987L23.4487 18.9185H23.731L23.7061 28.1157C23.7116 28.4201 23.742 28.6525 23.7974 28.813C23.8527 28.9735 23.9744 29.0924 24.1626 29.1699C24.3563 29.2474 24.6523 29.3083 25.0508 29.3525V30H21.3154V29.3525C21.7083 29.3083 21.9989 29.2502 22.187 29.1782C22.3752 29.1007 22.4969 28.9845 22.5522 28.8296C22.6131 28.6691 22.6463 28.4422 22.6519 28.1489L22.8677 19.8813C22.8732 19.5881 22.8455 19.3639 22.7847 19.209C22.7238 19.0485 22.5965 18.9295 22.4028 18.8521C22.2147 18.769 21.9297 18.7054 21.5479 18.6611V18.0137H25.2334ZM37.1782 24.0151C37.1782 23.1463 37.3221 22.3356 37.6099 21.583C37.9032 20.8249 38.3182 20.1608 38.855 19.5908C39.3973 19.0153 40.0475 18.5698 40.8057 18.2544C41.5638 17.9334 42.4105 17.7729 43.3457 17.7729C44.1426 17.7729 44.9062 17.9141 45.6367 18.1963C46.3727 18.4785 47.0285 18.8936 47.604 19.4414C48.1795 19.9837 48.6333 20.6395 48.9653 21.4087C49.3029 22.1724 49.4717 23.0356 49.4717 23.9985C49.4717 24.8674 49.325 25.6808 49.0317 26.439C48.744 27.1916 48.3289 27.8556 47.7866 28.4312C47.2498 29.0011 46.6024 29.4466 45.8442 29.7676C45.0861 30.083 44.2394 30.2407 43.3042 30.2407C42.5073 30.2407 41.7409 30.0996 41.0049 29.8174C40.2744 29.5352 39.6214 29.1229 39.0459 28.5806C38.4704 28.0327 38.0138 27.377 37.6763 26.6133C37.3442 25.8441 37.1782 24.978 37.1782 24.0151ZM39.5356 23.8574C39.5356 24.599 39.6242 25.299 39.8013 25.9575C39.9784 26.616 40.2357 27.1999 40.5732 27.709C40.9108 28.2126 41.3203 28.6082 41.8018 28.896C42.2832 29.1838 42.8283 29.3276 43.437 29.3276C44.3058 29.3276 45.0086 29.0952 45.5454 28.6304C46.0877 28.16 46.4834 27.5347 46.7324 26.7544C46.987 25.9686 47.1143 25.1025 47.1143 24.1562C47.1143 23.4147 47.0257 22.7147 46.8486 22.0562C46.6715 21.3976 46.4115 20.8166 46.0684 20.313C45.7308 19.8039 45.3213 19.4054 44.8398 19.1177C44.3639 18.8299 43.8216 18.686 43.2129 18.686C42.3441 18.686 41.6385 18.9212 41.0962 19.3916C40.5594 19.8564 40.1637 20.4818 39.9092 21.2676C39.6602 22.0479 39.5356 22.9111 39.5356 23.8574ZM51.1401 20.2798C50.9852 19.8537 50.8385 19.5327 50.7002 19.3169C50.5674 19.1011 50.4014 18.9489 50.2021 18.8604C50.0085 18.7663 49.7428 18.6999 49.4053 18.6611V18.0137H54.4189V18.6611C53.9818 18.7165 53.6636 18.7939 53.4644 18.8936C53.2707 18.9876 53.1711 19.1426 53.1655 19.3584C53.16 19.5742 53.2292 19.8869 53.373 20.2964L56.27 28.6138H55.9712L58.8101 20.3296C58.9484 19.909 59.0148 19.5908 59.0093 19.375C59.0093 19.1536 58.9097 18.9932 58.7104 18.8936C58.5168 18.7939 58.2013 18.7165 57.7642 18.6611V18.0137H61.6323V18.6611C61.2782 18.6999 61.0015 18.7663 60.8022 18.8604C60.6086 18.9544 60.4425 19.1149 60.3042 19.3418C60.1714 19.5687 60.022 19.909 59.856 20.3628L56.3115 30H54.6929L51.1401 20.2798ZM71.0703 18.0137L71.1616 21.0767H70.564C70.4256 20.479 70.2485 20.0225 70.0327 19.707C69.8224 19.3916 69.5236 19.173 69.1362 19.0513C68.7544 18.9295 68.2397 18.8576 67.5923 18.8354L65.4009 18.7607V23.4922L67.6753 23.4839C67.8856 23.4839 68.0544 23.4424 68.1816 23.3594C68.3089 23.2764 68.4168 23.1159 68.5054 22.8779C68.5939 22.6344 68.688 22.2747 68.7876 21.7988H69.3521V25.9326H68.7876C68.7046 25.4622 68.6188 25.1081 68.5303 24.8701C68.4417 24.6266 68.3311 24.4634 68.1982 24.3804C68.0654 24.2918 67.8911 24.2448 67.6753 24.2393H65.4009V29.2529L67.6255 29.1782C68.2121 29.1561 68.6963 29.1146 69.0781 29.0537C69.4655 28.9873 69.7782 28.8683 70.0161 28.6968C70.2541 28.5197 70.445 28.2624 70.5889 27.9248C70.7327 27.5872 70.8573 27.1335 70.9624 26.5635H71.5684L71.4438 30H61.8896V29.3525C62.3102 29.3083 62.6201 29.2529 62.8193 29.1865C63.0186 29.1201 63.1458 29.0233 63.2012 28.896C63.262 28.7632 63.2925 28.5723 63.2925 28.3232V19.6904C63.2925 19.4414 63.262 19.2533 63.2012 19.126C63.1458 18.9932 63.0186 18.8936 62.8193 18.8271C62.6201 18.7607 62.3102 18.7054 61.8896 18.6611V18.0137H71.0703ZM87.1904 18.0137L87.2817 21.0767H86.6841C86.5734 20.4513 86.4129 19.981 86.2026 19.6655C85.9979 19.3446 85.6825 19.126 85.2563 19.0098C84.8358 18.888 84.2547 18.8105 83.5132 18.7773L83.0234 18.7607V28.207C83.0234 28.4782 83.0566 28.6885 83.123 28.8379C83.1895 28.9873 83.3306 29.1007 83.5464 29.1782C83.7622 29.2502 84.0942 29.3083 84.5425 29.3525V30H79.396V29.3525C79.8442 29.3083 80.1763 29.2502 80.3921 29.1782C80.6079 29.1007 80.749 28.9873 80.8154 28.8379C80.8818 28.6885 80.915 28.4782 80.915 28.207V18.7607L80.4336 18.7773C79.681 18.8105 79.0944 18.888 78.6738 19.0098C78.2588 19.126 77.9461 19.3418 77.7358 19.6572C77.5311 19.9727 77.3706 20.4458 77.2544 21.0767H76.6567L76.7563 18.0137H87.1904ZM87.9126 24.0151C87.9126 23.1463 88.0565 22.3356 88.3442 21.583C88.6375 20.8249 89.0526 20.1608 89.5894 19.5908C90.1317 19.0153 90.7819 18.5698 91.54 18.2544C92.2982 17.9334 93.1449 17.7729 94.0801 17.7729C94.877 17.7729 95.6406 17.9141 96.3711 18.1963C97.1071 18.4785 97.7629 18.8936 98.3384 19.4414C98.9139 19.9837 99.3677 20.6395 99.6997 21.4087C100.037 22.1724 100.206 23.0356 100.206 23.9985C100.206 24.8674 100.059 25.6808 99.7661 26.439C99.4784 27.1916 99.0633 27.8556 98.521 28.4312C97.9842 29.0011 97.3368 29.4466 96.5786 29.7676C95.8205 30.083 94.9738 30.2407 94.0386 30.2407C93.2417 30.2407 92.4753 30.0996 91.7393 29.8174C91.0088 29.5352 90.3558 29.1229 89.7803 28.5806C89.2048 28.0327 88.7482 27.377 88.4106 26.6133C88.0786 25.8441 87.9126 24.978 87.9126 24.0151ZM90.27 23.8574C90.27 24.599 90.3586 25.299 90.5356 25.9575C90.7127 26.616 90.9701 27.1999 91.3076 27.709C91.6452 28.2126 92.0547 28.6082 92.5361 28.896C93.0176 29.1838 93.5627 29.3276 94.1714 29.3276C95.0402 29.3276 95.743 29.0952 96.2798 28.6304C96.8221 28.16 97.2178 27.5347 97.4668 26.7544C97.7214 25.9686 97.8486 25.1025 97.8486 24.1562C97.8486 23.4147 97.7601 22.7147 97.583 22.0562C97.4059 21.3976 97.1458 20.8166 96.8027 20.313C96.4652 19.8039 96.0557 19.4054 95.5742 19.1177C95.0983 18.8299 94.556 18.686 93.9473 18.686C93.0785 18.686 92.3729 18.9212 91.8306 19.3916C91.2938 19.8564 90.8981 20.4818 90.6436 21.2676C90.3945 22.0479 90.27 22.9111 90.27 23.8574ZM116.027 18.0137L116.119 21.0767H115.521C115.41 20.4513 115.25 19.981 115.04 19.6655C114.835 19.3446 114.519 19.126 114.093 19.0098C113.673 18.888 113.092 18.8105 112.35 18.7773L111.86 18.7607V28.207C111.86 28.4782 111.894 28.6885 111.96 28.8379C112.026 28.9873 112.167 29.1007 112.383 29.1782C112.599 29.2502 112.931 29.3083 113.379 29.3525V30H108.233V29.3525C108.681 29.3083 109.013 29.2502 109.229 29.1782C109.445 29.1007 109.586 28.9873 109.652 28.8379C109.719 28.6885 109.752 28.4782 109.752 28.207V18.7607L109.271 18.7773C108.518 18.8105 107.931 18.888 107.511 19.0098C107.096 19.126 106.783 19.3418 106.573 19.6572C106.368 19.9727 106.208 20.4458 106.091 21.0767H105.494L105.593 18.0137H116.027ZM120.468 28.3647C120.468 28.5972 120.499 28.7798 120.56 28.9126C120.62 29.0399 120.745 29.1367 120.933 29.2031C121.121 29.264 121.409 29.3138 121.796 29.3525V30H116.957V29.3525C117.378 29.3083 117.688 29.2529 117.887 29.1865C118.086 29.1201 118.213 29.0233 118.269 28.896C118.329 28.7632 118.36 28.5723 118.36 28.3232V19.6904C118.36 19.4414 118.329 19.2533 118.269 19.126C118.213 18.9932 118.086 18.8936 117.887 18.8271C117.688 18.7607 117.378 18.7054 116.957 18.6611V18.0137H121.796V18.6694C121.409 18.7082 121.121 18.7607 120.933 18.8271C120.745 18.888 120.62 18.9821 120.56 19.1094C120.499 19.2367 120.468 19.4193 120.468 19.6572V28.3647ZM128.371 28.3232C128.371 28.5723 128.401 28.7632 128.462 28.896C128.528 29.0288 128.661 29.1284 128.86 29.1948C129.06 29.2557 129.364 29.3083 129.773 29.3525V30H124.942V29.3525C125.341 29.3138 125.631 29.264 125.814 29.2031C126.002 29.1367 126.124 29.0399 126.179 28.9126C126.235 28.7853 126.262 28.6027 126.262 28.3647V19.6489C126.262 19.411 126.235 19.2284 126.179 19.1011C126.124 18.9738 126.002 18.8797 125.814 18.8188C125.631 18.7524 125.341 18.6999 124.942 18.6611V18.0137H129.773V18.6611C129.364 18.7054 129.06 18.7607 128.86 18.8271C128.661 18.888 128.528 18.9849 128.462 19.1177C128.401 19.2505 128.371 19.4414 128.371 19.6904V28.3232ZM119.414 24.2725V23.4673H127.316V24.2725H119.414ZM139.867 18.0137L139.958 21.0767H139.361C139.222 20.479 139.045 20.0225 138.83 19.707C138.619 19.3916 138.32 19.173 137.933 19.0513C137.551 18.9295 137.037 18.8576 136.389 18.8354L134.198 18.7607V23.4922L136.472 23.4839C136.682 23.4839 136.851 23.4424 136.979 23.3594C137.106 23.2764 137.214 23.1159 137.302 22.8779C137.391 22.6344 137.485 22.2747 137.584 21.7988H138.149V25.9326H137.584C137.501 25.4622 137.416 25.1081 137.327 24.8701C137.239 24.6266 137.128 24.4634 136.995 24.3804C136.862 24.2918 136.688 24.2448 136.472 24.2393H134.198V29.2529L136.422 29.1782C137.009 29.1561 137.493 29.1146 137.875 29.0537C138.262 28.9873 138.575 28.8683 138.813 28.6968C139.051 28.5197 139.242 28.2624 139.386 27.9248C139.53 27.5872 139.654 27.1335 139.759 26.5635H140.365L140.241 30H130.687V29.3525C131.107 29.3083 131.417 29.2529 131.616 29.1865C131.815 29.1201 131.943 29.0233 131.998 28.896C132.059 28.7632 132.089 28.5723 132.089 28.3232V19.6904C132.089 19.4414 132.059 19.2533 131.998 19.126C131.943 18.9932 131.815 18.8936 131.616 18.8271C131.417 18.7607 131.107 18.7054 130.687 18.6611V18.0137H139.867ZM155.987 18.0137L156.079 21.0767H155.481C155.37 20.4513 155.21 19.981 155 19.6655C154.795 19.3446 154.479 19.126 154.053 19.0098C153.633 18.888 153.052 18.8105 152.31 18.7773L151.82 18.7607V28.207C151.82 28.4782 151.854 28.6885 151.92 28.8379C151.986 28.9873 152.127 29.1007 152.343 29.1782C152.559 29.2502 152.891 29.3083 153.339 29.3525V30H148.193V29.3525C148.641 29.3083 148.973 29.2502 149.189 29.1782C149.405 29.1007 149.546 28.9873 149.612 28.8379C149.679 28.6885 149.712 28.4782 149.712 28.207V18.7607L149.23 18.7773C148.478 18.8105 147.891 18.888 147.471 19.0098C147.056 19.126 146.743 19.3418 146.533 19.6572C146.328 19.9727 146.167 20.4458 146.051 21.0767H145.454L145.553 18.0137H155.987ZM156.709 24.0151C156.709 23.1463 156.853 22.3356 157.141 21.583C157.434 20.8249 157.849 20.1608 158.386 19.5908C158.929 19.0153 159.579 18.5698 160.337 18.2544C161.095 17.9334 161.942 17.7729 162.877 17.7729C163.674 17.7729 164.438 17.9141 165.168 18.1963C165.904 18.4785 166.56 18.8936 167.135 19.4414C167.711 19.9837 168.165 20.6395 168.497 21.4087C168.834 22.1724 169.003 23.0356 169.003 23.9985C169.003 24.8674 168.856 25.6808 168.563 26.439C168.275 27.1916 167.86 27.8556 167.318 28.4312C166.781 29.0011 166.134 29.4466 165.375 29.7676C164.617 30.083 163.771 30.2407 162.835 30.2407C162.039 30.2407 161.272 30.0996 160.536 29.8174C159.806 29.5352 159.153 29.1229 158.577 28.5806C158.002 28.0327 157.545 27.377 157.208 26.6133C156.875 25.8441 156.709 24.978 156.709 24.0151ZM159.067 23.8574C159.067 24.599 159.155 25.299 159.333 25.9575C159.51 26.616 159.767 27.1999 160.104 27.709C160.442 28.2126 160.852 28.6082 161.333 28.896C161.814 29.1838 162.36 29.3276 162.968 29.3276C163.837 29.3276 164.54 29.0952 165.077 28.6304C165.619 28.16 166.015 27.5347 166.264 26.7544C166.518 25.9686 166.646 25.1025 166.646 24.1562C166.646 23.4147 166.557 22.7147 166.38 22.0562C166.203 21.3976 165.943 20.8166 165.6 20.313C165.262 19.8039 164.853 19.4054 164.371 19.1177C163.895 18.8299 163.353 18.686 162.744 18.686C161.875 18.686 161.17 18.9212 160.627 19.3916C160.091 19.8564 159.695 20.4818 159.44 21.2676C159.191 22.0479 159.067 22.9111 159.067 23.8574ZM179.852 21.5747C179.852 22.2 179.728 22.7479 179.479 23.2183C179.235 23.6886 178.886 24.0843 178.433 24.4053C177.984 24.7262 177.45 24.967 176.831 25.1274C176.211 25.2879 175.527 25.3682 174.78 25.3682H173.419V28.207C173.419 28.4782 173.452 28.6885 173.519 28.8379C173.585 28.9873 173.726 29.1007 173.942 29.1782C174.158 29.2502 174.49 29.3083 174.938 29.3525V30H169.908V29.3525C170.323 29.3083 170.63 29.2529 170.829 29.1865C171.028 29.1201 171.156 29.0233 171.211 28.896C171.272 28.7632 171.302 28.5723 171.302 28.3232V19.6904C171.302 19.4414 171.272 19.2533 171.211 19.126C171.156 18.9932 171.028 18.8936 170.829 18.8271C170.63 18.7607 170.323 18.7054 169.908 18.6611V18.0137H174.78C176.341 18.0137 177.575 18.3097 178.482 18.9019C179.396 19.494 179.852 20.3849 179.852 21.5747ZM177.594 21.7075C177.594 21.1154 177.467 20.6063 177.212 20.1802C176.963 19.7541 176.584 19.4248 176.075 19.1924C175.566 18.96 174.924 18.8271 174.149 18.7939L173.419 18.7607V24.6211L174.149 24.5879C174.919 24.5602 175.558 24.4357 176.067 24.2144C176.576 23.9875 176.958 23.6665 177.212 23.2515C177.467 22.8364 177.594 22.3218 177.594 21.7075Z" fill="white"/>
</svg>
