<svg width="21" height="21" viewBox="0 0 21 21" fill="none" xmlns="http://www.w3.org/2000/svg">
<g opacity="0.8" clip-path="url(#clip0_190_202)">
<mask id="mask0_190_202" style="mask-type:luminance" maskUnits="userSpaceOnUse" x="0" y="0" width="21" height="21">
<path d="M20.5 0.5H0.5V20.5H20.5V0.5Z" fill="white"/>
</mask>
<g mask="url(#mask0_190_202)">
<path d="M20.1 10.7301C20.1 10.0201 20.04 9.34005 19.92 8.68005H10.5V12.5501H15.88C15.65 13.8001 14.94 14.8601 13.88 15.5701V18.0801H17.11C19 16.3401 20.09 13.7801 20.09 10.7301H20.1Z" fill="#4285F4"/>
<path d="M10.4996 20.5C13.1996 20.5 15.4596 19.6 17.1196 18.08L13.8896 15.57C12.9896 16.17 11.8496 16.52 10.4996 16.52C7.89957 16.52 5.68957 14.76 4.89957 12.4H1.55957V14.99C3.20957 18.26 6.58957 20.5 10.4996 20.5Z" fill="#34A853"/>
<path d="M4.9 12.4C4.7 11.8 4.59 11.16 4.59 10.5C4.59 9.84001 4.7 9.20001 4.9 8.60001V6.01001H1.56C0.88 7.36001 0.5 8.89001 0.5 10.5C0.5 12.11 0.89 13.64 1.56 14.99L4.9 12.4Z" fill="#FBBC04"/>
<path d="M10.4996 4.48004C11.9696 4.48004 13.2896 4.98004 14.3196 5.98004L17.1896 3.11004C15.4596 1.50004 13.1896 0.510043 10.4996 0.510043C6.58957 0.500043 3.20957 2.74004 1.55957 6.01004L4.89957 8.60004C5.68957 6.24004 7.88957 4.48004 10.4996 4.48004Z" fill="#E94235"/>
</g>
</g>
<defs>
<clipPath id="clip0_190_202">
<rect width="20" height="20" fill="white" transform="translate(0.5 0.5)"/>
</clipPath>
</defs>
</svg>
