<svg width="69" height="69" viewBox="0 0 69 69" fill="none" xmlns="http://www.w3.org/2000/svg">
<rect x="1" y="1" width="67" height="67" rx="4" fill="black"/>
<rect x="1" y="1" width="67" height="67" rx="4" stroke="black" stroke-width="2"/>
<g clip-path="url(#clip0_430_108)">
<path d="M24.1756 60.8156C23.4495 60.0786 23 59.0609 23 57.9467V42.5495C23 41.5143 23.147 40.4001 24.9363 39.1718C25.4031 38.8384 25.6798 38.3032 25.6798 37.7154C25.6798 37.1364 25.3945 36.5924 24.9104 36.2678C23.4322 35.2413 23 34.4781 23 32.855V27.4419C23 23.7483 25.5155 20.2653 27.5383 17.4666C28.2212 16.5278 28.8695 15.6154 29.3191 14.8521C29.0165 14.6942 28.809 14.352 28.809 14.0011V8.72835C28.809 8.72835 28.809 8.7108 28.809 8.69325C28.835 7.77205 29.5697 7.02632 30.4774 7C30.4861 7 30.4947 7 30.512 7L37.488 7.01755C37.9548 7.01755 38.3957 7.20179 38.7069 7.53517C39.0181 7.85979 39.1823 8.28968 39.1737 8.73712L39.191 14.0099C39.191 14.2643 39.0959 14.51 38.9143 14.6942C38.8452 14.7644 38.7674 14.817 38.6809 14.8697C39.1218 15.6242 39.7701 16.5278 40.4444 17.4578C42.4672 20.2653 44.9914 23.7483 44.9914 27.4331L45.0086 32.855C44.9914 34.4868 44.5418 35.2764 43.0982 36.2678C42.6141 36.5924 42.3289 37.1364 42.3289 37.7154C42.3289 38.2945 42.5969 38.8296 43.0723 39.163C44.879 40.4352 45.0173 41.523 44.9914 42.6197V57.938C44.9914 60.1839 43.1933 62.0088 40.9804 62.0088H26.9937C25.8959 62.0088 24.8931 61.5526 24.167 60.8156H24.1756ZM26.5183 35.1273C27.1839 35.8028 27.5729 36.7328 27.5729 37.7154C27.5729 38.9261 26.9851 40.0579 26.0083 40.751C24.8931 41.5143 24.8931 41.9266 24.8931 42.5408V42.5934V57.938C24.8931 59.096 25.8527 60.0699 26.9937 60.0699H40.9804C42.1473 60.0699 43.0896 59.1048 43.0896 57.9292V42.6109C43.0896 42.6109 43.0896 42.6022 43.0896 42.5934V42.5758C43.0982 41.9442 43.1069 41.5318 41.9831 40.7335C40.989 40.0316 40.4098 38.8911 40.4271 37.6979C40.4271 36.4872 41.0322 35.3466 42.035 34.6623C43.0118 33.9955 43.0982 33.7762 43.1069 32.8375L43.0896 27.4243C43.0896 24.3712 40.7729 21.1602 38.9057 18.5808C37.9289 17.2297 37.0558 16.0278 36.589 14.9662H31.3764C30.9096 16.0278 30.0365 17.2385 29.0511 18.5983C27.1925 21.1689 24.8758 24.3712 24.8758 27.4331V32.8462C24.8758 33.7762 24.945 33.9692 25.9477 34.6623C26.1466 34.7939 26.3281 34.9518 26.501 35.1185L26.5183 35.1273ZM30.7022 8.92136V13.0361C30.7194 13.0361 30.7281 13.0361 30.7454 13.0361L37.2373 13.0536C37.2373 13.0536 37.2633 13.0536 37.2806 13.0536V8.93891L30.6935 8.93013L30.7022 8.92136Z" fill="white"/>
<path d="M40.6345 17.7297H27.7197V19.4844H40.6345V17.7297Z" fill="white"/>
<path d="M41.4989 26.1521H39.77V32.8461H41.4989V26.1521Z" fill="white"/>
<path d="M41.4989 42.9795H39.77V56.7712H41.4989V42.9795Z" fill="white"/>
</g>
<defs>
<clipPath id="clip0_430_108">
<rect width="22" height="55" fill="white" transform="translate(23 7)"/>
</clipPath>
</defs>
</svg>
