<svg width="37" height="37" viewBox="0 0 37 37" fill="none" xmlns="http://www.w3.org/2000/svg">
<path d="M36.2205 32.4825C36.7168 32.9787 36.9956 33.6518 36.9956 34.3537C36.9956 35.0555 36.7168 35.7286 36.2205 36.2249C35.7242 36.7212 35.051 37 34.3491 37C33.6472 37 32.9741 36.7212 32.4778 36.2249L18.5 22.2436L4.51781 36.2205C4.0215 36.7168 3.34836 36.9956 2.64647 36.9956C1.94458 36.9956 1.27144 36.7168 0.775134 36.2205C0.278824 35.7242 7.39559e-09 35.0511 0 34.3493C-7.39559e-09 33.6474 0.278824 32.9743 0.775134 32.4781L14.7573 18.5011L0.779536 4.51974C0.283227 4.02346 0.00440324 3.35036 0.00440325 2.64851C0.00440325 1.94667 0.283227 1.27357 0.779536 0.777288C1.27585 0.281009 1.94899 0.00220108 2.65087 0.00220107C3.35276 0.00220107 4.0259 0.281009 4.52221 0.777288L18.5 14.7586L32.4822 0.775087C32.9785 0.278807 33.6516 -1.16928e-08 34.3535 0C35.0554 1.16928e-08 35.7286 0.278807 36.2249 0.775087C36.7212 1.27137 37 1.94447 37 2.64631C37 3.34816 36.7212 4.02126 36.2249 4.51754L22.2427 18.5011L36.2205 32.4825Z" fill="#2892C2"/>
</svg>
