<svg width="69" height="69" viewBox="0 0 69 69" fill="none" xmlns="http://www.w3.org/2000/svg">
<rect x="1" y="1" width="67" height="67" rx="4" fill="black"/>
<rect x="1" y="1" width="67" height="67" rx="4" stroke="black" stroke-width="2"/>
<g clip-path="url(#clip0_430_91)">
<path d="M32.2819 37.0028C32.2819 35.3897 30.9604 34.0747 29.3392 34.0747C27.7181 34.0747 26.3965 35.3897 26.3965 37.0028C26.3965 38.6159 27.7181 39.9309 29.3392 39.9309C30.9604 39.9309 32.2819 38.6159 32.2819 37.0028ZM28.2467 37.0028C28.2467 36.3979 28.7401 35.9157 29.3392 35.9157C29.9383 35.9157 30.4317 36.4066 30.4317 37.0028C30.4317 37.5989 29.9383 38.0898 29.3392 38.0898C28.7401 38.0898 28.2467 37.5989 28.2467 37.0028Z" fill="white"/>
<path d="M36.3082 41.2021C34.9778 41.2021 33.8853 42.2805 33.8853 43.613C33.8853 44.9455 34.969 46.0238 36.3082 46.0238C37.6474 46.0238 38.7311 44.9455 38.7311 43.613C38.7311 42.2805 37.6474 41.2021 36.3082 41.2021ZM36.3082 44.1828C35.991 44.1828 35.7355 43.9286 35.7355 43.613C35.7355 43.2974 35.991 43.0432 36.3082 43.0432C36.6253 43.0432 36.8808 43.2974 36.8808 43.613C36.8808 43.9286 36.6253 44.1828 36.3082 44.1828Z" fill="white"/>
<path d="M29.3392 45.866C29.8502 45.866 30.2643 46.278 30.2643 46.7865C30.2643 47.2949 29.8502 47.707 29.3392 47.707C28.8282 47.707 28.4141 47.2949 28.4141 46.7865C28.4141 46.278 28.8282 45.866 29.3392 45.866Z" fill="white"/>
<path d="M20.6784 12.5C20.5374 12.5614 20.3964 12.649 20.2907 12.763C20.0881 12.9822 19.9823 13.2715 19.9999 13.5695L22.7224 55.4831C22.7488 55.8425 22.9427 56.1493 23.2246 56.3247C23.392 56.4299 23.5947 56.4912 23.8061 56.4912H44.1938C44.4052 56.4912 44.6079 56.4299 44.7753 56.3247C45.0572 56.1406 45.251 55.8425 45.2775 55.4831L47.9999 13.5695C48.0176 13.2715 47.9118 12.9822 47.7092 12.763C47.6035 12.649 47.4713 12.5614 47.3215 12.5M22.2466 14.5865H45.7532L44.7929 29.4109C43.1013 29.6564 41.4361 29.7791 39.8325 29.7791C35.5594 29.7791 31.4801 28.8849 27.7356 27.1404C26.2643 26.404 24.6607 26.0007 22.9779 25.9043L22.2466 14.5865ZM24.8281 54.3346L23.1277 28.0696C24.4229 28.1748 25.6475 28.5167 26.7929 29.0866C30.8546 30.9802 35.2422 31.9445 39.8325 31.9445C41.392 31.9445 43.0043 31.8305 44.6519 31.6114L43.1806 54.3346H24.8281Z" fill="white"/>
</g>
<defs>
<clipPath id="clip0_430_91">
<rect width="28" height="44" fill="white" transform="translate(20 12.5)"/>
</clipPath>
</defs>
</svg>
