<svg width="69" height="69" viewBox="0 0 69 69" fill="none" xmlns="http://www.w3.org/2000/svg">
<rect x="1" y="1" width="67" height="67" rx="4" stroke="black" stroke-width="2"/>
<path d="M29.2358 38H34.4858M34.4858 38H39.7358M34.4858 38V32.75M34.4858 38V43.25" stroke="black" stroke-width="1.5" stroke-linecap="round" stroke-linejoin="round"/>
<path d="M18.8201 21.0145C18.7944 20.8576 18.8119 20.6966 18.8708 20.549C18.9297 20.4013 19.0277 20.2724 19.1544 20.1763C20.3724 19.31 24.5496 17 34.5001 17C44.4506 17 48.6279 19.31 49.8459 20.1763C49.9728 20.2722 50.0712 20.401 50.1304 20.5487C50.1896 20.6964 50.2074 20.8574 50.1819 21.0145L47.2069 43.3165C47.0645 44.3839 46.6778 45.4041 46.0768 46.2977C45.4758 47.1913 44.6768 47.9341 43.7419 48.4685L43.1819 48.7888C40.5378 50.2995 37.5453 51.0941 34.5001 51.0941C31.4549 51.0941 28.4624 50.2995 25.8184 48.7888L25.2584 48.4685C24.3234 47.9341 23.5244 47.1913 22.9234 46.2977C22.3224 45.4041 21.9357 44.3839 21.7934 43.3165L18.8201 21.0145Z" stroke="black" stroke-width="1.5"/>
<path d="M18.75 22.25C23.2493 26.9173 45.7507 26.9173 50.25 22.25" stroke="black" stroke-width="1.5"/>
</svg>
