<svg width="256" height="61" viewBox="0 0 256 61" fill="none" xmlns="http://www.w3.org/2000/svg">
<rect width="158" height="61" rx="30.5" fill="#2892C2"/>
<ellipse cx="126.918" cy="29.851" rx="24.6066" ry="24.6596" fill="white"/>
<path d="M25.3018 21.8779V38.6514H23.3164V30.042H21.5166V37.8721H19.5869V22.3232H21.5166V28.3721H23.3164V21.8779H25.3018ZM18.1582 23.9932C18.1582 28.5205 16.7295 32.417 11.9609 35.1445L10.7734 33.7158C14.3452 31.647 15.8574 28.9937 16.1543 25.6445H11.5527V23.9932H18.1582ZM41.2959 21.8965V34.0127H39.2178V21.8965H41.2959ZM41.7598 36.6475V38.3174H30.2002V32.7881H32.2783V36.6475H41.7598ZM32.1484 22.9912C34.6904 22.9912 36.6572 24.7539 36.6572 27.1846C36.6572 29.6709 34.6904 31.3965 32.1484 31.3965C29.5879 31.3965 27.6211 29.6709 27.6211 27.1846C27.6211 24.7539 29.5879 22.9912 32.1484 22.9912ZM32.1484 24.791C30.7197 24.791 29.625 25.7373 29.6436 27.1846C29.625 28.6689 30.7197 29.5967 32.1484 29.5967C33.54 29.5967 34.6348 28.6689 34.6348 27.1846C34.6348 25.7373 33.54 24.791 32.1484 24.791ZM48.9404 37V23.5664H53.9873C57.0674 23.5664 58.7188 25.4404 58.7188 28.0195C58.7188 30.5986 57.0488 32.4541 53.9502 32.4541H51.3525V37H48.9404ZM51.3525 30.4688H53.6162C55.4346 30.4688 56.251 29.4482 56.251 28.0195C56.251 26.5723 55.4346 25.5889 53.6162 25.5889H51.3525V30.4688ZM60.8711 37H58.292L63.0234 23.5664H65.9922L70.7422 37H68.1631L67.0498 33.6787H61.9844L60.8711 37ZM62.6338 31.7305H66.4004L64.5635 26.3125H64.4521L62.6338 31.7305ZM80.7061 27.8525C80.2793 26.4238 79.166 25.5518 77.5332 25.5518C75.3623 25.5518 73.8037 27.2402 73.8037 30.2646C73.8037 33.3262 75.3438 35.0146 77.5889 35.0146C79.6113 35.0146 80.9102 33.79 80.9473 31.8789H77.8301V29.9678H83.2852V31.582C83.2852 35.0332 80.9102 37.1855 77.5889 37.1855C73.8779 37.1855 71.373 34.5508 71.373 30.2832C71.373 25.9785 73.9893 23.3809 77.5146 23.3809C80.4834 23.3809 82.7656 25.2178 83.1738 27.8525H80.7061ZM85.4746 37V23.5664H94.2139V25.5889H87.8867V29.2627H93.75V31.2852H87.8867V34.959H94.251V37H85.4746Z" fill="white"/>
<path d="M120.799 26.3222C121.624 25.8841 122.479 25.5515 123.361 25.3244C124.244 25.0973 125.146 24.9837 126.068 24.9837C126.554 24.9837 127.036 25.0162 127.513 25.0811C127.991 25.146 128.465 25.2433 128.934 25.3731C129.743 25.6002 130.362 25.7543 130.792 25.8354C131.221 25.9166 131.678 25.9571 132.163 25.9571H133.062L133.474 22.0635H120.362L120.799 26.3222ZM122.037 39.5848C121.535 39.5848 121.103 39.4226 120.739 39.0981C120.375 38.7736 120.168 38.3599 120.119 37.857L118.176 20.1167H135.66L133.717 37.857C133.669 38.3599 133.462 38.7736 133.098 39.0981C132.733 39.4226 132.3 39.5848 131.799 39.5848H122.037Z" fill="#2892C2"/>
<rect x="98" width="158" height="61" rx="30.5" fill="#2892C2"/>
<ellipse cx="129.607" cy="29.851" rx="24.6066" ry="24.6596" fill="white"/>
<path d="M173.926 23.5107V25.4033C173.926 27.6484 173.926 29.9678 173.313 33.4932L171.217 33.3076C171.866 30.0049 171.866 27.5742 171.866 25.4033V25.1807H162.199V23.5107H173.926ZM175.874 34.6621V36.3506H160.585V34.6621H175.874ZM192.313 30.0605V31.6934H185.652V33.3633H183.611V31.6934H176.987V30.0605H192.313ZM180.995 32.5469V34.0684H188.398V32.5469H190.439V38.4473H178.954V32.5469H180.995ZM180.995 36.8701H188.398V35.6084H180.995V36.8701ZM190.421 22.1748V26.3125H180.977V27.5H190.755V29.04H178.936V24.8467H188.361V23.7334H178.88V22.1748H190.421ZM198.622 37V23.5664H203.669C206.749 23.5664 208.4 25.4404 208.4 28.0195C208.4 30.5986 206.73 32.4541 203.632 32.4541H201.034V37H198.622ZM201.034 30.4688H203.298C205.116 30.4688 205.933 29.4482 205.933 28.0195C205.933 26.5723 205.116 25.5889 203.298 25.5889H201.034V30.4688ZM210.553 37H207.974L212.705 23.5664H215.674L220.424 37H217.845L216.731 33.6787H211.666L210.553 37ZM212.315 31.7305H216.082L214.245 26.3125H214.134L212.315 31.7305ZM230.388 27.8525C229.961 26.4238 228.848 25.5518 227.215 25.5518C225.044 25.5518 223.485 27.2402 223.485 30.2646C223.485 33.3262 225.025 35.0146 227.271 35.0146C229.293 35.0146 230.592 33.79 230.629 31.8789H227.512V29.9678H232.967V31.582C232.967 35.0332 230.592 37.1855 227.271 37.1855C223.56 37.1855 221.055 34.5508 221.055 30.2832C221.055 25.9785 223.671 23.3809 227.196 23.3809C230.165 23.3809 232.447 25.2178 232.855 27.8525H230.388ZM235.156 37V23.5664H243.896V25.5889H237.568V29.2627H243.432V31.2852H237.568V34.959H243.933V37H235.156Z" fill="white"/>
<path d="M123.487 26.3222C124.313 25.8841 125.167 25.5515 126.05 25.3244C126.932 25.0973 127.835 24.9837 128.757 24.9837C129.242 24.9837 129.724 25.0162 130.202 25.0811C130.68 25.146 131.153 25.2433 131.622 25.3731C132.431 25.6002 133.051 25.7543 133.48 25.8354C133.909 25.9166 134.367 25.9571 134.852 25.9571H135.75L136.163 22.0635H123.05L123.487 26.3222ZM124.726 39.5848C124.224 39.5848 123.791 39.4226 123.427 39.0981C123.063 38.7736 122.857 38.3599 122.807 37.857L120.865 20.1167H138.348L136.406 37.857C136.357 38.3599 136.151 38.7736 135.786 39.0981C135.421 39.4226 134.989 39.5848 134.487 39.5848H124.726Z" fill="#2892C2"/>
</svg>
