<svg width="158" height="62" viewBox="0 0 158 62" fill="none" xmlns="http://www.w3.org/2000/svg">
<rect x="0.5" y="0.5" width="157" height="61" rx="30.5" stroke="black"/>
<path d="M35.4404 23.3809V25.5723C35.4404 28.1719 35.4404 30.8574 34.7314 34.9395L32.3037 34.7246C33.0557 30.9004 33.0557 28.0859 33.0557 25.5723V25.3145H21.8623V23.3809H35.4404ZM37.6963 36.293V38.248H19.9932V36.293H37.6963ZM56.7314 30.9648V32.8555H49.0186V34.7891H46.6553V32.8555H38.9854V30.9648H56.7314ZM43.626 33.8438V35.6055H52.1982V33.8438H54.5615V40.6758H41.2627V33.8438H43.626ZM43.626 38.8496H52.1982V37.3887H43.626V38.8496ZM54.54 21.834V26.625H43.6045V28H54.9268V29.7832H41.2412V24.9277H52.1553V23.6387H41.1768V21.834H54.54ZM70.2236 25.4863C70.2236 27.5918 71.792 29.6543 74.8428 30.4922L73.7471 32.3398C71.5127 31.7383 69.9229 30.4277 69.0635 28.752C68.2041 30.5996 66.582 32.0283 64.2725 32.6836L63.1338 30.8359C66.2061 29.9766 67.8389 27.8066 67.8389 25.4863V25.4434H63.7783V23.5527H67.8389V21.4043H70.2451V23.5527H74.2842V25.4434H70.2236V25.4863ZM78.5596 21.4902V26.1738H81.2666V28.1504H78.5596V32.9199H76.1748V21.4902H78.5596ZM78.5596 33.7363V40.6758H66.0127V33.7363H78.5596ZM68.376 35.627V38.7422H76.1963V35.627H68.376ZM87.5615 22.9082C89.3232 22.9082 90.7734 23.8857 91.6436 25.5938H96.1768V21.4902H98.54V40.9336H96.1768V33.5859H91.8154C90.9775 35.5195 89.4414 36.6367 87.5615 36.6367C84.6396 36.6367 82.5771 33.9941 82.5771 29.7617C82.5771 25.5723 84.6396 22.9082 87.5615 22.9082ZM87.5615 25.0566C85.9502 25.0566 84.8545 26.7969 84.876 29.7617C84.8545 32.748 85.9502 34.4883 87.5615 34.4883C89.1729 34.4883 90.2471 32.748 90.2686 29.7617C90.2471 26.7969 89.1729 25.0566 87.5615 25.0566ZM92.3096 27.5488C92.4492 28.2256 92.5244 28.9668 92.5244 29.7617C92.5244 30.4385 92.4707 31.0615 92.374 31.6523H96.1768V27.5488H92.3096ZM116.479 21.4902V29.2246H119.466V31.2012H116.479V40.9121H114.116V21.4902H116.479ZM112.612 24.4766V26.3887H101.161V24.4766H105.759V21.7695H108.144V24.4766H112.612ZM106.962 27.6562C109.755 27.6562 111.839 29.5469 111.839 32.2324C111.839 34.918 109.755 36.7871 106.962 36.7871C104.126 36.7871 102.042 34.918 102.063 32.2324C102.042 29.5469 104.126 27.6562 106.962 27.6562ZM106.962 29.6113C105.437 29.6113 104.341 30.6426 104.341 32.2324C104.341 33.8223 105.437 34.832 106.962 34.8105C108.444 34.832 109.54 33.8223 109.562 32.2324C109.54 30.6426 108.444 29.6113 106.962 29.6113ZM136.503 21.4902V40.9121H134.097V21.4902H136.503ZM130.702 23.5527C130.702 29.332 128.468 34.252 121.657 37.4746L120.411 35.5625C125.492 33.1455 127.855 29.8584 128.274 25.4434H121.399V23.5527H130.702Z" fill="black"/>
</svg>
