<svg width="300" height="365" viewBox="0 0 300 365" fill="none" xmlns="http://www.w3.org/2000/svg">
<rect width="300" height="365" fill="#D9D9D9"/>
<path d="M104.246 197.586V195.031H117.77V197.586H112.543V212H109.496V197.586H104.246ZM134.551 203.516C134.551 209 131.223 212.234 126.77 212.234C122.316 212.234 118.988 208.977 118.988 203.516C118.988 198.031 122.316 194.797 126.77 194.797C131.223 194.797 134.551 198.031 134.551 203.516ZM131.48 203.516C131.48 199.648 129.535 197.539 126.77 197.539C124.004 197.539 122.059 199.648 122.059 203.516C122.059 207.383 124.004 209.492 126.77 209.492C129.535 209.492 131.48 207.383 131.48 203.516ZM143.035 212H137.27V195.031H143.129C148.191 195.031 151.262 198.219 151.262 203.492C151.262 208.789 148.191 212 143.035 212ZM140.316 209.352H142.871C146.41 209.352 148.215 207.406 148.215 203.492C148.215 199.602 146.41 197.68 142.965 197.68H140.316V209.352ZM155.199 212H151.941L157.918 195.031H161.668L167.668 212H164.41L163.004 207.805H156.605L155.199 212ZM157.426 205.344H162.184L159.863 198.5H159.723L157.426 205.344ZM166.777 195.031H170.223L174.395 202.531H174.559L178.73 195.031H182.176L176.012 205.648V212H172.965V205.648L166.777 195.031Z" fill="black"/>
<path d="M120.09 222.234V259H113.438V228.684H113.234L104.652 234.168V228.125L113.742 222.234H120.09ZM131.059 259.406C128.875 259.406 127.098 257.629 127.098 255.445C127.098 253.312 128.875 251.535 131.059 251.535C133.141 251.535 134.969 253.312 134.969 255.445C134.969 257.629 133.141 259.406 131.059 259.406ZM153.758 259.508C146.395 259.508 141.012 255.141 140.809 249.047H147.258C147.461 252.043 150.254 254.176 153.758 254.176C157.871 254.176 160.816 251.18 160.816 247.117C160.816 242.902 157.77 239.906 153.555 239.906C150.711 239.855 148.629 240.871 147.461 243.055H141.316L143.551 222.234H165.285V227.77H148.984L147.867 237.52H148.223C149.645 235.895 152.336 234.727 155.332 234.727C162.188 234.727 167.215 239.855 167.215 246.914C167.215 254.277 161.68 259.508 153.758 259.508ZM173.156 259V222.234H179.758V253.414H196.008V259H173.156Z" fill="black"/>
<path d="M74.9229 107.15V111.281H78.2275V105.674H80.1611V121.582H78.2275V112.863H74.9229V117.645H67.4346V107.15H74.9229ZM69.3857 108.68V116.098H73.0068V108.68H69.3857ZM95.0322 107.221V109.014C95.0322 111.141 95.0322 113.338 94.4521 116.678L92.4658 116.502C93.0811 113.373 93.0811 111.07 93.0811 109.014V108.803H83.9229V107.221H95.0322ZM96.8779 117.785V119.385H82.3936V117.785H96.8779ZM111.257 105.674V114.428H109.306V111.246H106.229V109.664H109.306V105.674H111.257ZM102.749 115.148V116.73H109.323V115.148H111.257V121.371H100.833V115.148H102.749ZM102.749 119.789H109.323V118.242H102.749V119.789ZM106.317 106.43C106.3 110.684 104.12 113.531 99.0225 115.043L98.2666 113.479C100.596 112.819 102.143 111.896 103.083 110.736L98.5303 111.088L98.2314 109.541L103.909 109.33C104.059 108.908 104.164 108.469 104.226 108.012H99.04V106.43H106.317ZM132.28 112.934V114.516H125.987V115.781C128.817 115.975 130.487 116.985 130.505 118.629C130.487 120.51 128.431 121.529 125.003 121.529C121.54 121.529 119.466 120.51 119.466 118.629C119.466 116.977 121.153 115.975 124.036 115.781V114.516H117.778V112.934H132.28ZM125.003 117.258C122.683 117.258 121.435 117.715 121.452 118.629C121.435 119.561 122.683 120.053 125.003 120.053C127.271 120.053 128.536 119.561 128.554 118.629C128.536 117.715 127.271 117.258 125.003 117.258ZM130.61 110.209V111.738H119.554V106.395H130.522V107.924H121.505V110.209H130.61ZM147.837 112.934V114.516H141.544V115.781C144.374 115.975 146.044 116.985 146.062 118.629C146.044 120.51 143.987 121.529 140.56 121.529C137.097 121.529 135.022 120.51 135.022 118.629C135.022 116.977 136.71 115.975 139.593 115.781V114.516H133.335V112.934H147.837ZM140.56 117.258C138.239 117.258 136.991 117.715 137.009 118.629C136.991 119.561 138.239 120.053 140.56 120.053C142.827 120.053 144.093 119.561 144.11 118.629C144.093 117.715 142.827 117.258 140.56 117.258ZM146.167 110.209V111.738H135.11V106.395H146.079V107.924H137.062V110.209H146.167ZM157.61 107.186V108.768H155.501V115.939C156.213 115.913 156.872 115.852 157.61 115.676L157.821 117.293C156.626 117.539 155.624 117.557 154.323 117.557H153.567V107.186H157.61ZM162.761 107.186V108.768H160.37V115.939C161.495 115.931 162.348 115.869 163.306 115.641L163.464 117.223C162.163 117.539 161.091 117.557 159.28 117.557H158.419V107.186H162.761ZM166.663 105.674V121.564H164.712V112.898H162.058V111.316H164.712V105.674H166.663ZM174.362 116.01C174.362 117.328 174.969 118.717 176.331 119.578C177.711 118.655 178.353 117.214 178.37 116.01V115.359H180.286V116.01C180.269 117.68 181.253 119.227 183.345 119.895L182.396 121.318C180.849 120.8 179.82 119.789 179.267 118.523C178.757 119.771 177.816 120.888 176.384 121.459C174.872 120.914 173.923 119.842 173.431 118.576C172.859 119.798 171.849 120.791 170.372 121.318L169.405 119.895C171.462 119.174 172.446 117.557 172.464 116.01V115.359H174.362V116.01ZM181.956 105.691V114.691H179.987V105.691H181.956ZM173.29 106.535C175.733 106.535 177.562 108.082 177.562 110.314C177.562 112.529 175.733 114.076 173.29 114.076C170.829 114.076 169.001 112.529 169.001 110.314C169.001 108.082 170.829 106.535 173.29 106.535ZM173.29 108.188C171.901 108.188 170.899 109.014 170.917 110.314C170.899 111.615 171.901 112.459 173.29 112.459C174.661 112.459 175.646 111.615 175.646 110.314C175.646 109.014 174.661 108.188 173.29 108.188ZM197.144 110.174V111.721H186.14V106.254H188.073V110.174H197.144ZM198.778 113.566V115.113H184.259V113.566H198.778ZM197.249 119.613V121.195H185.999V116.52H187.95V119.613H197.249ZM208.517 106.57C209.8 106.57 210.907 107.045 211.663 107.836H215.46V105.674H217.411V115.025H215.46V113.004H211.663C210.907 113.795 209.791 114.261 208.517 114.252C206.126 114.27 204.315 112.652 204.315 110.42C204.315 108.17 206.126 106.57 208.517 106.57ZM208.517 108.24C207.146 108.24 206.179 109.084 206.179 110.42C206.179 111.721 207.146 112.6 208.517 112.6C209.835 112.6 210.802 111.721 210.819 110.42C210.802 109.084 209.835 108.24 208.517 108.24ZM212.032 115.359C215.372 115.359 217.464 116.502 217.464 118.453C217.464 120.404 215.372 121.547 212.032 121.547C208.71 121.547 206.618 120.404 206.636 118.453C206.618 116.502 208.71 115.359 212.032 115.359ZM212.032 116.854C209.817 116.854 208.534 117.416 208.552 118.453C208.534 119.455 209.817 120.018 212.032 120.018C214.282 120.018 215.548 119.455 215.548 118.453C215.548 117.416 214.282 116.854 212.032 116.854ZM212.542 109.4C212.63 109.726 212.683 110.06 212.683 110.42C212.683 110.771 212.63 111.105 212.56 111.422H215.46V109.4H212.542ZM225.286 108.205C225.286 110.209 226.587 112.09 229.03 112.863L227.976 114.393C226.262 113.812 225.031 112.652 224.354 111.176C223.651 112.863 222.368 114.19 220.54 114.832L219.485 113.303C222.052 112.406 223.317 110.297 223.335 108.029V106.518H225.286V108.205ZM232.194 105.674V109.541H234.409V111.158H232.194V115.184H230.243V105.674H232.194ZM227.026 115.535C230.313 115.518 232.335 116.643 232.353 118.523C232.335 120.439 230.313 121.547 227.026 121.547C223.704 121.547 221.647 120.439 221.647 118.523C221.647 116.643 223.704 115.518 227.026 115.535ZM227.026 117.064C224.847 117.064 223.599 117.592 223.599 118.523C223.599 119.508 224.847 120 227.026 120C229.206 120 230.419 119.508 230.419 118.523C230.419 117.592 229.206 117.064 227.026 117.064Z" fill="black"/>
</svg>
