<svg width="158" height="60" viewBox="0 0 158 60" fill="none" xmlns="http://www.w3.org/2000/svg">
<rect x="0.5" y="0.5" width="157" height="59" rx="29.5" fill="black"/>
<rect x="0.5" y="0.5" width="157" height="59" rx="29.5" stroke="black"/>
<path d="M29.6445 26.1016C29.6445 28.9922 31.3438 32.0391 34.1953 33.2305L33.0039 34.9492C30.9141 34.0508 29.3906 32.1953 28.5898 29.9492C27.7695 32.3711 26.2266 34.4023 24.1562 35.3789L22.9062 33.6797C25.6992 32.3906 27.4375 29.1094 27.4375 26.1016V24.6172H23.5508V22.8203H33.5117V24.6172H29.6445V26.1016ZM37.6719 21.082V38.7383H35.4844V21.082H37.6719ZM43.2188 22.3125V28.9922C45.4844 28.9629 47.8867 28.7969 50.4844 28.2695L50.7188 30.0469C47.8086 30.6523 45.0938 30.8086 42.4961 30.8086H41.0312V22.3125H43.2188ZM54.1953 21.1016V26.1602H56.6562V27.9766H54.1953V33.7969H52.0273V21.1016H54.1953ZM54.7812 36.6289V38.3867H42.9062V32.5859H45.0938V36.6289H54.7812ZM77.0469 21.082V38.7383H74.8594V21.082H77.0469ZM71.7734 22.957C71.7734 28.2109 69.7422 32.6836 63.5508 35.6133L62.418 33.875C67.0371 31.6777 69.1855 28.6895 69.5664 24.6758H63.3164V22.957H71.7734ZM95.6992 30.6328V32.3906H79.5664V30.6328H86.5586V29.168H81.6172V24.4805H91.5391V23.1719H81.5586V21.4727H93.707V26.0625H83.7656V27.4688H94.0586V29.168H88.707V30.6328H95.6992ZM93.8047 33.5039V38.6211H91.6172V35.2227H81.3633V33.5039H93.8047ZM117.75 34.832V36.6094H101.617V34.832H108.57V31.3945H103.395V22.2539H105.562V25.1445H113.746V22.2539H115.914V31.3945H110.719V34.832H117.75ZM105.562 29.6367H113.746V26.8828H105.562V29.6367ZM133.648 21.082V38.7383H131.461V21.082H133.648ZM128.375 22.957C128.375 28.2109 126.344 32.6836 120.152 35.6133L119.02 33.875C123.639 31.6777 125.787 28.6895 126.168 24.6758H119.918V22.957H128.375Z" fill="white"/>
</svg>
