<svg width="158" height="62" viewBox="0 0 158 62" fill="none" xmlns="http://www.w3.org/2000/svg">
<rect x="0.5" y="0.5" width="157" height="61" rx="30.5" stroke="black"/>
<path d="M29.6445 27.1016C29.6445 29.9922 31.3438 33.0391 34.1953 34.2305L33.0039 35.9492C30.9141 35.0508 29.3906 33.1953 28.5898 30.9492C27.7695 33.3711 26.2266 35.4023 24.1562 36.3789L22.9062 34.6797C25.6992 33.3906 27.4375 30.1094 27.4375 27.1016V25.6172H23.5508V23.8203H33.5117V25.6172H29.6445V27.1016ZM37.6719 22.082V39.7383H35.4844V22.082H37.6719ZM43.2188 23.3125V29.9922C45.4844 29.9629 47.8867 29.7969 50.4844 29.2695L50.7188 31.0469C47.8086 31.6523 45.0938 31.8086 42.4961 31.8086H41.0312V23.3125H43.2188ZM54.1953 22.1016V27.1602H56.6562V28.9766H54.1953V34.7969H52.0273V22.1016H54.1953ZM54.7812 37.6289V39.3867H42.9062V33.5859H45.0938V37.6289H54.7812ZM77.0469 22.082V39.7383H74.8594V22.082H77.0469ZM71.7734 23.957C71.7734 29.2109 69.7422 33.6836 63.5508 36.6133L62.418 34.875C67.0371 32.6777 69.1855 29.6895 69.5664 25.6758H63.3164V23.957H71.7734ZM95.6992 31.6328V33.3906H79.5664V31.6328H86.5586V30.168H81.6172V25.4805H91.5391V24.1719H81.5586V22.4727H93.707V27.0625H83.7656V28.4688H94.0586V30.168H88.707V31.6328H95.6992ZM93.8047 34.5039V39.6211H91.6172V36.2227H81.3633V34.5039H93.8047ZM117.75 35.832V37.6094H101.617V35.832H108.57V32.3945H103.395V23.2539H105.562V26.1445H113.746V23.2539H115.914V32.3945H110.719V35.832H117.75ZM105.562 30.6367H113.746V27.8828H105.562V30.6367ZM133.648 22.082V39.7383H131.461V22.082H133.648ZM128.375 23.957C128.375 29.2109 126.344 33.6836 120.152 36.6133L119.02 34.875C123.639 32.6777 125.787 29.6895 126.168 25.6758H119.918V23.957H128.375Z" fill="black"/>
</svg>
