<svg width="69" height="69" viewBox="0 0 69 69" fill="none" xmlns="http://www.w3.org/2000/svg">
<rect x="1" y="1" width="67" height="67" rx="4" fill="black"/>
<rect x="1" y="1" width="67" height="67" rx="4" stroke="black" stroke-width="2"/>
<g clip-path="url(#clip0_430_76)">
<path d="M34.23 49.945C32.74 49.945 30.98 49.775 28.96 47.765C26.58 45.385 26.09 41.685 27.78 38.775C28.07 38.265 27.9 37.615 27.39 37.325C26.88 37.035 26.23 37.205 25.94 37.715C23.77 41.465 24.4 46.215 27.46 49.275C30.27 52.085 32.95 52.085 34.23 52.085C34.82 52.085 35.29 51.605 35.29 51.025C35.29 50.435 34.81 49.965 34.23 49.965V49.945Z" fill="white"/>
<path d="M47.07 35.0049L35.44 12.8349C35.26 12.4849 34.89 12.2649 34.5 12.2649C34.11 12.2649 33.74 12.4849 33.56 12.8349L21.93 35.0049C18.66 40.6749 19.62 47.8649 24.25 52.4949C26.99 55.2349 30.63 56.7449 34.51 56.7449C38.39 56.7449 42.03 55.2349 44.77 52.4949C49.4 47.8649 50.35 40.6749 47.09 35.0049H47.07ZM43.25 50.9849C40.91 53.3249 37.81 54.6049 34.5 54.6049C31.19 54.6049 28.09 53.3149 25.75 50.9849C21.79 47.0249 20.99 40.8849 23.78 36.0449C23.78 36.0349 23.79 36.0149 23.8 36.0049L34.5 15.6249L45.2 36.0149C45.2 36.0149 45.21 36.0449 45.22 36.0549C48.02 40.8949 47.21 47.0349 43.25 50.9949V50.9849Z" fill="white"/>
</g>
<defs>
<clipPath id="clip0_430_76">
<rect width="29" height="44.47" fill="white" transform="translate(20 12.2649)"/>
</clipPath>
</defs>
</svg>
