<svg width="70" height="71" viewBox="0 0 70 71" fill="none" xmlns="http://www.w3.org/2000/svg">
<g clip-path="url(#clip0_499_26)">
<path d="M55.4511 35.1365L52.5566 37.2158L55.4511 39.295L47.5728 44.9472L46.2598 43.1139L51.5878 39.295L50.6249 38.5981L47.5728 40.7886L46.2598 38.9553L48.6816 37.2158L46.2598 35.4762L47.5728 33.6429L50.6249 35.8452L51.5878 35.1365L46.2598 31.3177L47.5728 29.4844L55.4511 35.1365Z" fill="#2E8BB7"/>
<path d="M20.6644 27.1182V41.8957L29.383 37.7313L38.1017 41.8957V27.1182H43.8032V47.7411H37.0746L29.3772 44.0335L21.6506 47.7411H14.9512V27.1182H20.6527H20.6644Z" fill="#2E8BB7"/>
<path d="M39.9807 68.9088C37.9849 69.2837 35.9191 69.4828 33.8123 69.4828C15.4647 69.4828 0.583496 54.5882 0.583496 36.2202C0.583496 29.18 2.76607 22.6552 6.49513 17.2783" stroke="#2E8BB7" stroke-width="2" stroke-miterlimit="10"/>
<path d="M19.2346 9.07234L15.5056 5.37065L14.9512 5.42336L14.8345 5.1715L17.0404 4.14651L17.1571 4.39836L16.6902 4.82008L19.2463 7.47921L18.9078 4.79079L18.2251 4.10551L17.694 4.14651L17.5773 3.89465L19.7482 2.88137L19.8649 3.13323L19.3397 3.58422L21.9891 6.2785L21.4347 2.60608L20.7694 2.71151L20.6527 2.45966L22.3451 1.66895L22.4618 1.9208L22.0008 2.34251L22.5318 7.53192L21.9658 7.79549L19.4272 5.28865L19.8007 8.80292L19.2405 9.06649L19.2346 9.07234Z" fill="#2E8BB7"/>
<path d="M27.4863 6.0912C25.9224 6.4192 24.5276 5.42349 24.23 4.01778C23.9382 2.60621 24.8486 1.08922 26.3776 0.767077C27.889 0.450792 29.3771 1.46407 29.6689 2.8815C29.9607 4.28721 29.027 5.76906 27.4863 6.0912ZM27.3871 5.62263C28.3034 5.42934 28.7119 4.78506 28.3675 3.15092C28.0116 1.44065 27.4163 1.04822 26.4709 1.2415C25.4964 1.4465 25.1754 2.04979 25.5255 3.74249C25.8757 5.4352 26.4476 5.81591 27.3813 5.61677L27.3871 5.62263Z" fill="#2E8BB7"/>
<path d="M33.7248 5.44109C32.1258 5.46452 30.9412 4.22867 30.9178 2.78782C30.8945 1.34111 32.0791 0.0232576 33.6373 -0.000170849C35.1838 -0.0235993 36.4501 1.25325 36.4735 2.69996C36.4968 4.13496 35.2946 5.41766 33.7248 5.44109ZM33.719 4.96081C34.6527 4.94324 35.1779 4.38681 35.1487 2.71753C35.1196 0.972111 34.6119 0.468399 33.6431 0.48597C32.6452 0.503541 32.2134 1.03654 32.2425 2.76439C32.2717 4.43367 32.7561 4.97252 33.7132 4.96081H33.719Z" fill="#2E8BB7"/>
<path d="M37.2847 5.37642L37.3489 5.10699L38.0433 5.07185L39.0121 0.790297L38.3993 0.462299L38.4577 0.192871L40.4593 0.643869L41.0312 4.43343L43.0562 1.23544L45.1688 1.71572L45.1104 1.98515L44.416 2.02029L43.4472 6.30185L44.06 6.62984L43.9958 6.89927L41.5448 6.34285L41.6031 6.07342L42.2217 6.02656L43.1204 2.04372L40.5644 5.9387L40.0683 5.82742L39.298 1.17687L38.6036 5.20657L39.1404 5.51699L39.0821 5.78642L37.2847 5.38228V5.37642Z" fill="#2E8BB7"/>
<path d="M47.1354 8.46936C45.6939 7.77237 45.1921 6.13237 45.8165 4.83795C46.4409 3.53767 48.0924 2.88753 49.4989 3.56696C50.8878 4.24053 51.4538 5.9508 50.8236 7.25108C50.1992 8.54551 48.5535 9.14879 47.1354 8.46351V8.46936ZM47.3396 8.03594C48.18 8.44008 48.8978 8.17651 49.6214 6.67709C50.3801 5.10152 50.1466 4.42795 49.2771 4.00624C48.3784 3.57281 47.754 3.85395 47.007 5.41195C46.2834 6.91723 46.4759 7.62008 47.3396 8.03594Z" fill="#2E8BB7"/>
<path d="M52.4867 11.7608C51.2204 10.7885 51.057 9.07822 51.9323 7.93609C52.8077 6.78809 54.5526 6.48938 55.7898 7.44409C57.0153 8.38123 57.2195 10.1735 56.3383 11.3215C55.463 12.4636 53.7297 12.7214 52.4809 11.7608H52.4867ZM52.7785 11.3801C53.5197 11.9482 54.2783 11.8369 55.2879 10.5132C56.35 9.12508 56.2625 8.41637 55.4921 7.83066C54.7043 7.22152 54.0332 7.3738 52.9828 8.74437C51.9673 10.0681 52.014 10.7944 52.7727 11.3801H52.7785Z" fill="#2E8BB7"/>
<path d="M55.2822 13.9806L55.4865 13.7931L56.07 14.168L59.3381 11.2394L59.0288 10.6127L59.233 10.4253L60.9779 12.3757L60.7737 12.5631L60.1726 12.1707L56.8112 15.1871L57.9667 16.259L59.7757 15.931L59.8866 16.1126L58.2293 17.2723L55.2764 13.9747L55.2822 13.9806Z" fill="#2E8BB7"/>
<path d="M60.8788 21.5129L64.5612 17.7644L64.5028 17.208L64.7538 17.0908L65.7867 19.2931L65.5358 19.4102L65.1098 18.9417L62.4603 21.5129L65.1448 21.1615L65.8276 20.4704L65.7809 19.9374L66.0318 19.8202L67.0472 21.9874L66.7963 22.1045L66.3469 21.5832L63.6625 24.2482L67.3274 23.6742L67.2165 23.0065L67.4674 22.8894L68.2611 24.5821L68.0101 24.6992L67.59 24.2424L62.4078 24.7929L62.1394 24.2248L64.6371 21.6769L61.1239 22.0635L60.8613 21.5071L60.8788 21.5129Z" fill="#2E8BB7"/>
<path d="M63.89 29.7658C63.5574 28.202 64.5437 26.7963 65.9501 26.4976C67.3623 26.1988 68.8796 27.1067 69.2064 28.6296C69.5274 30.1407 68.5178 31.6343 67.1056 31.933C65.6991 32.2317 64.2168 31.3004 63.89 29.76V29.7658ZM64.3569 29.6663C64.5495 30.58 65.1973 30.99 66.8313 30.6385C68.5353 30.2754 68.9321 29.678 68.7279 28.735C68.5236 27.7627 67.9167 27.4406 66.2244 27.7978C64.5962 28.1434 64.1585 28.7291 64.3569 29.6663Z" fill="#2E8BB7"/>
<path d="M64.5667 36.0037C64.5434 34.4047 65.7806 33.2157 67.2162 33.1922C68.6576 33.1688 69.9765 34.3519 69.9998 35.9158C70.0232 37.4621 68.751 38.7331 67.3037 38.7565C65.8681 38.7799 64.5901 37.5792 64.5667 36.0037ZM65.0453 35.9978C65.0628 36.9349 65.6172 37.4562 67.2862 37.4269C69.0311 37.3976 69.533 36.8881 69.5155 35.9217C69.498 34.9259 68.9669 34.4925 67.2395 34.5218C65.5705 34.5511 65.0336 35.0372 65.0453 35.9978Z" fill="#2E8BB7"/>
<path d="M64.6424 39.5645L64.9167 39.623L64.9517 40.32L69.2352 41.2689L69.562 40.6539L69.8304 40.7124L69.3869 42.7214L65.6053 43.3072L68.8092 45.322L68.3423 47.4423L68.068 47.3837L68.033 46.6867L63.7495 45.7379L63.4227 46.3529L63.1543 46.2943L63.697 43.8343L63.9655 43.8929L64.018 44.5137L68.0038 45.3981L64.0997 42.8562L64.2106 42.3583L68.85 41.5676L64.8175 40.8882L64.5082 41.427L64.2339 41.3684L64.6307 39.5645H64.6424Z" fill="#2E8BB7"/>
<path d="M61.596 49.4342C62.2846 47.9933 63.9186 47.4779 65.2142 48.0987C66.5155 48.7196 67.1691 50.3654 66.498 51.777C65.8327 53.171 64.1229 53.745 62.8215 53.1241C61.526 52.5033 60.9132 50.8633 61.5901 49.44L61.596 49.4342ZM62.0278 49.6392C61.6252 50.4826 61.8936 51.203 63.3992 51.9176C64.9749 52.6673 65.6518 52.433 66.0662 51.5603C66.4922 50.6583 66.2121 50.0374 64.6481 49.2936C63.1425 48.5732 62.4422 48.7723 62.0278 49.6392Z" fill="#2E8BB7"/>
<path d="M58.328 54.8049C59.2967 53.5339 61.0007 53.364 62.1446 54.2309C63.2942 55.1036 63.5977 56.849 62.6523 58.0907C61.7185 59.3207 59.9328 59.5316 58.7832 58.6589C57.6393 57.792 57.3767 56.0583 58.328 54.8049ZM58.7073 55.0978C58.1412 55.8416 58.2579 56.5972 59.5827 57.6046C60.9716 58.6589 61.6777 58.571 62.2613 57.7979C62.8624 57.0072 62.7106 56.3336 61.3334 55.291C60.0087 54.2836 59.2792 54.3305 58.7015 55.0919L58.7073 55.0978Z" fill="#2E8BB7"/>
<path d="M56.1225 57.6104L56.3092 57.8153L55.9357 58.4011L58.877 61.6576L59.5014 61.3472L59.6881 61.5522L57.7448 63.3093L57.5581 63.1043L57.9491 62.501L54.9203 59.1449L53.8582 60.3046L54.1908 62.1145L54.0099 62.2258L52.8428 60.5741L56.1225 57.6045V57.6104Z" fill="#2E8BB7"/>
<path d="M47.2703 66.5951C46.8502 65.7751 46.4942 64.9961 46.4883 64.1117C46.4825 63.3737 46.9319 62.6942 47.5213 62.5068C48.2566 62.2725 49.0736 62.5478 49.5463 63.198C49.9139 63.6958 49.8789 64.469 49.4704 65.0664C48.9335 65.8512 48.0932 66.1792 47.2645 66.5951H47.2703Z" fill="#2E8BB7"/>
<path d="M47.5618 67.3684C47.696 68.0537 47.9061 68.7331 47.9353 69.4243C47.9703 70.2325 47.34 70.8827 46.5989 70.9823C45.7994 71.0935 44.9999 70.6484 44.7314 69.9163C44.498 69.2896 44.6205 68.6628 45.0874 68.2353C45.6301 67.7374 46.2779 67.345 46.914 66.9643C47.3517 66.7007 47.2817 67.2337 47.5618 67.3684Z" fill="#2E8BB7"/>
<path d="M46.3011 67.1633C45.6884 67.257 45.0698 67.4269 44.457 67.421C43.7042 67.421 43.1323 66.8763 42.9631 66.2027C42.8055 65.5526 43.1556 64.7033 43.7392 64.3168C44.2528 63.9829 45.0639 64.059 45.6358 64.5159C46.2778 65.0313 46.6279 65.7635 47.0014 66.4722C47.0364 66.5425 46.9489 66.7357 46.8614 66.7885C46.6863 66.9056 46.482 66.9642 46.2836 67.0462C46.2836 67.0872 46.2953 67.1223 46.3011 67.1633Z" fill="#2E8BB7"/>
<path d="M47.6198 67.5147C47.293 66.7123 47.2872 66.7006 48.1101 66.4136C48.5711 66.2554 49.0438 66.1032 49.5281 66.0212C50.3393 65.8806 51.1096 66.3023 51.3781 66.9642C51.6757 67.7022 51.3781 68.6042 50.6836 69.0903C50.1409 69.471 49.213 69.389 48.6586 68.8326C48.2676 68.4402 47.9642 67.9599 47.6198 67.5206V67.5147Z" fill="#2E8BB7"/>
<path d="M11.3968 11.9719C10.7374 11.2749 10.1596 10.5955 9.89117 9.71104C9.66941 8.97304 9.92035 8.16476 10.4572 7.80747C11.1284 7.35647 12.0212 7.39747 12.6807 7.90704C13.1884 8.29947 13.3868 9.07847 13.1475 9.79889C12.8382 10.7419 12.0913 11.31 11.391 11.9719H11.3968Z" fill="#2E8BB7"/>
<path d="M11.9104 12.6629C12.243 13.3072 12.6516 13.9281 12.8791 14.6075C13.1476 15.4041 12.7041 16.2358 11.9979 16.5579C11.2335 16.9035 10.2997 16.6868 9.81537 16.0366C9.40103 15.4744 9.33684 14.8125 9.68698 14.2502C10.0896 13.5942 10.6207 13.0144 11.1401 12.4462C11.5019 12.0538 11.5894 12.6044 11.9046 12.6629H11.9104Z" fill="#2E8BB7"/>
<path d="M10.5916 12.8269C10.0022 13.0963 9.43612 13.4477 8.82336 13.6234C8.07055 13.8401 7.34108 13.4653 6.97926 12.8386C6.62911 12.2353 6.73416 11.2864 7.20685 10.73C7.62119 10.2439 8.45571 10.0857 9.16183 10.3786C9.9555 10.7066 10.5216 11.3333 11.0935 11.9366C11.146 11.9952 11.1168 12.2177 11.0468 12.2939C10.9067 12.4579 10.7141 12.5809 10.5449 12.7156C10.5624 12.7507 10.5799 12.7917 10.5916 12.8269Z" fill="#2E8BB7"/>
<path d="M12.0155 12.7917C11.4552 12.0829 11.4494 12.0712 12.1847 11.5499C12.599 11.2571 13.0309 10.9642 13.4861 10.7417C14.2564 10.3668 15.1493 10.5601 15.6103 11.1458C16.118 11.7959 16.0888 12.7858 15.5344 13.4711C15.1026 14.0099 14.1513 14.1974 13.4335 13.8049C12.9258 13.5238 12.4823 13.1314 12.0155 12.7917Z" fill="#2E8BB7"/>
</g>
<defs>
<clipPath id="clip0_499_26">
<rect width="70" height="71" fill="white"/>
</clipPath>
</defs>
</svg>
