<svg width="71" height="71" viewBox="0 0 71 71" fill="none" xmlns="http://www.w3.org/2000/svg">
<path d="M56.0687 35.1375L53.1636 37.2167L56.0687 39.296L48.1616 44.9481L46.8438 43.1149L52.1913 39.296L51.2249 38.599L48.1616 40.7896L46.8438 38.9563L49.2745 37.2167L46.8438 35.4772L48.1616 33.6439L51.2249 35.8462L52.1913 35.1375L46.8438 31.3186L48.1616 29.4854L56.0687 35.1375Z" fill="#DC2924"/>
<path d="M21.1541 27.1187V41.8962L29.9046 37.7318L38.6552 41.8962V27.1187H44.3776V47.7416H37.6243L29.8988 44.034L22.1439 47.7416H15.4199V27.1187H21.1423H21.1541Z" fill="#DC2924"/>
<path d="M40.5416 68.9098C38.5384 69.2847 36.465 69.4838 34.3506 69.4838C15.9357 69.4838 1 54.5891 1 36.2212C1 29.181 3.19057 22.6561 6.93329 17.2793" stroke="#DC2924" stroke-width="2" stroke-miterlimit="10"/>
<path d="M19.719 9.07381L15.9763 5.37211L15.4199 5.42482L15.3027 5.17297L17.5167 4.14797L17.6339 4.39983L17.1653 4.82154L19.7307 7.48067L19.391 4.79226L18.7057 4.10697L18.1727 4.14797L18.0556 3.89612L20.2344 2.88283L20.3516 3.13469L19.8244 3.58569L22.4836 6.27996L21.9272 2.60755L21.2594 2.71298L21.1423 2.46112L22.8409 1.67041L22.958 1.92227L22.4953 2.34398L23.0283 7.53339L22.4602 7.79696L19.9123 5.29011L20.2872 8.80438L19.7249 9.06795L19.719 9.07381Z" fill="#DC2924"/>
<path d="M28.0014 6.09218C26.4317 6.42017 25.0318 5.42446 24.7331 4.01876C24.4403 2.60719 25.354 1.09019 26.8885 0.768053C28.4055 0.451769 29.8991 1.46505 30.192 2.88247C30.4848 4.28818 29.5477 5.77003 28.0014 6.09218ZM27.9018 5.62361C28.8214 5.43032 29.2314 4.78604 28.8858 3.1519C28.5285 1.44162 27.9311 1.0492 26.9823 1.24248C26.0041 1.44748 25.682 2.05076 26.0334 3.74347C26.3848 5.43618 26.9588 5.81689 27.896 5.61775L27.9018 5.62361Z" fill="#DC2924"/>
<path d="M34.2625 5.44158C32.6576 5.46501 31.4686 4.22916 31.4452 2.78831C31.4217 1.3416 32.6107 0.0237459 34.1746 0.000317432C35.7267 -0.023111 36.9977 1.25374 37.0212 2.70045C37.0446 4.13544 35.838 5.41815 34.2625 5.44158ZM34.2566 4.9613C35.1937 4.94373 35.7209 4.3873 35.6916 2.71802C35.6623 0.972599 35.1527 0.468887 34.1805 0.486458C33.1789 0.50403 32.7455 1.03703 32.7747 2.76488C32.804 4.43416 33.2902 4.97301 34.2507 4.9613H34.2566Z" fill="#DC2924"/>
<path d="M37.8359 5.37691L37.9004 5.10748L38.5974 5.07234L39.5697 0.790785L38.9547 0.462787L39.0132 0.193359L41.0222 0.644358L41.5962 4.43391L43.6287 1.23593L45.7489 1.71621L45.6904 1.98564L44.9934 2.02078L44.0211 6.30233L44.6361 6.63033L44.5717 6.89976L42.1117 6.34333L42.1702 6.07391L42.7911 6.02705L43.6931 2.04421L41.1277 5.93919L40.6298 5.82791L39.8566 1.17736L39.1597 5.20705L39.6985 5.51748L39.6399 5.78691L37.8359 5.38277V5.37691Z" fill="#DC2924"/>
<path d="M47.7222 8.46985C46.2755 7.77286 45.7718 6.13286 46.3985 4.83844C47.0252 3.53816 48.6828 2.88802 50.0944 3.56744C51.4884 4.24101 52.0565 5.95129 51.4239 7.25157C50.7972 8.546 49.1455 9.14928 47.7222 8.464V8.46985ZM47.9272 8.03643C48.7707 8.44057 49.4911 8.177 50.2174 6.67757C50.9788 5.10201 50.7445 4.42844 49.8718 4.00673C48.9698 3.5733 48.3431 3.85444 47.5934 5.41244C46.8671 6.91772 47.0604 7.62057 47.9272 8.03643Z" fill="#DC2924"/>
<path d="M53.0933 11.7608C51.8223 10.7885 51.6583 9.07822 52.5369 7.93609C53.4154 6.78809 55.1667 6.48938 56.4084 7.44409C57.6384 8.38123 57.8434 10.1735 56.959 11.3215C56.0804 12.4636 54.3409 12.7214 53.0874 11.7608H53.0933ZM53.3862 11.3801C54.13 11.9482 54.8914 11.8369 55.9047 10.5132C56.9707 9.12508 56.8829 8.41637 56.1097 7.83066C55.319 7.22152 54.6454 7.3738 53.5912 8.74437C52.572 10.0681 52.6189 10.7944 53.3803 11.3801H53.3862Z" fill="#DC2924"/>
<path d="M55.8984 13.982L56.1034 13.7946L56.6891 14.1695L59.9691 11.2409L59.6587 10.6142L59.8637 10.4268L61.615 12.3772L61.41 12.5646L60.8067 12.1722L57.433 15.1886L58.5927 16.2604L60.4084 15.9325L60.5197 16.114L58.8563 17.2737L55.8926 13.9762L55.8984 13.982Z" fill="#DC2924"/>
<path d="M61.5156 21.5125L65.2115 17.7639L65.1529 17.2075L65.4048 17.0903L66.4415 19.2926L66.1896 19.4098L65.762 18.9412L63.1029 21.5125L65.7972 21.161L66.4825 20.4699L66.4356 19.9369L66.6875 19.8197L67.7066 21.9869L67.4548 22.104L67.0038 21.5827L64.3095 24.2477L67.9878 23.6737L67.8765 23.006L68.1283 22.8889L68.9249 24.5816L68.673 24.6987L68.2513 24.2419L63.0502 24.7924L62.7808 24.2243L65.2876 21.6765L61.7616 22.063L61.498 21.5066L61.5156 21.5125Z" fill="#DC2924"/>
<path d="M64.5377 29.7658C64.2039 28.202 65.1937 26.7963 66.6053 26.4976C68.0227 26.1988 69.5456 27.1067 69.8736 28.6296C70.1957 30.1407 69.1825 31.6343 67.765 31.933C66.3535 32.2317 64.8657 31.3004 64.5377 29.76V29.7658ZM65.0063 29.6663C65.1996 30.58 65.8497 30.99 67.4897 30.6385C69.2 30.2754 69.5983 29.678 69.3933 28.735C69.1883 27.7627 68.5792 27.4406 66.8806 27.7978C65.2465 28.1434 64.8072 28.7291 65.0063 29.6663Z" fill="#DC2924"/>
<path d="M65.2171 36.0027C65.1937 34.4037 66.4354 33.2147 67.8763 33.1913C69.323 33.1678 70.6467 34.351 70.6701 35.9148C70.6935 37.4611 69.4167 38.7321 67.9641 38.7555C66.5233 38.779 65.2406 37.5782 65.2171 36.0027ZM65.6974 35.9968C65.715 36.934 66.2714 37.4552 67.9466 37.426C69.6978 37.3967 70.2016 36.8871 70.184 35.9207C70.1664 34.925 69.6334 34.4915 67.8997 34.5208C66.2246 34.5501 65.6857 35.0363 65.6974 35.9968Z" fill="#DC2924"/>
<path d="M65.2934 39.5654L65.5687 39.624L65.6038 40.321L69.9029 41.2698L70.2309 40.6549L70.5004 40.7134L70.0552 42.7224L66.2598 43.3081L69.4754 45.323L69.0068 47.4433L68.7315 47.3847L68.6964 46.6877L64.3972 45.7388L64.0692 46.3538L63.7998 46.2953L64.3445 43.8353L64.6139 43.8938L64.6667 44.5147L68.6671 45.3991L64.7487 42.8571L64.8599 42.3593L69.5164 41.5686L65.4691 40.8891L65.1587 41.428L64.8834 41.3694L65.2817 39.5654H65.2934Z" fill="#DC2924"/>
<path d="M62.2367 49.4351C62.9278 47.9943 64.5678 47.4789 65.8681 48.0997C67.1742 48.7206 67.8302 50.3664 67.1567 51.778C66.489 53.172 64.7728 53.746 63.4667 53.1251C62.1664 52.5043 61.5514 50.8643 62.2308 49.441L62.2367 49.4351ZM62.6701 49.6401C62.266 50.4836 62.5354 51.204 64.0465 51.9186C65.628 52.6683 66.3074 52.434 66.7232 51.5613C67.1508 50.6593 66.8697 50.0384 65.3 49.2946C63.7888 48.5741 63.086 48.7733 62.6701 49.6401Z" fill="#DC2924"/>
<path d="M58.9561 54.8054C59.9284 53.5344 61.6386 53.3645 62.7866 54.2314C63.9405 55.1041 64.2451 56.8495 63.2962 58.0912C62.3591 59.3212 60.5668 59.5321 59.4129 58.6594C58.2649 57.7925 58.0014 56.0588 58.9561 54.8054ZM59.3368 55.0982C58.7686 55.8421 58.8858 56.5977 60.2154 57.6051C61.6094 58.6594 62.3181 58.5715 62.9038 57.7984C63.5071 57.0077 63.3548 56.3341 61.9725 55.2915C60.6429 54.2841 59.9108 54.331 59.3309 55.0924L59.3368 55.0982Z" fill="#DC2924"/>
<path d="M56.7419 57.6099L56.9293 57.8149L56.5545 58.4006L59.5065 61.6571L60.1332 61.3467L60.3206 61.5517L58.3702 63.3088L58.1828 63.1038L58.5752 62.5006L55.5353 59.1444L54.4693 60.3041L54.8032 62.114L54.6216 62.2253L53.4502 60.5736L56.7419 57.604V57.6099Z" fill="#DC2924"/>
<path d="M47.8572 66.5946C47.4355 65.7746 47.0782 64.9956 47.0723 64.1112C47.0665 63.3732 47.5175 62.6938 48.109 62.5063C48.847 62.272 49.667 62.5473 50.1415 63.1975C50.5105 63.6953 50.4753 64.4685 50.0653 65.0659C49.5265 65.8507 48.683 66.1787 47.8513 66.5946H47.8572Z" fill="#DC2924"/>
<path d="M48.1497 67.3689C48.2844 68.0542 48.4953 68.7336 48.5246 69.4247C48.5597 70.233 47.9271 70.8832 47.1833 70.9827C46.3809 71.094 45.5784 70.6489 45.309 69.9167C45.0747 69.29 45.1977 68.6633 45.6663 68.2358C46.211 67.7379 46.8611 67.3455 47.4996 66.9648C47.9389 66.7012 47.8686 67.2342 48.1497 67.3689Z" fill="#DC2924"/>
<path d="M46.8848 67.1623C46.2698 67.256 45.6489 67.4259 45.0339 67.42C44.2783 67.42 43.7043 66.8753 43.5345 66.2018C43.3763 65.5516 43.7278 64.7023 44.3135 64.3158C44.8289 63.9819 45.6431 64.0581 46.2171 64.5149C46.8613 65.0303 47.2128 65.7625 47.5876 66.4712C47.6228 66.5415 47.5349 66.7348 47.4471 66.7875C47.2713 66.9046 47.0663 66.9632 46.8672 67.0452C46.8672 67.0862 46.8789 67.1213 46.8848 67.1623Z" fill="#DC2924"/>
<path d="M48.2085 67.5147C47.8805 66.7123 47.8746 66.7006 48.7005 66.4136C49.1632 66.2554 49.6376 66.1032 50.1238 66.0212C50.9379 65.8806 51.7111 66.3023 51.9805 66.9642C52.2792 67.7022 51.9805 68.6042 51.2835 69.0903C50.7388 69.471 49.8075 69.389 49.2511 68.8326C48.8586 68.4402 48.5541 67.9599 48.2085 67.5206V67.5147Z" fill="#DC2924"/>
<path d="M11.8533 11.9724C11.1914 11.2754 10.6116 10.5959 10.3421 9.71152C10.1196 8.97353 10.3714 8.16524 10.9103 7.80796C11.5839 7.35696 12.48 7.39796 13.1419 7.90753C13.6514 8.29996 13.8506 9.07895 13.6104 9.79938C13.3 10.7424 12.5503 11.3105 11.8474 11.9724H11.8533Z" fill="#DC2924"/>
<path d="M12.3686 12.6625C12.7025 13.3067 13.1125 13.9276 13.3409 14.607C13.6103 15.4036 13.1652 16.2353 12.4565 16.5574C11.6892 16.903 10.752 16.6863 10.2659 16.0362C9.85003 15.4739 9.7856 14.812 10.137 14.2497C10.5412 13.5937 11.0742 13.0139 11.5955 12.4457C11.9586 12.0533 12.0465 12.6039 12.3627 12.6625H12.3686Z" fill="#DC2924"/>
<path d="M11.045 12.8269C10.4535 13.0963 9.88533 13.4477 9.27033 13.6234C8.51476 13.8401 7.78261 13.4653 7.41947 12.8386C7.06804 12.2353 7.17347 11.2864 7.6479 10.73C8.06376 10.2439 8.90133 10.0857 9.61004 10.3786C10.4066 10.7066 10.9748 11.3333 11.5488 11.9366C11.6015 11.9952 11.5722 12.2177 11.5019 12.2939C11.3613 12.4579 11.168 12.5809 10.9982 12.7156C11.0158 12.7507 11.0333 12.7917 11.045 12.8269Z" fill="#DC2924"/>
<path d="M12.4744 12.7912C11.9122 12.0825 11.9063 12.0707 12.6443 11.5495C13.0602 11.2566 13.4936 10.9637 13.9504 10.7412C14.7236 10.3663 15.6197 10.5596 16.0824 11.1453C16.592 11.7955 16.5627 12.7853 16.0063 13.4706C15.5729 14.0094 14.6182 14.1969 13.8977 13.8044C13.3882 13.5233 12.943 13.1309 12.4744 12.7912Z" fill="#DC2924"/>
</svg>
