<svg width="71" height="71" viewBox="0 0 71 71" fill="none" xmlns="http://www.w3.org/2000/svg">
<g clip-path="url(#clip0_499_281)">
<path d="M55.6546 35.137L52.7495 37.2163L55.6546 39.2955L47.7475 44.9477L46.4297 43.1144L51.7772 39.2955L50.8108 38.5985L47.7475 40.7891L46.4297 38.9558L48.8604 37.2163L46.4297 35.4767L47.7475 33.6434L50.8108 35.8457L51.7772 35.137L46.4297 31.3181L47.7475 29.4849L55.6546 35.137Z" fill="#ACACAC"/>
<path d="M20.7405 27.1187V41.8962L29.491 37.7318L38.2415 41.8962V27.1187H43.9639V47.7416H37.2107L29.4851 44.034L21.7303 47.7416H15.0063V27.1187H20.7288H20.7405Z" fill="#ACACAC"/>
<path d="M40.1273 68.9093C38.1242 69.2842 36.0508 69.4833 33.9364 69.4833C15.5216 69.4833 0.585938 54.5887 0.585938 36.2207C0.585938 29.1805 2.7765 22.6556 6.5192 17.2788" stroke="#ACACAC" stroke-width="2" stroke-miterlimit="10"/>
<path d="M19.3054 9.07283L15.5627 5.37113L15.0063 5.42385L14.8892 5.17199L17.1032 4.147L17.2203 4.39885L16.7517 4.82056L19.3171 7.4797L18.9774 4.79128L18.2921 4.106L17.7591 4.147L17.642 3.89514L19.8209 2.88186L19.938 3.13371L19.4109 3.58471L22.07 6.27899L21.5136 2.60657L20.8458 2.712L20.7287 2.46014L22.4273 1.66943L22.5444 1.92129L22.0817 2.343L22.6147 7.53241L22.0466 7.79598L19.4987 5.28913L19.8736 8.80341L19.3113 9.06698L19.3054 9.07283Z" fill="#ACACAC"/>
<path d="M27.5873 6.09169C26.0176 6.41969 24.6178 5.42398 24.3191 4.01827C24.0262 2.6067 24.9399 1.08971 26.4745 0.767565C27.9915 0.451281 29.485 1.46456 29.7779 2.88199C30.0707 4.28769 29.1336 5.76955 27.5873 6.09169ZM27.4878 5.62312C28.4073 5.42983 28.8173 4.78555 28.4718 3.15141C28.1145 1.44113 27.517 1.04871 26.5682 1.24199C25.5901 1.44699 25.2679 2.05027 25.6193 3.74298C25.9708 5.43569 26.5448 5.8164 27.4819 5.61726L27.4878 5.62312Z" fill="#ACACAC"/>
<path d="M33.8489 5.44158C32.244 5.46501 31.055 4.22916 31.0316 2.78831C31.0082 1.3416 32.1972 0.0237459 33.761 0.000317432C35.3131 -0.023111 36.5841 1.25374 36.6076 2.70045C36.631 4.13544 35.4244 5.41815 33.8489 5.44158ZM33.843 4.9613C34.7801 4.94373 35.3073 4.3873 35.278 2.71802C35.2487 0.972599 34.7391 0.468887 33.7669 0.486458C32.7653 0.50403 32.3319 1.03703 32.3612 2.76488C32.3904 4.43416 32.8766 4.97301 33.8372 4.9613H33.843Z" fill="#ACACAC"/>
<path d="M37.4214 5.37691L37.4858 5.10748L38.1828 5.07234L39.1551 0.790785L38.5401 0.462787L38.5987 0.193359L40.6077 0.644358L41.1817 4.43391L43.2141 1.23593L45.3344 1.71621L45.2758 1.98564L44.5788 2.02078L43.6065 6.30233L44.2215 6.63033L44.1571 6.89976L41.6971 6.34333L41.7557 6.07391L42.3765 6.02705L43.2785 2.04421L40.7131 5.93919L40.2152 5.82791L39.4421 1.17736L38.7451 5.20705L39.284 5.51748L39.2254 5.78691L37.4214 5.38277V5.37691Z" fill="#ACACAC"/>
<path d="M47.3082 8.46985C45.8614 7.77286 45.3577 6.13286 45.9845 4.83844C46.6112 3.53816 48.2687 2.88802 49.6803 3.56744C51.0743 4.24101 51.6424 5.95129 51.0099 7.25157C50.3831 8.546 48.7314 9.14928 47.3082 8.464V8.46985ZM47.5132 8.03643C48.3566 8.44057 49.077 8.177 49.8033 6.67757C50.5647 5.10201 50.3304 4.42844 49.4577 4.00673C48.5557 3.5733 47.929 3.85444 47.1793 5.41244C46.453 6.91772 46.6463 7.62057 47.5132 8.03643Z" fill="#ACACAC"/>
<path d="M52.6792 11.7613C51.4082 10.789 51.2442 9.07871 52.1228 7.93657C53.0014 6.78858 54.7527 6.48987 55.9944 7.44458C57.2244 8.38172 57.4294 10.174 56.5449 11.322C55.6664 12.4641 53.9268 12.7218 52.6734 11.7613H52.6792ZM52.9721 11.3806C53.716 11.9487 54.4774 11.8374 55.4907 10.5137C56.5567 9.12557 56.4688 8.41686 55.6957 7.83115C54.9049 7.22201 54.2314 7.37429 53.1771 8.74486C52.158 10.0686 52.2048 10.7948 52.9662 11.3806H52.9721Z" fill="#ACACAC"/>
<path d="M55.4844 13.9811L55.6894 13.7936L56.2751 14.1685L59.5551 11.2399L59.2446 10.6132L59.4496 10.4258L61.2009 12.3762L60.9959 12.5636L60.3926 12.1712L57.0189 15.1876L58.1786 16.2595L59.9944 15.9315L60.1056 16.113L58.4422 17.2728L55.4785 13.9752L55.4844 13.9811Z" fill="#ACACAC"/>
<path d="M61.1016 21.5134L64.7974 17.7649L64.7388 17.2085L64.9907 17.0913L66.0274 19.2936L65.7755 19.4107L65.348 18.9422L62.6888 21.5134L65.3831 21.162L66.0684 20.4709L66.0215 19.9379L66.2734 19.8207L67.2925 21.9879L67.0407 22.105L66.5897 21.5837L63.8954 24.2487L67.5737 23.6747L67.4624 23.007L67.7142 22.8899L68.5108 24.5826L68.259 24.6997L67.8372 24.2429L62.6361 24.7934L62.3667 24.2253L64.8735 21.6774L61.3476 22.064L61.084 21.5076L61.1016 21.5134Z" fill="#ACACAC"/>
<path d="M64.1237 29.7663C63.7898 28.2025 64.7797 26.7968 66.1912 26.498C67.6087 26.1993 69.1315 27.1072 69.4595 28.63C69.7817 30.1412 68.7684 31.6347 67.351 31.9335C65.9394 32.2322 64.4517 31.3009 64.1237 29.7605V29.7663ZM64.5922 29.6667C64.7855 30.5805 65.4357 30.9905 67.0757 30.639C68.7859 30.2759 69.1842 29.6785 68.9792 28.7355C68.7742 27.7632 68.1651 27.441 66.4665 27.7983C64.8324 28.1439 64.3931 28.7296 64.5922 29.6667Z" fill="#ACACAC"/>
<path d="M64.8031 36.0041C64.7796 34.4052 66.0213 33.2162 67.4622 33.1927C68.9089 33.1693 70.2326 34.3524 70.256 35.9163C70.2795 37.4626 69.0026 38.7336 67.5501 38.757C66.1092 38.7804 64.8265 37.5797 64.8031 36.0041ZM65.2833 35.9983C65.3009 36.9354 65.8573 37.4567 67.5325 37.4274C69.2838 37.3981 69.7875 36.8886 69.7699 35.9221C69.7523 34.9264 69.2193 34.493 67.4856 34.5223C65.8105 34.5516 65.2716 35.0377 65.2833 35.9983Z" fill="#ACACAC"/>
<path d="M64.8793 39.5649L65.1546 39.6235L65.1897 40.3205L69.4889 41.2694L69.8169 40.6544L70.0863 40.7129L69.6411 42.7219L65.8457 43.3076L69.0613 45.3225L68.5927 47.4428L68.3174 47.3842L68.2823 46.6872L63.9832 45.7383L63.6552 46.3533L63.3857 46.2948L63.9305 43.8348L64.1999 43.8934L64.2526 44.5142L68.253 45.3986L64.3346 42.8566L64.4459 42.3588L69.1023 41.5681L65.055 40.8886L64.7446 41.4275L64.4693 41.3689L64.8676 39.5649H64.8793Z" fill="#ACACAC"/>
<path d="M61.8226 49.4342C62.5138 47.9933 64.1537 47.4779 65.454 48.0987C66.7602 48.7196 67.4162 50.3654 66.7426 51.777C66.0749 53.171 64.3587 53.745 63.0526 53.1241C61.7523 52.5033 61.1373 50.8633 61.8168 49.44L61.8226 49.4342ZM62.256 49.6392C61.8519 50.4826 62.1213 51.203 63.6325 51.9176C65.2139 52.6673 65.8933 52.433 66.3092 51.5603C66.7367 50.6583 66.4556 50.0374 64.8859 49.2936C63.3747 48.5732 62.6719 48.7723 62.256 49.6392Z" fill="#ACACAC"/>
<path d="M58.542 54.8054C59.5143 53.5344 61.2246 53.3645 62.3726 54.2314C63.5264 55.1041 63.831 56.8495 62.8821 58.0912C61.945 59.3212 60.1527 59.5321 58.9989 58.6594C57.8509 57.7925 57.5873 56.0588 58.542 54.8054ZM58.9227 55.0982C58.3546 55.8421 58.4717 56.5977 59.8013 57.6051C61.1953 58.6594 61.904 58.5715 62.4897 57.7984C63.093 57.0077 62.9407 56.3341 61.5584 55.2915C60.2289 54.2841 59.4967 54.331 58.9169 55.0924L58.9227 55.0982Z" fill="#ACACAC"/>
<path d="M56.3278 57.6108L56.5153 57.8158L56.1404 58.4015L59.0924 61.6581L59.7191 61.3477L59.9065 61.5527L57.9561 63.3098L57.7687 63.1048L58.1611 62.5015L55.1213 59.1454L54.0553 60.3051L54.3891 62.115L54.2076 62.2262L53.0361 60.5745L56.3278 57.605V57.6108Z" fill="#ACACAC"/>
<path d="M47.4431 66.5956C47.0214 65.7756 46.6641 64.9966 46.6583 64.1122C46.6524 63.3742 47.1034 62.6947 47.695 62.5073C48.433 62.273 49.253 62.5483 49.7274 63.1984C50.0964 63.6963 50.0612 64.4694 49.6512 65.0669C49.1124 65.8517 48.269 66.1797 47.4373 66.5956H47.4431Z" fill="#ACACAC"/>
<path d="M47.7356 67.3689C47.8704 68.0542 48.0812 68.7336 48.1105 69.4248C48.1456 70.233 47.5131 70.8832 46.7692 70.9827C45.9668 71.094 45.1644 70.6489 44.8949 69.9168C44.6607 69.29 44.7837 68.6633 45.2522 68.2358C45.7969 67.7379 46.4471 67.3455 47.0855 66.9648C47.5248 66.7012 47.4545 67.2342 47.7356 67.3689Z" fill="#ACACAC"/>
<path d="M46.4707 67.1638C45.8557 67.2575 45.2348 67.4274 44.6198 67.4215C43.8643 67.4215 43.2903 66.8768 43.1204 66.2032C42.9623 65.5531 43.3137 64.7038 43.8994 64.3172C44.4148 63.9834 45.229 64.0595 45.803 64.5164C46.4473 65.0318 46.7987 65.7639 47.1736 66.4727C47.2087 66.5429 47.1208 66.7362 47.033 66.7889C46.8573 66.9061 46.6523 66.9647 46.4531 67.0467C46.4531 67.0877 46.4648 67.1228 46.4707 67.1638Z" fill="#ACACAC"/>
<path d="M47.7944 67.5152C47.4664 66.7128 47.4606 66.7011 48.2864 66.4141C48.7491 66.2559 49.2236 66.1037 49.7097 66.0217C50.5238 65.8811 51.297 66.3028 51.5664 66.9646C51.8651 67.7026 51.5664 68.6046 50.8694 69.0908C50.3247 69.4715 49.3934 69.3895 48.837 68.8331C48.4446 68.4406 48.14 67.9604 47.7944 67.5211V67.5152Z" fill="#ACACAC"/>
<path d="M11.4392 11.9724C10.7774 11.2754 10.1975 10.5959 9.92808 9.71152C9.70551 8.97353 9.95737 8.16524 10.4962 7.80796C11.1698 7.35696 12.0659 7.39796 12.7278 7.90753C13.2374 8.29996 13.4365 9.07895 13.1964 9.79938C12.8859 10.7424 12.1362 11.3105 11.4334 11.9724H11.4392Z" fill="#ACACAC"/>
<path d="M11.9545 12.6634C12.2884 13.3077 12.6984 13.9286 12.9268 14.608C13.1962 15.4046 12.7511 16.2363 12.0424 16.5584C11.2751 16.904 10.338 16.6873 9.85182 16.0371C9.43597 15.4748 9.37154 14.813 9.72297 14.2507C10.1271 13.5947 10.6601 13.0149 11.1814 12.4467C11.5445 12.0543 11.6324 12.6049 11.9487 12.6634H11.9545Z" fill="#ACACAC"/>
<path d="M10.631 12.8274C10.0394 13.0968 9.47126 13.4482 8.85626 13.6239C8.10069 13.8406 7.36855 13.4658 7.00541 12.8391C6.65398 12.2358 6.75941 11.2869 7.23384 10.7305C7.64969 10.2444 8.48726 10.0862 9.19597 10.3791C9.99254 10.7071 10.5607 11.3338 11.1347 11.9371C11.1874 11.9956 11.1581 12.2182 11.0878 12.2944C10.9472 12.4584 10.754 12.5814 10.5841 12.7161C10.6017 12.7512 10.6193 12.7922 10.631 12.8274Z" fill="#ACACAC"/>
<path d="M12.0599 12.7921C11.4976 12.0834 11.4918 12.0717 12.2298 11.5504C12.6456 11.2576 13.079 10.9647 13.5359 10.7421C14.309 10.3673 15.2052 10.5606 15.6679 11.1463C16.1775 11.7964 16.1482 12.7863 15.5917 13.4716C15.1583 14.0104 14.2036 14.1978 13.4832 13.8054C12.9736 13.5243 12.5285 13.1319 12.0599 12.7921Z" fill="#ACACAC"/>
</g>
<defs>
<clipPath id="clip0_499_281">
<rect width="70.2561" height="71" fill="white"/>
</clipPath>
</defs>
</svg>
