<svg width="311" height="54" viewBox="0 0 311 54" fill="none" xmlns="http://www.w3.org/2000/svg">
<g filter="url(#filter0_di_454_121)">
<rect x="4.7666" y="4.4707" width="301.623" height="45.07" rx="22.535" fill="white" fill-opacity="0.6" shape-rendering="crispEdges"/>
<path d="M130.234 19.7871V23.8965H132.14V25.334H130.234V29.334H128.5V19.7871H130.234ZM118.922 27.6465C119.984 27.6465 121.211 27.6387 122.484 27.5996V26.7402C120.914 26.5449 119.922 25.7871 119.922 24.6777C119.922 23.3809 121.281 22.5684 123.328 22.584C125.39 22.5684 126.734 23.3809 126.734 24.6777C126.734 25.7793 125.765 26.5293 124.219 26.7246V27.5371C125.422 27.4824 126.633 27.3887 127.765 27.2402L127.906 28.4434C124.89 28.9746 121.594 29.0059 119.109 29.0059L118.922 27.6465ZM130.234 29.9434V33.8965H128.5V31.3027H120.703V29.9434H130.234ZM127.39 20.8965V22.1777H119.281V20.8965H122.484V19.6621H124.219V20.8965H127.39ZM123.328 23.7559C122.234 23.7402 121.578 24.0684 121.594 24.6777C121.578 25.2559 122.234 25.6309 123.328 25.6152C124.422 25.6309 125.078 25.2559 125.078 24.6777C125.078 24.0684 124.422 23.7402 123.328 23.7559ZM144.64 19.7871V29.9902H142.89V19.7871H144.64ZM145.031 32.209V33.6152H135.297V28.959H137.047V32.209H145.031ZM136.937 20.709C139.078 20.709 140.734 22.1934 140.734 24.2402C140.734 26.334 139.078 27.7871 136.937 27.7871C134.781 27.7871 133.125 26.334 133.125 24.2402C133.125 22.1934 134.781 20.709 136.937 20.709ZM136.937 22.2246C135.734 22.2246 134.812 23.0215 134.828 24.2402C134.812 25.4902 135.734 26.2715 136.937 26.2715C138.109 26.2715 139.031 25.4902 139.031 24.2402C139.031 23.0215 138.109 22.2246 136.937 22.2246ZM158.781 19.7871V28.4902H157.125V24.9121H155.781V28.3184H154.156V19.9902H155.781V23.4902H157.125V19.7871H158.781ZM153.656 21.2246V22.5996H146.625V21.2246H149.297V19.8496H151.015V21.2246H153.656ZM150.156 23.1309C151.953 23.1465 153.219 24.1152 153.234 25.584C153.219 27.0371 151.953 28.0371 150.156 28.0371C148.39 28.0371 147.109 27.0371 147.125 25.584C147.109 24.1152 148.39 23.1465 150.156 23.1309ZM150.156 24.3965C149.281 24.3965 148.672 24.8184 148.672 25.584C148.672 26.3184 149.265 26.7715 150.156 26.7715C151.047 26.7715 151.656 26.3184 151.656 25.584C151.656 24.8184 151.047 24.3965 150.156 24.3965ZM151.969 29.2715C151.969 30.3652 152.492 31.4902 153.672 32.1934C154.867 31.4434 155.422 30.2559 155.437 29.2715V28.9277H157.156V29.2715C157.156 30.6152 158.047 31.9121 159.89 32.4121L159.078 33.7246C157.695 33.2871 156.773 32.4121 156.281 31.3184C155.836 32.3965 155.008 33.3574 153.703 33.8496C152.375 33.3809 151.539 32.4746 151.094 31.3965C150.578 32.4277 149.656 33.2793 148.344 33.7246L147.531 32.4121C149.344 31.8652 150.25 30.5371 150.25 29.2715V28.9277H151.969V29.2715ZM164.39 20.8027C166.304 20.8027 167.719 22.3965 167.969 24.9746H170.656V19.7715H172.375V33.9121H170.656V26.3809H167.984C167.797 29.1074 166.359 30.7871 164.39 30.7871C162.265 30.7871 160.765 28.8652 160.765 25.7871C160.765 22.7402 162.265 20.8027 164.39 20.8027ZM164.39 22.3652C163.219 22.3652 162.422 23.6309 162.437 25.7871C162.422 27.959 163.219 29.2246 164.39 29.2246C165.562 29.2246 166.344 27.959 166.359 25.7871C166.344 23.6309 165.562 22.3652 164.39 22.3652ZM187.265 30.7559V32.1777H174.359V30.7559H177.344V27.1777C176.219 26.5371 175.539 25.5293 175.547 24.2715C175.531 22.0215 177.75 20.5371 180.781 20.5371C183.828 20.5371 186.047 22.0215 186.047 24.2715C186.047 25.5059 185.39 26.498 184.297 27.1465V30.7559H187.265ZM180.781 21.9121C178.672 21.9121 177.234 22.8027 177.25 24.2715C177.234 25.7246 178.672 26.6309 180.781 26.6309C182.89 26.6309 184.344 25.7246 184.344 24.2715C184.344 22.8027 182.89 21.9121 180.781 21.9121ZM179.062 30.7559H182.531V27.8027C181.992 27.9277 181.406 27.9902 180.781 27.9902C180.172 27.9902 179.594 27.9277 179.062 27.8184V30.7559ZM191.094 21.1934L190.922 29.1777H189.156L188.969 21.1934H191.094ZM190.047 32.6309C189.375 32.6309 188.828 32.084 188.828 31.4121C188.828 30.7559 189.375 30.209 190.047 30.209C190.687 30.209 191.25 30.7559 191.25 31.4121C191.25 32.084 190.687 32.6309 190.047 32.6309Z" fill="#2892C2"/>
</g>
<defs>
<filter id="filter0_di_454_121" x="0.766602" y="0.470703" width="309.623" height="53.0698" filterUnits="userSpaceOnUse" color-interpolation-filters="sRGB">
<feFlood flood-opacity="0" result="BackgroundImageFix"/>
<feColorMatrix in="SourceAlpha" type="matrix" values="0 0 0 0 0 0 0 0 0 0 0 0 0 0 0 0 0 0 127 0" result="hardAlpha"/>
<feOffset/>
<feGaussianBlur stdDeviation="2"/>
<feComposite in2="hardAlpha" operator="out"/>
<feColorMatrix type="matrix" values="0 0 0 0 0 0 0 0 0 0 0 0 0 0 0 0 0 0 0.25 0"/>
<feBlend mode="normal" in2="BackgroundImageFix" result="effect1_dropShadow_454_121"/>
<feBlend mode="normal" in="SourceGraphic" in2="effect1_dropShadow_454_121" result="shape"/>
<feColorMatrix in="SourceAlpha" type="matrix" values="0 0 0 0 0 0 0 0 0 0 0 0 0 0 0 0 0 0 127 0" result="hardAlpha"/>
<feOffset/>
<feGaussianBlur stdDeviation="2"/>
<feComposite in2="hardAlpha" operator="arithmetic" k2="-1" k3="1"/>
<feColorMatrix type="matrix" values="0 0 0 0 1 0 0 0 0 1 0 0 0 0 1 0 0 0 1 0"/>
<feBlend mode="normal" in2="shape" result="effect2_innerShadow_454_121"/>
</filter>
</defs>
</svg>
