<svg width="310" height="54" viewBox="0 0 310 54" fill="none" xmlns="http://www.w3.org/2000/svg">
<g filter="url(#filter0_di_456_171)">
<rect x="4" y="4" width="301.623" height="45.07" rx="22.535" fill="#2892C2" shape-rendering="crispEdges"/>
<path d="M129.468 19.3164V23.4258H131.374V24.8633H129.468V28.8633H127.733V19.3164H129.468ZM118.155 27.1758C119.218 27.1758 120.444 27.168 121.718 27.1289V26.2695C120.147 26.0742 119.155 25.3164 119.155 24.207C119.155 22.9102 120.515 22.0977 122.562 22.1133C124.624 22.0977 125.968 22.9102 125.968 24.207C125.968 25.3086 124.999 26.0586 123.452 26.2539V27.0664C124.655 27.0117 125.866 26.918 126.999 26.7695L127.14 27.9727C124.124 28.5039 120.827 28.5352 118.343 28.5352L118.155 27.1758ZM129.468 29.4727V33.4258H127.733V30.832H119.937V29.4727H129.468ZM126.624 20.4258V21.707H118.515V20.4258H121.718V19.1914H123.452V20.4258H126.624ZM122.562 23.2852C121.468 23.2695 120.812 23.5977 120.827 24.207C120.812 24.7852 121.468 25.1602 122.562 25.1445C123.655 25.1602 124.312 24.7852 124.312 24.207C124.312 23.5977 123.655 23.2695 122.562 23.2852ZM143.874 19.3164V29.5195H142.124V19.3164H143.874ZM144.265 31.7383V33.1445H134.53V28.4883H136.28V31.7383H144.265ZM136.171 20.2383C138.312 20.2383 139.968 21.7227 139.968 23.7695C139.968 25.8633 138.312 27.3164 136.171 27.3164C134.015 27.3164 132.358 25.8633 132.358 23.7695C132.358 21.7227 134.015 20.2383 136.171 20.2383ZM136.171 21.7539C134.968 21.7539 134.046 22.5508 134.062 23.7695C134.046 25.0195 134.968 25.8008 136.171 25.8008C137.343 25.8008 138.265 25.0195 138.265 23.7695C138.265 22.5508 137.343 21.7539 136.171 21.7539ZM158.015 19.3164V28.0195H156.358V24.4414H155.015V27.8477H153.39V19.5195H155.015V23.0195H156.358V19.3164H158.015ZM152.89 20.7539V22.1289H145.858V20.7539H148.53V19.3789H150.249V20.7539H152.89ZM149.39 22.6602C151.187 22.6758 152.452 23.6445 152.468 25.1133C152.452 26.5664 151.187 27.5664 149.39 27.5664C147.624 27.5664 146.343 26.5664 146.358 25.1133C146.343 23.6445 147.624 22.6758 149.39 22.6602ZM149.39 23.9258C148.515 23.9258 147.905 24.3477 147.905 25.1133C147.905 25.8477 148.499 26.3008 149.39 26.3008C150.28 26.3008 150.89 25.8477 150.89 25.1133C150.89 24.3477 150.28 23.9258 149.39 23.9258ZM151.202 28.8008C151.202 29.8945 151.726 31.0195 152.905 31.7227C154.101 30.9727 154.655 29.7852 154.671 28.8008V28.457H156.39V28.8008C156.39 30.1445 157.28 31.4414 159.124 31.9414L158.312 33.2539C156.929 32.8164 156.007 31.9414 155.515 30.8477C155.069 31.9258 154.241 32.8867 152.937 33.3789C151.608 32.9102 150.772 32.0039 150.327 30.9258C149.812 31.957 148.89 32.8086 147.577 33.2539L146.765 31.9414C148.577 31.3945 149.483 30.0664 149.483 28.8008V28.457H151.202V28.8008ZM163.624 20.332C165.538 20.332 166.952 21.9258 167.202 24.5039H169.89V19.3008H171.608V33.4414H169.89V25.9102H167.218C167.03 28.6367 165.593 30.3164 163.624 30.3164C161.499 30.3164 159.999 28.3945 159.999 25.3164C159.999 22.2695 161.499 20.332 163.624 20.332ZM163.624 21.8945C162.452 21.8945 161.655 23.1602 161.671 25.3164C161.655 27.4883 162.452 28.7539 163.624 28.7539C164.796 28.7539 165.577 27.4883 165.593 25.3164C165.577 23.1602 164.796 21.8945 163.624 21.8945ZM186.499 30.2852V31.707H173.593V30.2852H176.577V26.707C175.452 26.0664 174.772 25.0586 174.78 23.8008C174.765 21.5508 176.983 20.0664 180.015 20.0664C183.062 20.0664 185.28 21.5508 185.28 23.8008C185.28 25.0352 184.624 26.0273 183.53 26.6758V30.2852H186.499ZM180.015 21.4414C177.905 21.4414 176.468 22.332 176.483 23.8008C176.468 25.2539 177.905 26.1602 180.015 26.1602C182.124 26.1602 183.577 25.2539 183.577 23.8008C183.577 22.332 182.124 21.4414 180.015 21.4414ZM178.296 30.2852H181.765V27.332C181.226 27.457 180.64 27.5195 180.015 27.5195C179.405 27.5195 178.827 27.457 178.296 27.3477V30.2852ZM190.327 20.7227L190.155 28.707H188.39L188.202 20.7227H190.327ZM189.28 32.1602C188.608 32.1602 188.062 31.6133 188.062 30.9414C188.062 30.2852 188.608 29.7383 189.28 29.7383C189.921 29.7383 190.483 30.2852 190.483 30.9414C190.483 31.6133 189.921 32.1602 189.28 32.1602Z" fill="white"/>
</g>
<defs>
<filter id="filter0_di_456_171" x="0" y="0" width="309.623" height="53.0698" filterUnits="userSpaceOnUse" color-interpolation-filters="sRGB">
<feFlood flood-opacity="0" result="BackgroundImageFix"/>
<feColorMatrix in="SourceAlpha" type="matrix" values="0 0 0 0 0 0 0 0 0 0 0 0 0 0 0 0 0 0 127 0" result="hardAlpha"/>
<feOffset/>
<feGaussianBlur stdDeviation="2"/>
<feComposite in2="hardAlpha" operator="out"/>
<feColorMatrix type="matrix" values="0 0 0 0 0 0 0 0 0 0 0 0 0 0 0 0 0 0 0.25 0"/>
<feBlend mode="normal" in2="BackgroundImageFix" result="effect1_dropShadow_456_171"/>
<feBlend mode="normal" in="SourceGraphic" in2="effect1_dropShadow_456_171" result="shape"/>
<feColorMatrix in="SourceAlpha" type="matrix" values="0 0 0 0 0 0 0 0 0 0 0 0 0 0 0 0 0 0 127 0" result="hardAlpha"/>
<feOffset/>
<feGaussianBlur stdDeviation="2"/>
<feComposite in2="hardAlpha" operator="arithmetic" k2="-1" k3="1"/>
<feColorMatrix type="matrix" values="0 0 0 0 1 0 0 0 0 1 0 0 0 0 1 0 0 0 1 0"/>
<feBlend mode="normal" in2="shape" result="effect2_innerShadow_456_171"/>
</filter>
</defs>
</svg>
