<svg width="324" height="129" viewBox="0 0 324 129" fill="none" xmlns="http://www.w3.org/2000/svg">
<rect x="1" y="1" width="67" height="67" rx="4" stroke="#2892C2" stroke-width="2"/>
<g clip-path="url(#clip0_454_130)">
<path d="M34.23 49.9452C32.74 49.9452 30.98 49.7752 28.96 47.7652C26.58 45.3852 26.09 41.6852 27.78 38.7752C28.07 38.2652 27.9 37.6152 27.39 37.3252C26.88 37.0352 26.23 37.2052 25.94 37.7152C23.77 41.4652 24.4 46.2152 27.46 49.2752C30.27 52.0852 32.95 52.0852 34.23 52.0852C34.82 52.0852 35.29 51.6052 35.29 51.0252C35.29 50.4352 34.81 49.9652 34.23 49.9652V49.9452Z" fill="#2892C2"/>
<path d="M47.07 35.0051L35.44 12.8351C35.26 12.4851 34.89 12.2651 34.5 12.2651C34.11 12.2651 33.74 12.4851 33.56 12.8351L21.93 35.0051C18.66 40.6751 19.62 47.8651 24.25 52.4951C26.99 55.2351 30.63 56.7451 34.51 56.7451C38.39 56.7451 42.03 55.2351 44.77 52.4951C49.4 47.8651 50.35 40.6751 47.09 35.0051H47.07ZM43.25 50.9851C40.91 53.3251 37.81 54.6051 34.5 54.6051C31.19 54.6051 28.09 53.3151 25.75 50.9851C21.79 47.0251 20.99 40.8851 23.78 36.0451C23.78 36.0351 23.79 36.0151 23.8 36.0051L34.5 15.6251L45.2 36.0151C45.2 36.0151 45.21 36.0451 45.22 36.0551C48.02 40.8951 47.21 47.0351 43.25 50.9951V50.9851Z" fill="#2892C2"/>
</g>
<rect x="86" y="1" width="67" height="67" rx="4" stroke="#2892C2" stroke-width="2"/>
<g clip-path="url(#clip1_454_130)">
<path d="M117.282 37.0028C117.282 35.3897 115.96 34.0747 114.339 34.0747C112.718 34.0747 111.396 35.3897 111.396 37.0028C111.396 38.6159 112.718 39.9309 114.339 39.9309C115.96 39.9309 117.282 38.6159 117.282 37.0028ZM113.247 37.0028C113.247 36.3979 113.74 35.9157 114.339 35.9157C114.938 35.9157 115.432 36.4066 115.432 37.0028C115.432 37.5989 114.938 38.0898 114.339 38.0898C113.74 38.0898 113.247 37.5989 113.247 37.0028Z" fill="#2892C2"/>
<path d="M121.308 41.2021C119.978 41.2021 118.885 42.2805 118.885 43.613C118.885 44.9455 119.969 46.0238 121.308 46.0238C122.648 46.0238 123.731 44.9455 123.731 43.613C123.731 42.2805 122.648 41.2021 121.308 41.2021ZM121.308 44.1828C120.991 44.1828 120.736 43.9286 120.736 43.613C120.736 43.2974 120.991 43.0432 121.308 43.0432C121.626 43.0432 121.881 43.2974 121.881 43.613C121.881 43.9286 121.626 44.1828 121.308 44.1828Z" fill="#2892C2"/>
<path d="M114.339 45.8662C114.85 45.8662 115.264 46.2782 115.264 46.7867C115.264 47.2952 114.85 47.7072 114.339 47.7072C113.828 47.7072 113.414 47.2952 113.414 46.7867C113.414 46.2782 113.828 45.8662 114.339 45.8662Z" fill="#2892C2"/>
<path d="M105.678 12.5C105.537 12.5614 105.396 12.649 105.291 12.763C105.088 12.9822 104.982 13.2715 105 13.5695L107.722 55.4831C107.749 55.8425 107.943 56.1493 108.225 56.3247C108.392 56.4299 108.595 56.4912 108.806 56.4912H129.194C129.405 56.4912 129.608 56.4299 129.775 56.3247C130.057 56.1406 130.251 55.8425 130.277 55.4831L133 13.5695C133.018 13.2715 132.912 12.9822 132.709 12.763C132.603 12.649 132.471 12.5614 132.322 12.5M107.247 14.5865H130.753L129.793 29.4109C128.101 29.6564 126.436 29.7791 124.833 29.7791C120.559 29.7791 116.48 28.8849 112.736 27.1404C111.264 26.404 109.661 26.0007 107.978 25.9043L107.247 14.5865ZM109.828 54.3346L108.128 28.0696C109.423 28.1748 110.648 28.5167 111.793 29.0866C115.855 30.9802 120.242 31.9445 124.833 31.9445C126.392 31.9445 128.004 31.8305 129.652 31.6114L128.181 54.3346H109.828Z" fill="#2892C2"/>
</g>
<rect x="171" y="1" width="67" height="67" rx="4" stroke="#2892C2" stroke-width="2"/>
<g clip-path="url(#clip2_454_130)">
<path d="M194.176 60.8156C193.45 60.0786 193 59.0609 193 57.9467V42.5495C193 41.5143 193.147 40.4001 194.936 39.1718C195.403 38.8384 195.68 38.3032 195.68 37.7154C195.68 37.1364 195.394 36.5924 194.91 36.2678C193.432 35.2413 193 34.4781 193 32.855V27.4419C193 23.7483 195.516 20.2653 197.538 17.4666C198.221 16.5278 198.87 15.6154 199.319 14.8521C199.017 14.6942 198.809 14.352 198.809 14.0011V8.72835C198.809 8.72835 198.809 8.7108 198.809 8.69325C198.835 7.77205 199.57 7.02632 200.477 7C200.486 7 200.495 7 200.512 7L207.488 7.01755C207.955 7.01755 208.396 7.20179 208.707 7.53517C209.018 7.85979 209.182 8.28968 209.174 8.73712L209.191 14.0099C209.191 14.2643 209.096 14.51 208.914 14.6942C208.845 14.7644 208.767 14.817 208.681 14.8697C209.122 15.6242 209.77 16.5278 210.444 17.4578C212.467 20.2653 214.991 23.7483 214.991 27.4331L215.009 32.855C214.991 34.4868 214.542 35.2764 213.098 36.2678C212.614 36.5924 212.329 37.1364 212.329 37.7154C212.329 38.2945 212.597 38.8296 213.072 39.163C214.879 40.4352 215.017 41.523 214.991 42.6197V57.938C214.991 60.1839 213.193 62.0088 210.98 62.0088H196.994C195.896 62.0088 194.893 61.5526 194.167 60.8156H194.176ZM196.518 35.1273C197.184 35.8028 197.573 36.7328 197.573 37.7154C197.573 38.9261 196.985 40.0579 196.008 40.751C194.893 41.5143 194.893 41.9266 194.893 42.5408V42.5934V57.938C194.893 59.096 195.853 60.0699 196.994 60.0699H210.98C212.147 60.0699 213.09 59.1048 213.09 57.9292V42.6109C213.09 42.6109 213.09 42.6022 213.09 42.5934V42.5758C213.098 41.9442 213.107 41.5318 211.983 40.7335C210.989 40.0316 210.41 38.8911 210.427 37.6979C210.427 36.4872 211.032 35.3466 212.035 34.6623C213.012 33.9955 213.098 33.7762 213.107 32.8375L213.09 27.4243C213.09 24.3712 210.773 21.1602 208.906 18.5808C207.929 17.2297 207.056 16.0278 206.589 14.9662H201.376C200.91 16.0278 200.037 17.2385 199.051 18.5983C197.193 21.1689 194.876 24.3712 194.876 27.4331V32.8462C194.876 33.7762 194.945 33.9692 195.948 34.6623C196.147 34.7939 196.328 34.9518 196.501 35.1185L196.518 35.1273ZM200.702 8.92136V13.0361C200.719 13.0361 200.728 13.0361 200.745 13.0361L207.237 13.0536C207.237 13.0536 207.263 13.0536 207.281 13.0536V8.93891L200.694 8.93013L200.702 8.92136Z" fill="#2892C2"/>
<path d="M210.634 17.73H197.72V19.4846H210.634V17.73Z" fill="#2892C2"/>
<path d="M211.499 26.1523H209.77V32.8464H211.499V26.1523Z" fill="#2892C2"/>
<path d="M211.499 42.9795H209.77V56.7712H211.499V42.9795Z" fill="#2892C2"/>
</g>
<rect x="256" y="1" width="67" height="67" rx="4" stroke="#2892C2" stroke-width="2"/>
<path d="M284.236 38H289.486M289.486 38H294.736M289.486 38V32.75M289.486 38V43.25" stroke="#2892C2" stroke-width="1.5" stroke-linecap="round" stroke-linejoin="round"/>
<path d="M273.82 21.0145C273.794 20.8576 273.812 20.6966 273.871 20.549C273.93 20.4013 274.028 20.2724 274.154 20.1763C275.372 19.31 279.55 17 289.5 17C299.451 17 303.628 19.31 304.846 20.1763C304.973 20.2722 305.071 20.401 305.13 20.5487C305.19 20.6964 305.207 20.8574 305.182 21.0145L302.207 43.3165C302.064 44.3839 301.678 45.4041 301.077 46.2977C300.476 47.1913 299.677 47.9341 298.742 48.4685L298.182 48.7888C295.538 50.2995 292.545 51.0941 289.5 51.0941C286.455 51.0941 283.462 50.2995 280.818 48.7888L280.258 48.4685C279.323 47.9341 278.524 47.1913 277.923 46.2977C277.322 45.4041 276.936 44.3839 276.793 43.3165L273.82 21.0145Z" stroke="#2892C2" stroke-width="1.5"/>
<path d="M273.75 22.25C278.249 26.9173 300.751 26.9173 305.25 22.25" stroke="#2892C2" stroke-width="1.5"/>
<path d="M22.0898 81.6914V86.6836H24.3047V88.3008H22.0898V93.5566H20.1387V81.6914H22.0898ZM18.9961 83.4492V85.0137H9.57422V83.4492H13.3184V81.6738H15.2695V83.4492H18.9961ZM14.2852 85.6641C16.5703 85.6641 18.1523 86.877 18.1699 88.7051C18.1523 90.5156 16.5703 91.7109 14.2852 91.7109C11.9824 91.7109 10.3828 90.5156 10.3828 88.7051C10.3828 86.877 11.9824 85.6641 14.2852 85.6641ZM14.2852 87.1758C13.0723 87.1758 12.2812 87.7383 12.2812 88.7051C12.2812 89.6543 13.0723 90.2168 14.2852 90.1992C15.498 90.2168 16.3066 89.6543 16.3066 88.7051C16.3066 87.7383 15.498 87.1758 14.2852 87.1758ZM22.7227 95.666V97.248H11.9121V92.625H13.8633V95.666H22.7227ZM43.9043 94.0312V95.6309H29.3848V94.0312H35.6426V90.5684H30.9844V82.9043H42.2344V90.5684H37.5762V94.0312H43.9043ZM32.9004 84.4688V89.0391H40.3008V84.4688H32.9004ZM57.6855 82.4473V83.6777C57.6855 84.9082 57.6855 86.3145 57.2988 88.1953H59.4609V89.7773H44.9414V88.1953H55.3301C55.6992 86.4814 55.7344 85.1719 55.7344 84.0117H46.7344V82.4473H57.6855ZM57.668 91.623V97.3711H46.6816V91.623H57.668ZM48.5977 93.1523V95.7891H55.7344V93.1523H48.5977Z" fill="#2892C2"/>
<path d="M18.7676 125.176C16.043 125.176 14.1094 123.699 14.0566 121.555H16.3594C16.4297 122.574 17.4492 123.242 18.7676 123.242C20.1738 123.242 21.1758 122.469 21.1758 121.344C21.1758 120.201 20.1914 119.375 18.5391 119.375H17.3965V117.617H18.5391C19.8926 117.617 20.8418 116.861 20.8242 115.754C20.8418 114.682 20.0332 113.961 18.7852 113.961C17.5898 113.961 16.5527 114.629 16.5176 115.701H14.3203C14.373 113.557 16.3066 112.098 18.8027 112.098C21.3867 112.098 23.0566 113.68 23.0391 115.631C23.0566 117.055 22.1074 118.092 20.7188 118.373V118.479C22.5117 118.725 23.5312 119.867 23.5137 121.467C23.5312 123.611 21.5273 125.176 18.7676 125.176ZM30.2109 125.176C27.1523 125.176 25.3242 122.803 25.3242 118.637C25.3242 114.488 27.1523 112.098 30.2109 112.098C33.252 112.098 35.0977 114.488 35.0977 118.637C35.0977 122.803 33.2695 125.176 30.2109 125.176ZM30.2109 123.26C31.8105 123.26 32.7949 121.695 32.7949 118.637C32.7949 115.596 31.793 113.996 30.2109 113.996C28.6289 113.996 27.627 115.596 27.627 118.637C27.627 121.695 28.6113 123.26 30.2109 123.26ZM37.0312 125V115.455H39.1758V117.072H39.2988C39.6855 115.982 40.6523 115.332 41.918 115.332C43.2188 115.332 44.1328 115.982 44.502 117.072H44.6074C45.0293 116.018 46.084 115.332 47.4727 115.332C49.2129 115.332 50.4434 116.457 50.4434 118.584V125H48.2109V118.936C48.2109 117.74 47.4902 117.213 46.5762 117.213C45.4688 117.213 44.8359 117.969 44.8359 119.041V125H42.6562V118.848C42.6562 117.863 41.9883 117.213 41.0391 117.213C40.0723 117.213 39.2812 118.004 39.2812 119.199V125H37.0312ZM54.8379 112.273V125H52.5879V112.273H54.8379Z" fill="#2892C2"/>
<path d="M93.1602 125V123.348L97.6602 119.006C98.9434 117.723 99.6113 116.967 99.6113 115.895C99.6113 114.717 98.6797 113.961 97.4316 113.961C96.1133 113.961 95.2695 114.787 95.2871 116.07H93.1074C93.0898 113.662 94.9004 112.098 97.4492 112.098C100.051 112.098 101.809 113.645 101.809 115.789C101.809 117.23 101.105 118.391 98.6094 120.746L96.3418 122.996V123.084H102.002V125H93.1602ZM108.699 125.176C105.641 125.176 103.812 122.803 103.812 118.637C103.812 114.488 105.641 112.098 108.699 112.098C111.74 112.098 113.586 114.488 113.586 118.637C113.586 122.803 111.758 125.176 108.699 125.176ZM108.699 123.26C110.299 123.26 111.283 121.695 111.283 118.637C111.283 115.596 110.281 113.996 108.699 113.996C107.117 113.996 106.115 115.596 106.115 118.637C106.115 121.695 107.1 123.26 108.699 123.26ZM120.195 125.176C117.137 125.176 115.309 122.803 115.309 118.637C115.309 114.488 117.137 112.098 120.195 112.098C123.236 112.098 125.082 114.488 125.082 118.637C125.082 122.803 123.254 125.176 120.195 125.176ZM120.195 123.26C121.795 123.26 122.779 121.695 122.779 118.637C122.779 115.596 121.777 113.996 120.195 113.996C118.613 113.996 117.611 115.596 117.611 118.637C117.611 121.695 118.596 123.26 120.195 123.26ZM127.016 125V115.455H129.16V117.072H129.283C129.67 115.982 130.637 115.332 131.902 115.332C133.203 115.332 134.117 115.982 134.486 117.072H134.592C135.014 116.018 136.068 115.332 137.457 115.332C139.197 115.332 140.428 116.457 140.428 118.584V125H138.195V118.936C138.195 117.74 137.475 117.213 136.561 117.213C135.453 117.213 134.82 117.969 134.82 119.041V125H132.641V118.848C132.641 117.863 131.973 117.213 131.023 117.213C130.057 117.213 129.266 118.004 129.266 119.199V125H127.016ZM144.822 112.273V125H142.572V112.273H144.822Z" fill="#2892C2"/>
<path d="M184.046 125.176C181.497 125.176 179.634 123.664 179.563 121.555H181.796C181.866 122.592 182.833 123.33 184.046 123.33C185.47 123.33 186.489 122.293 186.489 120.887C186.489 119.428 185.435 118.391 183.976 118.391C182.991 118.373 182.271 118.725 181.866 119.48H179.739L180.513 112.273H188.036V114.189H182.394L182.007 117.564H182.13C182.622 117.002 183.554 116.598 184.591 116.598C186.964 116.598 188.704 118.373 188.704 120.816C188.704 123.365 186.788 125.176 184.046 125.176ZM195.331 125.176C192.272 125.176 190.444 122.803 190.444 118.637C190.444 114.488 192.272 112.098 195.331 112.098C198.372 112.098 200.218 114.488 200.218 118.637C200.218 122.803 198.39 125.176 195.331 125.176ZM195.331 123.26C196.931 123.26 197.915 121.695 197.915 118.637C197.915 115.596 196.913 113.996 195.331 113.996C193.749 113.996 192.747 115.596 192.747 118.637C192.747 121.695 193.731 123.26 195.331 123.26ZM206.827 125.176C203.769 125.176 201.94 122.803 201.94 118.637C201.94 114.488 203.769 112.098 206.827 112.098C209.868 112.098 211.714 114.488 211.714 118.637C211.714 122.803 209.886 125.176 206.827 125.176ZM206.827 123.26C208.427 123.26 209.411 121.695 209.411 118.637C209.411 115.596 208.409 113.996 206.827 113.996C205.245 113.996 204.243 115.596 204.243 118.637C204.243 121.695 205.228 123.26 206.827 123.26ZM213.647 125V115.455H215.792V117.072H215.915C216.302 115.982 217.269 115.332 218.534 115.332C219.835 115.332 220.749 115.982 221.118 117.072H221.224C221.646 116.018 222.7 115.332 224.089 115.332C225.829 115.332 227.06 116.457 227.06 118.584V125H224.827V118.936C224.827 117.74 224.106 117.213 223.192 117.213C222.085 117.213 221.452 117.969 221.452 119.041V125H219.272V118.848C219.272 117.863 218.604 117.213 217.655 117.213C216.688 117.213 215.897 118.004 215.897 119.199V125H213.647ZM231.454 112.273V125H229.204V112.273H231.454Z" fill="#2892C2"/>
<path d="M115.368 81.6914V86.6836H117.583V88.3008H115.368V93.5566H113.417V81.6914H115.368ZM112.274 83.4492V85.0137H102.853V83.4492H106.597V81.6738H108.548V83.4492H112.274ZM107.563 85.6641C109.849 85.6641 111.431 86.877 111.448 88.7051C111.431 90.5156 109.849 91.7109 107.563 91.7109C105.261 91.7109 103.661 90.5156 103.661 88.7051C103.661 86.877 105.261 85.6641 107.563 85.6641ZM107.563 87.1758C106.351 87.1758 105.56 87.7383 105.56 88.7051C105.56 89.6543 106.351 90.2168 107.563 90.1992C108.776 90.2168 109.585 89.6543 109.585 88.7051C109.585 87.7383 108.776 87.1758 107.563 87.1758ZM116.001 95.666V97.248H105.19V92.625H107.142V95.666H116.001ZM135.97 81.6738V90.4277H134.019V87.2461H130.942V85.6641H134.019V81.6738H135.97ZM127.462 91.1484V92.7305H134.036V91.1484H135.97V97.3711H125.546V91.1484H127.462ZM127.462 95.7891H134.036V94.2422H127.462V95.7891ZM131.03 82.4297C131.013 86.6836 128.833 89.5312 123.735 91.043L122.979 89.4785C125.309 88.8193 126.855 87.8965 127.796 86.7363L123.243 87.0879L122.944 85.541L128.622 85.3301C128.771 84.9082 128.877 84.4688 128.938 84.0117H123.753V82.4297H131.03Z" fill="#2892C2"/>
<path d="M200.368 81.6914V86.6836H202.583V88.3008H200.368V93.5566H198.417V81.6914H200.368ZM197.274 83.4492V85.0137H187.853V83.4492H191.597V81.6738H193.548V83.4492H197.274ZM192.563 85.6641C194.849 85.6641 196.431 86.877 196.448 88.7051C196.431 90.5156 194.849 91.7109 192.563 91.7109C190.261 91.7109 188.661 90.5156 188.661 88.7051C188.661 86.877 190.261 85.6641 192.563 85.6641ZM192.563 87.1758C191.351 87.1758 190.56 87.7383 190.56 88.7051C190.56 89.6543 191.351 90.2168 192.563 90.1992C193.776 90.2168 194.585 89.6543 194.585 88.7051C194.585 87.7383 193.776 87.1758 192.563 87.1758ZM201.001 95.666V97.248H190.19V92.625H192.142V95.666H201.001ZM210.335 82.6406V84.9258H213.886V82.6406H215.819V84.1172H219.019V81.6738H220.97V91.2188H219.019V88.9336H215.819V90.1992H208.384V82.6406H210.335ZM210.335 88.6699H213.886V86.4551H210.335V88.6699ZM215.591 91.5C218.966 91.5 221.022 92.6074 221.022 94.541C221.022 96.4395 218.966 97.5469 215.591 97.5469C212.233 97.5469 210.177 96.4395 210.194 94.541C210.177 92.6074 212.233 91.5 215.591 91.5ZM215.591 92.9941C213.376 92.9941 212.128 93.5215 212.128 94.541C212.128 95.5078 213.376 96.0352 215.591 96.0352C217.806 96.0352 219.071 95.5078 219.071 94.541C219.071 93.5215 217.806 92.9941 215.591 92.9941ZM215.819 87.3516H219.019V85.6641H215.819V87.3516Z" fill="#2892C2"/>
<path d="M263.943 84.4336C263.943 86.4023 265.297 88.3535 267.828 89.1445L266.826 90.6562C265.024 90.085 263.715 88.8809 262.994 87.3691C262.273 89.0127 260.929 90.3223 259.039 90.9551L258.037 89.4434C260.586 88.582 261.957 86.5078 261.975 84.4336V84.2402H258.547V82.6758H267.283V84.2402H263.943V84.4336ZM271.15 81.6738V91.2539H269.182V81.6738H271.15ZM271.15 91.9922V97.5645H269.182V93.5742H260.305V91.9922H271.15ZM286.777 81.6738V90.3398H284.826V86.9473H282.084V85.3301H284.826V81.6738H286.777ZM278.252 91.0078V92.6602H284.826V91.0078H286.777V97.3711H276.301V91.0078H278.252ZM278.252 95.7891H284.826V94.1895H278.252V95.7891ZM282.594 82.4824V84.082H279.307C279.324 85.9893 280.607 87.958 283.051 88.7754L282.066 90.2871C280.291 89.6719 279.034 88.4766 278.34 86.9824C277.637 88.6436 276.318 89.9795 274.438 90.6211L273.436 89.0742C275.949 88.2217 277.303 86.165 277.32 84.082H274.016V82.4824H282.594ZM303.512 91.2188V92.8184H297.219V97.582H295.285V92.8184H289.027V91.2188H303.512ZM302.158 83.5547V85.1016H297.254C297.438 86.6748 299.504 88.3184 302.686 88.7051L301.965 90.252C299.337 89.918 297.298 88.7578 296.27 87.2285C295.224 88.7754 293.167 89.918 290.521 90.252L289.818 88.7051C292.991 88.3184 295.074 86.7012 295.268 85.1016H290.363V83.5547H295.285V81.6914H297.219V83.5547H302.158ZM317.029 81.6738V87.8789H319.385V89.5137H317.029V97.5293H315.078V81.6738H317.029ZM312.828 83.3262C312.828 88.002 310.895 92.0977 305.604 94.6992L304.496 93.1875C308.363 91.2627 310.455 88.5557 310.859 84.9434H305.357V83.3262H312.828Z" fill="#2892C2"/>
<defs>
<clipPath id="clip0_454_130">
<rect width="29" height="44.47" fill="white" transform="translate(20 12.2651)"/>
</clipPath>
<clipPath id="clip1_454_130">
<rect width="28" height="44" fill="white" transform="translate(105 12.5)"/>
</clipPath>
<clipPath id="clip2_454_130">
<rect width="22" height="55" fill="white" transform="translate(193 7)"/>
</clipPath>
</defs>
</svg>
