<svg width="486" height="384" viewBox="0 0 486 384" fill="none" xmlns="http://www.w3.org/2000/svg">
<rect width="347" height="326" fill="#D9D9D9"/>
<rect x="305" y="167" width="181" height="217" fill="#D9D9D9"/>
<path d="M356.954 262.422H358.116V275.106H356.954V262.422ZM354.238 267.504H357.29V268.456H354.238V267.504ZM350.92 265.432H351.844V266.524C351.844 267.187 351.76 267.835 351.592 268.47C351.424 269.095 351.181 269.679 350.864 270.22C350.547 270.761 350.178 271.242 349.758 271.662C349.338 272.073 348.876 272.399 348.372 272.642L347.728 271.746C348.185 271.522 348.61 271.228 349.002 270.864C349.394 270.5 349.735 270.085 350.024 269.618C350.313 269.151 350.533 268.657 350.682 268.134C350.841 267.602 350.92 267.065 350.92 266.524V265.432ZM351.144 265.432H352.068V266.524C352.068 267.047 352.147 267.56 352.306 268.064C352.474 268.559 352.703 269.03 352.992 269.478C353.281 269.926 353.622 270.327 354.014 270.682C354.415 271.027 354.849 271.307 355.316 271.522L354.672 272.418C354.159 272.185 353.687 271.867 353.258 271.466C352.829 271.065 352.455 270.607 352.138 270.094C351.821 269.571 351.573 269.007 351.396 268.4C351.228 267.793 351.144 267.168 351.144 266.524V265.432ZM348.064 264.62H354.882V265.558H348.064V264.62ZM350.92 262.66H352.082V265.138H350.92V262.66ZM366.291 262.702C367.206 262.702 367.994 262.8 368.657 262.996C369.329 263.183 369.842 263.453 370.197 263.808C370.561 264.163 370.743 264.597 370.743 265.11C370.743 265.605 370.561 266.034 370.197 266.398C369.842 266.753 369.329 267.023 368.657 267.21C367.994 267.397 367.206 267.49 366.291 267.49C365.386 267.49 364.597 267.397 363.925 267.21C363.262 267.023 362.749 266.753 362.385 266.398C362.021 266.034 361.839 265.605 361.839 265.11C361.839 264.597 362.021 264.163 362.385 263.808C362.749 263.453 363.262 263.183 363.925 262.996C364.597 262.8 365.386 262.702 366.291 262.702ZM366.291 263.626C365.628 263.626 365.05 263.687 364.555 263.808C364.07 263.92 363.692 264.088 363.421 264.312C363.16 264.527 363.029 264.793 363.029 265.11C363.029 265.409 363.16 265.67 363.421 265.894C363.692 266.109 364.07 266.277 364.555 266.398C365.05 266.51 365.628 266.566 366.291 266.566C366.963 266.566 367.542 266.51 368.027 266.398C368.522 266.277 368.9 266.109 369.161 265.894C369.422 265.67 369.553 265.409 369.553 265.11C369.553 264.793 369.422 264.527 369.161 264.312C368.9 264.088 368.522 263.92 368.027 263.808C367.542 263.687 366.963 263.626 366.291 263.626ZM361.979 270.752H370.617V274.924H361.979V270.752ZM369.483 271.69H363.113V273.972H369.483V271.69ZM360.579 268.568H372.017V269.52H360.579V268.568ZM380.488 270.024H381.65V272.11H380.488V270.024ZM386.032 262.422H387.194V275.092H386.032V262.422ZM377.114 272.684L376.946 271.704C377.748 271.695 378.616 271.685 379.55 271.676C380.483 271.667 381.435 271.634 382.406 271.578C383.376 271.522 384.314 271.433 385.22 271.312L385.304 272.18C384.37 272.329 383.423 272.441 382.462 272.516C381.5 272.581 380.562 272.628 379.648 272.656C378.733 272.675 377.888 272.684 377.114 272.684ZM377.212 263.976H384.898V264.914H377.212V263.976ZM381.048 265.628C381.654 265.628 382.186 265.726 382.644 265.922C383.101 266.118 383.456 266.393 383.708 266.748C383.969 267.093 384.1 267.504 384.1 267.98C384.1 268.447 383.969 268.857 383.708 269.212C383.456 269.567 383.101 269.842 382.644 270.038C382.186 270.225 381.654 270.318 381.048 270.318C380.45 270.318 379.923 270.225 379.466 270.038C379.008 269.842 378.654 269.567 378.402 269.212C378.15 268.857 378.024 268.447 378.024 267.98C378.024 267.504 378.15 267.093 378.402 266.748C378.654 266.393 379.008 266.118 379.466 265.922C379.923 265.726 380.45 265.628 381.048 265.628ZM381.048 266.538C380.488 266.538 380.026 266.669 379.662 266.93C379.298 267.191 379.116 267.541 379.116 267.98C379.116 268.409 379.298 268.755 379.662 269.016C380.026 269.277 380.488 269.408 381.048 269.408C381.626 269.408 382.093 269.277 382.448 269.016C382.812 268.755 382.994 268.409 382.994 267.98C382.994 267.541 382.812 267.191 382.448 266.93C382.093 266.669 381.626 266.538 381.048 266.538ZM380.488 262.436H381.65V264.48H380.488V262.436ZM393.339 268.806H394.501V271.62H393.339V268.806ZM398.953 262.436H400.115V272.054H398.953V262.436ZM391.477 273.86H400.423V274.812H391.477V273.86ZM391.477 271.116H392.639V274.112H391.477V271.116ZM389.839 269.24L389.685 268.274C390.469 268.274 391.318 268.269 392.233 268.26C393.157 268.241 394.099 268.209 395.061 268.162C396.022 268.106 396.951 268.022 397.847 267.91L397.931 268.75C397.025 268.899 396.092 269.011 395.131 269.086C394.179 269.151 393.25 269.193 392.345 269.212C391.439 269.231 390.604 269.24 389.839 269.24ZM396.377 269.912H399.261V270.752H396.377V269.912ZM393.801 262.94C394.426 262.94 394.972 263.033 395.439 263.22C395.905 263.397 396.265 263.654 396.517 263.99C396.778 264.317 396.909 264.704 396.909 265.152C396.909 265.591 396.778 265.978 396.517 266.314C396.265 266.65 395.905 266.907 395.439 267.084C394.972 267.261 394.426 267.35 393.801 267.35C393.185 267.35 392.639 267.261 392.163 267.084C391.696 266.907 391.332 266.65 391.071 266.314C390.819 265.978 390.693 265.591 390.693 265.152C390.693 264.704 390.819 264.317 391.071 263.99C391.332 263.654 391.696 263.397 392.163 263.22C392.639 263.033 393.185 262.94 393.801 262.94ZM393.801 263.808C393.203 263.808 392.718 263.929 392.345 264.172C391.971 264.415 391.785 264.741 391.785 265.152C391.785 265.553 391.971 265.875 392.345 266.118C392.718 266.361 393.203 266.482 393.801 266.482C394.389 266.482 394.869 266.361 395.243 266.118C395.616 265.875 395.803 265.553 395.803 265.152C395.803 264.872 395.719 264.634 395.551 264.438C395.383 264.242 395.149 264.088 394.851 263.976C394.552 263.864 394.202 263.808 393.801 263.808ZM411.202 262.422H412.364V275.078H411.202V262.422ZM412.056 267.56H414.38V268.526H412.056V267.56ZM407.968 263.78H409.102C409.102 264.984 408.906 266.137 408.514 267.238C408.122 268.33 407.506 269.343 406.666 270.276C405.826 271.2 404.72 272.003 403.348 272.684L402.704 271.788C403.88 271.2 404.855 270.514 405.63 269.73C406.414 268.937 406.997 268.059 407.38 267.098C407.772 266.127 407.968 265.082 407.968 263.962V263.78ZM403.292 263.78H408.556V264.746H403.292V263.78ZM424.725 262.422H425.887V269.226H424.725V262.422ZM417.739 269.856H418.873V271.382H424.739V269.856H425.887V274.924H417.739V269.856ZM418.873 272.306V273.972H424.739V272.306H418.873ZM419.097 263.024C419.741 263.024 420.31 263.15 420.805 263.402C421.299 263.645 421.687 263.985 421.967 264.424C422.256 264.863 422.401 265.371 422.401 265.95C422.401 266.519 422.256 267.028 421.967 267.476C421.687 267.915 421.299 268.255 420.805 268.498C420.31 268.741 419.741 268.862 419.097 268.862C418.462 268.862 417.893 268.741 417.389 268.498C416.894 268.255 416.502 267.915 416.213 267.476C415.933 267.028 415.793 266.519 415.793 265.95C415.793 265.371 415.933 264.863 416.213 264.424C416.502 263.985 416.894 263.645 417.389 263.402C417.893 263.15 418.462 263.024 419.097 263.024ZM419.097 264.004C418.677 264.004 418.303 264.088 417.977 264.256C417.65 264.415 417.393 264.643 417.207 264.942C417.02 265.231 416.927 265.567 416.927 265.95C416.927 266.323 417.02 266.659 417.207 266.958C417.393 267.247 417.65 267.476 417.977 267.644C418.303 267.812 418.677 267.896 419.097 267.896C419.517 267.896 419.89 267.812 420.217 267.644C420.543 267.476 420.8 267.247 420.987 266.958C421.173 266.659 421.267 266.323 421.267 265.95C421.267 265.567 421.173 265.231 420.987 264.942C420.8 264.643 420.543 264.415 420.217 264.256C419.89 264.088 419.517 264.004 419.097 264.004ZM437.057 262.38H438.219V269.38H437.057V262.38ZM437.715 265.432H440.095V266.398H437.715V265.432ZM430.169 270.024H438.219V272.852H431.345V274.378H430.211V272.012H437.071V270.892H430.169V270.024ZM430.211 274.056H438.667V274.952H430.211V274.056ZM428.419 263.57H435.895V264.48H428.419V263.57ZM432.157 265.04C433.072 265.04 433.805 265.227 434.355 265.6C434.906 265.964 435.181 266.468 435.181 267.112C435.181 267.747 434.906 268.251 434.355 268.624C433.805 268.997 433.072 269.184 432.157 269.184C431.233 269.184 430.496 268.997 429.945 268.624C429.395 268.251 429.119 267.747 429.119 267.112C429.119 266.468 429.395 265.964 429.945 265.6C430.496 265.227 431.233 265.04 432.157 265.04ZM432.157 265.894C431.579 265.894 431.112 266.006 430.757 266.23C430.412 266.445 430.239 266.739 430.239 267.112C430.239 267.485 430.412 267.784 430.757 268.008C431.112 268.223 431.579 268.33 432.157 268.33C432.745 268.33 433.212 268.223 433.557 268.008C433.903 267.784 434.075 267.485 434.075 267.112C434.075 266.739 433.903 266.445 433.557 266.23C433.212 266.006 432.745 265.894 432.157 265.894ZM431.583 262.296H432.745V264.2H431.583V262.296ZM448.508 262.702H449.586V274.462H448.508V262.702ZM449.138 267.588H451.476V268.54H449.138V267.588ZM441.634 270.822H442.138C442.39 270.822 442.712 270.813 443.104 270.794C443.506 270.766 443.949 270.691 444.434 270.57L444.532 271.55C444.019 271.671 443.557 271.746 443.146 271.774C442.745 271.793 442.409 271.802 442.138 271.802H441.634V270.822ZM441.634 264.018H444.35V264.97H442.712V271.368H441.634V264.018ZM444.896 270.822H445.414C445.76 270.822 446.142 270.808 446.562 270.78C446.992 270.752 447.449 270.668 447.934 270.528L448.046 271.508C447.533 271.648 447.057 271.732 446.618 271.76C446.189 271.788 445.788 271.802 445.414 271.802H444.896V270.822ZM444.896 264.018H447.682V264.97H445.96V271.34H444.896V264.018ZM451.07 262.422H452.176V275.092H451.07V262.422ZM356.366 279.422H357.528V286.828H356.366V279.422ZM357.206 282.474H359.39V283.44H357.206V282.474ZM348.218 280.136H349.366V282.068H352.936V280.136H354.084V286.044H348.218V280.136ZM349.366 282.992V285.106H352.936V282.992H349.366ZM349.604 287.528H357.626V288.466H350.766V291.644H349.604V287.528ZM349.604 290.972H357.864V291.91H349.604V290.972ZM362.119 283.23H370.729V284.168H362.119V283.23ZM360.565 285.862H372.045V286.814H360.565V285.862ZM362.119 279.884H363.267V283.706H362.119V279.884ZM362.035 290.832H370.799V291.784H362.035V290.832ZM362.035 288.088H363.197V291.084H362.035V288.088ZM386.088 279.436H387.25V288.718H386.088V279.436ZM379.116 290.86H387.642V291.812H379.116V290.86ZM379.116 287.864H380.278V291.308H379.116V287.864ZM380.166 280.136H381.132V281.41C381.132 282.241 380.987 283.02 380.698 283.748C380.408 284.467 379.998 285.101 379.466 285.652C378.943 286.193 378.327 286.609 377.618 286.898L377.002 285.974C377.646 285.722 378.201 285.363 378.668 284.896C379.144 284.429 379.512 283.897 379.774 283.3C380.035 282.693 380.166 282.063 380.166 281.41V280.136ZM380.376 280.136H381.342V281.41C381.342 281.886 381.416 282.348 381.566 282.796C381.715 283.235 381.93 283.645 382.21 284.028C382.49 284.411 382.821 284.751 383.204 285.05C383.596 285.339 384.025 285.568 384.492 285.736L383.89 286.66C383.19 286.389 382.574 285.997 382.042 285.484C381.519 284.961 381.108 284.355 380.81 283.664C380.52 282.964 380.376 282.213 380.376 281.41V280.136ZM394.921 284.42H397.301V285.386H394.921V284.42ZM392.345 282.67H393.241V283.328C393.241 283.953 393.175 284.574 393.045 285.19C392.914 285.806 392.723 286.389 392.471 286.94C392.228 287.491 391.925 287.985 391.561 288.424C391.206 288.863 390.795 289.222 390.329 289.502L389.643 288.62C390.072 288.368 390.455 288.051 390.791 287.668C391.127 287.276 391.407 286.847 391.631 286.38C391.864 285.904 392.041 285.405 392.163 284.882C392.284 284.359 392.345 283.841 392.345 283.328V282.67ZM392.555 282.67H393.451V283.328C393.451 283.823 393.511 284.322 393.633 284.826C393.754 285.321 393.931 285.792 394.165 286.24C394.398 286.688 394.678 287.094 395.005 287.458C395.341 287.813 395.723 288.111 396.153 288.354L395.495 289.222C394.879 288.877 394.351 288.401 393.913 287.794C393.474 287.178 393.138 286.483 392.905 285.708C392.671 284.933 392.555 284.14 392.555 283.328V282.67ZM389.993 281.76H395.775V282.712H389.993V281.76ZM392.345 279.884H393.451V282.488H392.345V279.884ZM399.387 279.422H400.493V292.092H399.387V279.422ZM396.853 279.716H397.945V291.434H396.853V279.716ZM409.396 282.712H412.238V283.678H409.396V282.712ZM411.888 279.422H413.05V286.968H411.888V279.422ZM408.878 287.36C409.755 287.36 410.506 287.453 411.132 287.64C411.766 287.827 412.252 288.097 412.588 288.452C412.924 288.797 413.092 289.222 413.092 289.726C413.092 290.473 412.714 291.051 411.958 291.462C411.211 291.873 410.184 292.078 408.878 292.078C407.571 292.078 406.54 291.873 405.784 291.462C405.037 291.051 404.664 290.473 404.664 289.726C404.664 289.222 404.832 288.797 405.168 288.452C405.513 288.097 405.998 287.827 406.624 287.64C407.258 287.453 408.01 287.36 408.878 287.36ZM408.878 288.27C408.243 288.27 407.697 288.326 407.24 288.438C406.782 288.55 406.428 288.713 406.176 288.928C405.933 289.143 405.812 289.409 405.812 289.726C405.812 290.025 405.933 290.281 406.176 290.496C406.428 290.711 406.782 290.879 407.24 291C407.697 291.112 408.243 291.168 408.878 291.168C409.522 291.168 410.068 291.112 410.516 291C410.973 290.879 411.323 290.711 411.566 290.496C411.818 290.281 411.944 290.025 411.944 289.726C411.944 289.409 411.818 289.143 411.566 288.928C411.323 288.713 410.973 288.55 410.516 288.438C410.068 288.326 409.522 288.27 408.878 288.27ZM405.854 280.71H406.806V281.732C406.806 282.507 406.656 283.235 406.358 283.916C406.068 284.588 405.658 285.181 405.126 285.694C404.594 286.198 403.978 286.585 403.278 286.856L402.676 285.932C403.152 285.764 403.581 285.535 403.964 285.246C404.356 284.957 404.692 284.625 404.972 284.252C405.261 283.879 405.48 283.477 405.63 283.048C405.779 282.619 405.854 282.18 405.854 281.732V280.71ZM406.078 280.71H407.03V281.718C407.03 282.259 407.156 282.787 407.408 283.3C407.66 283.813 408.019 284.266 408.486 284.658C408.952 285.05 409.489 285.358 410.096 285.582L409.508 286.506C408.817 286.254 408.215 285.89 407.702 285.414C407.188 284.929 406.787 284.369 406.498 283.734C406.218 283.099 406.078 282.427 406.078 281.718V280.71ZM403.04 280.346H409.802V281.298H403.04V280.346ZM415.513 289.516H426.993V290.482H415.513V289.516ZM420.651 286.478H421.799V289.796H420.651V286.478ZM416.857 280.318H418.019V282.572H424.459V280.318H425.607V286.8H416.857V280.318ZM418.019 283.524V285.848H424.459V283.524H418.019ZM356.912 296.422H358.074V303.226H356.912V296.422ZM349.926 303.856H351.06V305.382H356.926V303.856H358.074V308.924H349.926V303.856ZM351.06 306.306V307.972H356.926V306.306H351.06ZM351.284 297.024C351.928 297.024 352.497 297.15 352.992 297.402C353.487 297.645 353.874 297.985 354.154 298.424C354.443 298.863 354.588 299.371 354.588 299.95C354.588 300.519 354.443 301.028 354.154 301.476C353.874 301.915 353.487 302.255 352.992 302.498C352.497 302.741 351.928 302.862 351.284 302.862C350.649 302.862 350.08 302.741 349.576 302.498C349.081 302.255 348.689 301.915 348.4 301.476C348.12 301.028 347.98 300.519 347.98 299.95C347.98 299.371 348.12 298.863 348.4 298.424C348.689 297.985 349.081 297.645 349.576 297.402C350.08 297.15 350.649 297.024 351.284 297.024ZM351.284 298.004C350.864 298.004 350.491 298.088 350.164 298.256C349.837 298.415 349.581 298.643 349.394 298.942C349.207 299.231 349.114 299.567 349.114 299.95C349.114 300.323 349.207 300.659 349.394 300.958C349.581 301.247 349.837 301.476 350.164 301.644C350.491 301.812 350.864 301.896 351.284 301.896C351.704 301.896 352.077 301.812 352.404 301.644C352.731 301.476 352.987 301.247 353.174 300.958C353.361 300.659 353.454 300.323 353.454 299.95C353.454 299.567 353.361 299.231 353.174 298.942C352.987 298.643 352.731 298.415 352.404 298.256C352.077 298.088 351.704 298.004 351.284 298.004ZM361.111 302.708H362.007C362.838 302.708 363.547 302.703 364.135 302.694C364.732 302.675 365.274 302.643 365.759 302.596C366.254 302.549 366.753 302.479 367.257 302.386L367.369 303.338C366.986 303.403 366.608 303.459 366.235 303.506C365.862 303.543 365.47 303.571 365.059 303.59C364.648 303.609 364.196 303.623 363.701 303.632C363.206 303.641 362.642 303.646 362.007 303.646H361.111V302.708ZM361.083 297.192H366.529V300.776H362.259V303.268H361.111V299.88H365.381V298.13H361.083V297.192ZM369.833 296.436H370.995V304.22H369.833V296.436ZM367.369 298.312H370.099V299.25H367.369V298.312ZM367.369 300.93H370.099V301.882H367.369V300.93ZM362.525 304.892H370.995V309.106H369.833V305.844H362.525V304.892ZM382.04 296.422H383.188V309.092H382.04V296.422ZM382.922 301.63H385.26V302.61H382.922V301.63ZM373.388 298.452H380.85V299.404H373.388V298.452ZM377.182 300.44C377.779 300.44 378.306 300.566 378.764 300.818C379.23 301.07 379.594 301.415 379.856 301.854C380.126 302.283 380.262 302.783 380.262 303.352C380.262 303.921 380.126 304.425 379.856 304.864C379.594 305.303 379.23 305.648 378.764 305.9C378.306 306.143 377.779 306.264 377.182 306.264C376.584 306.264 376.052 306.143 375.586 305.9C375.128 305.648 374.764 305.303 374.494 304.864C374.223 304.425 374.088 303.921 374.088 303.352C374.088 302.783 374.223 302.283 374.494 301.854C374.764 301.415 375.128 301.07 375.586 300.818C376.052 300.566 376.584 300.44 377.182 300.44ZM377.182 301.406C376.799 301.406 376.458 301.49 376.16 301.658C375.861 301.826 375.623 302.055 375.446 302.344C375.278 302.633 375.194 302.969 375.194 303.352C375.194 303.735 375.278 304.075 375.446 304.374C375.623 304.663 375.861 304.892 376.16 305.06C376.458 305.219 376.799 305.298 377.182 305.298C377.555 305.298 377.891 305.219 378.19 305.06C378.488 304.892 378.722 304.663 378.89 304.374C379.067 304.075 379.156 303.735 379.156 303.352C379.156 302.969 379.067 302.633 378.89 302.344C378.722 302.055 378.488 301.826 378.19 301.658C377.891 301.49 377.555 301.406 377.182 301.406ZM376.58 296.576H377.742V298.872H376.58V296.576ZM387.877 300.23H396.487V301.168H387.877V300.23ZM386.323 302.862H397.803V303.814H386.323V302.862ZM387.877 296.884H389.025V300.706H387.877V296.884ZM387.793 307.832H396.557V308.784H387.793V307.832ZM387.793 305.088H388.955V308.084H387.793V305.088ZM405.798 298.62H406.736V299.152C406.736 299.889 406.591 300.571 406.302 301.196C406.012 301.821 405.602 302.363 405.07 302.82C404.547 303.277 403.931 303.627 403.222 303.87L402.648 302.96C403.282 302.764 403.833 302.475 404.3 302.092C404.766 301.709 405.13 301.266 405.392 300.762C405.662 300.249 405.798 299.712 405.798 299.152V298.62ZM405.994 298.62H406.946V299.152C406.946 299.665 407.072 300.151 407.324 300.608C407.585 301.065 407.949 301.471 408.416 301.826C408.882 302.171 409.424 302.437 410.04 302.624L409.494 303.548C408.794 303.324 408.178 302.997 407.646 302.568C407.123 302.139 406.717 301.635 406.428 301.056C406.138 300.468 405.994 299.833 405.994 299.152V298.62ZM402.984 297.962H409.746V298.9H402.984V297.962ZM405.798 296.366H406.96V298.284H405.798V296.366ZM411.3 296.422H412.462V304.178H411.3V296.422ZM412.14 299.698H414.324V300.664H412.14V299.698ZM408.43 304.5C409.288 304.5 410.026 304.589 410.642 304.766C411.267 304.943 411.748 305.205 412.084 305.55C412.42 305.886 412.588 306.297 412.588 306.782C412.588 307.501 412.219 308.056 411.482 308.448C410.744 308.849 409.727 309.05 408.43 309.05C407.562 309.05 406.815 308.961 406.19 308.784C405.574 308.607 405.098 308.345 404.762 308C404.426 307.664 404.258 307.258 404.258 306.782C404.258 306.297 404.426 305.886 404.762 305.55C405.098 305.205 405.574 304.943 406.19 304.766C406.815 304.589 407.562 304.5 408.43 304.5ZM408.43 305.41C407.795 305.41 407.254 305.466 406.806 305.578C406.358 305.681 406.012 305.835 405.77 306.04C405.527 306.245 405.406 306.493 405.406 306.782C405.406 307.071 405.527 307.319 405.77 307.524C406.012 307.729 406.358 307.888 406.806 308C407.254 308.103 407.795 308.154 408.43 308.154C409.055 308.154 409.592 308.103 410.04 308C410.497 307.888 410.842 307.729 411.076 307.524C411.318 307.319 411.44 307.071 411.44 306.782C411.44 306.493 411.318 306.245 411.076 306.04C410.842 305.835 410.497 305.681 410.04 305.578C409.592 305.466 409.055 305.41 408.43 305.41Z" fill="black"/>
<path d="M110.105 142.973C108.23 142.973 106.805 141.469 106.805 138.91C106.805 136.352 108.27 134.867 110.105 134.867C111.453 134.867 112.059 135.707 112.293 136.195H112.391V135.023H114.09V140.492C114.109 141.215 114.402 141.547 114.988 141.547C116.082 141.547 116.824 140.277 116.824 138.383C116.844 134.848 114.305 132.523 110.672 132.523C106.902 132.543 104.5 135.336 104.5 138.91C104.5 142.797 106.59 145.355 110.594 145.316C111.98 145.297 112.938 145.199 114.09 144.887V146.449C113.055 146.742 111.883 146.918 110.594 146.918C105.75 146.918 102.859 143.832 102.859 138.91C102.859 134.281 106.102 130.922 110.672 130.922C115.301 130.922 118.465 134.086 118.465 138.324C118.465 141.332 116.941 143.07 114.852 143.051C113.592 143.051 112.635 142.406 112.488 141.508H112.391C112.137 141.996 111.531 142.973 110.105 142.973ZM110.535 141.371C111.766 141.371 112.41 140.375 112.43 138.891C112.41 137.426 111.785 136.469 110.535 136.469C109.305 136.469 108.641 137.504 108.641 138.891C108.641 140.297 109.324 141.371 110.535 141.371ZM127.664 142.973C125.789 142.973 124.363 141.469 124.363 138.91C124.363 136.352 125.828 134.867 127.664 134.867C129.012 134.867 129.617 135.707 129.852 136.195H129.949V135.023H131.648V140.492C131.668 141.215 131.961 141.547 132.547 141.547C133.641 141.547 134.383 140.277 134.383 138.383C134.402 134.848 131.863 132.523 128.23 132.523C124.461 132.543 122.059 135.336 122.059 138.91C122.059 142.797 124.148 145.355 128.152 145.316C129.539 145.297 130.496 145.199 131.648 144.887V146.449C130.613 146.742 129.441 146.918 128.152 146.918C123.309 146.918 120.418 143.832 120.418 138.91C120.418 134.281 123.66 130.922 128.23 130.922C132.859 130.922 136.023 134.086 136.023 138.324C136.023 141.332 134.5 143.07 132.41 143.051C131.15 143.051 130.193 142.406 130.047 141.508H129.949C129.695 141.996 129.09 142.973 127.664 142.973ZM128.094 141.371C129.324 141.371 129.969 140.375 129.988 138.891C129.969 137.426 129.344 136.469 128.094 136.469C126.863 136.469 126.199 137.504 126.199 138.891C126.199 140.297 126.883 141.371 128.094 141.371ZM152.137 130.16V140.043H150.301V130.16H152.137ZM140.574 131.176V137.309C143.396 137.289 145.877 137.084 148.504 136.527L148.758 138.07C145.867 138.656 143.23 138.871 140.164 138.871H138.719V131.176H140.574ZM152.137 140.844V147.426H140.672V140.844H152.137ZM142.488 142.309V145.941H150.32V142.309H142.488ZM160.633 131.41C163.406 131.391 165.379 133.109 165.398 135.57C165.379 138.031 163.406 139.75 160.633 139.75C157.879 139.75 155.848 138.031 155.867 135.57C155.848 133.109 157.879 131.391 160.633 131.41ZM160.633 133.012C158.934 133.012 157.684 134.027 157.703 135.57C157.684 137.113 158.934 138.129 160.633 138.129C162.332 138.129 163.582 137.113 163.582 135.57C163.582 134.027 162.332 133.012 160.633 133.012ZM169.402 130.16V147.699H167.547V130.16H169.402ZM155.027 142.387C158.211 142.387 162.625 142.348 166.453 141.801L166.59 143.148C162.625 143.91 158.387 143.93 155.262 143.93L155.027 142.387ZM183.367 133.266C183.367 135.473 184.949 137.641 187.586 138.539L186.629 139.984C184.666 139.301 183.211 137.904 182.449 136.176C181.688 138.1 180.154 139.643 178.074 140.375L177.117 138.91C179.812 137.992 181.473 135.648 181.473 133.285V132.797H177.684V131.293H187.117V132.797H183.367V133.266ZM191.688 141.508V147.66H189.832V143.012H179.832V141.508H191.688ZM191.688 130.16V140.629H189.832V136.137H186.59V134.613H189.832V130.16H191.688ZM200.594 132.797C200.594 134.789 202.195 136.762 204.793 137.543L203.914 139.008C201.912 138.393 200.447 137.094 199.695 135.473C198.895 137.279 197.352 138.744 195.301 139.418L194.383 137.953C197.02 137.074 198.738 134.906 198.738 132.777V132.504H194.93V131H204.363V132.504H200.594V132.797ZM208.953 130.16V139.164H207.117V135.473H203.855V133.969H207.117V130.16H208.953ZM208.953 139.965V144.34H199.402V146H209.578V147.465H197.547V142.934H207.117V141.449H197.508V139.965H208.953ZM225.418 130.18V135.805H227.957V137.348H225.418V143.266H223.562V130.18H225.418ZM222.117 132.211V133.715H211.688V132.211H215.984V130.16H217.84V132.211H222.117ZM216.902 134.555C219.422 134.555 221.141 135.863 221.141 137.855C221.141 139.848 219.422 141.137 216.902 141.137C214.363 141.137 212.645 139.848 212.645 137.855C212.645 135.863 214.363 134.555 216.902 134.555ZM216.902 135.98C215.418 135.98 214.422 136.703 214.441 137.855C214.422 138.988 215.418 139.691 216.902 139.691C218.387 139.691 219.383 138.988 219.402 137.855C219.383 136.703 218.387 135.98 216.902 135.98ZM226.16 145.785V147.289H214.324V142.23H216.18V145.785H226.16ZM249.793 137.406V138.891H242.723V140.414H247.781V144.516H237.586V146.059H248.27V147.484H235.77V143.168H245.945V141.84H235.75V140.414H240.867V138.891H233.836V137.406H249.793ZM247.742 130.727V136.117H235.887V130.727H247.742ZM237.703 132.191V134.652H245.887V132.191H237.703ZM112.215 154.16V163.75H110.379V158.906H106.688V157.383H110.379V154.16H112.215ZM102.664 164.551V166.523H110.379V164.551H112.215V171.445H100.828V164.551H102.664ZM102.664 169.941H110.379V167.969H102.664V169.941ZM103.797 156.719C103.797 158.965 105.398 161.035 107.996 161.855L107.059 163.32C105.096 162.646 103.641 161.318 102.879 159.609C102.107 161.475 100.623 162.949 98.582 163.672L97.625 162.207C100.32 161.309 101.941 159.023 101.961 156.602V154.805H103.797V156.719ZM121.688 157.539C121.688 159.199 123.25 160.625 125.809 161.172L125.047 162.617C123.035 162.168 121.561 161.162 120.789 159.824C120.037 161.279 118.533 162.373 116.453 162.852L115.672 161.406C118.25 160.859 119.832 159.277 119.832 157.539H116.062V156.074H119.832V154.199H121.688V156.074H125.438V157.539H121.688ZM129.48 154.18V171.66H127.645V154.18H129.48ZM114.91 163.926C118.23 163.926 122.625 163.906 126.434 163.418L126.57 164.766C124.969 165.029 123.318 165.195 121.707 165.293V171.133H119.852V165.391C118.172 165.459 116.57 165.469 115.164 165.469L114.91 163.926ZM148.523 156.777V158.32H145.965V160.469H148.523V162.012H145.965V164.746H144.109V154.18H145.965V156.777H148.523ZM140.887 155.234V160.137H134.793V162.266C137.83 162.256 139.979 162.148 142.527 161.719L142.723 163.223C140.008 163.711 137.703 163.809 134.344 163.789H132.938V158.711H139.07V156.738H132.918V155.234H140.887ZM140.301 165.176C143.895 165.176 146.121 166.387 146.121 168.418C146.121 170.449 143.895 171.621 140.301 171.621C136.648 171.621 134.422 170.449 134.422 168.418C134.422 166.387 136.648 165.176 140.301 165.176ZM140.301 166.641C137.742 166.641 136.238 167.285 136.238 168.418C136.238 169.551 137.742 170.215 140.301 170.195C142.84 170.215 144.305 169.551 144.305 168.418C144.305 167.285 142.84 166.641 140.301 166.641ZM165.457 163.301V164.785H149.5V163.301H165.457ZM163.66 169.785V171.289H151.512V166.211H153.387V169.785H163.66ZM157.469 154.746C161.258 154.727 163.719 156.055 163.719 158.242C163.719 160.449 161.258 161.777 157.469 161.797C153.66 161.777 151.219 160.449 151.219 158.242C151.219 156.055 153.66 154.727 157.469 154.746ZM157.469 156.23C154.793 156.23 153.113 156.992 153.133 158.242C153.113 159.531 154.793 160.273 157.469 160.273C160.145 160.273 161.805 159.531 161.805 158.242C161.805 156.992 160.145 156.23 157.469 156.23ZM185.301 154.16V161.25H188.113V162.793H185.301V171.66H183.465V154.16H185.301ZM181.941 156.895V158.418H171.57V156.895H175.887V154.395H177.742V156.895H181.941ZM176.824 159.707C179.324 159.707 181.16 161.387 181.18 163.77C181.16 166.172 179.324 167.832 176.824 167.852C174.305 167.832 172.469 166.172 172.469 163.77C172.469 161.387 174.305 159.707 176.824 159.707ZM176.824 161.23C175.34 161.23 174.227 162.266 174.246 163.77C174.227 165.293 175.34 166.309 176.824 166.289C178.309 166.309 179.402 165.293 179.402 163.77C179.402 162.266 178.309 161.23 176.824 161.23ZM203.055 154.805V159.57H192.742V161.582H203.426V163.086H190.887V158.145H201.16V156.309H190.828V154.805H203.055ZM204.949 164.746V166.23H197.84V171.699H195.984V166.23H188.934V164.746H204.949ZM217.098 155.859V170H214.93V158.008H214.852L211.473 160.215V158.164L214.988 155.859H217.098ZM221.277 170.137C220.516 170.137 219.871 169.512 219.891 168.75C219.871 167.988 220.516 167.363 221.277 167.363C222.02 167.363 222.664 167.988 222.664 168.75C222.664 169.512 222.02 170.137 221.277 170.137ZM229.734 170.195C227.059 170.195 225.047 168.555 224.949 166.309H227.039C227.156 167.52 228.309 168.398 229.734 168.398C231.453 168.398 232.684 167.148 232.684 165.469C232.684 163.75 231.414 162.5 229.637 162.48C228.504 162.48 227.645 162.852 227.156 163.73H225.125L226.043 155.859H234.051V157.695H227.82L227.352 161.66H227.488C228.074 161.094 229.07 160.703 230.145 160.703C232.801 160.703 234.773 162.676 234.773 165.41C234.773 168.203 232.684 170.195 229.734 170.195ZM237.547 170L243.855 157.812V157.695H236.57V155.859H246.082V157.773L239.793 170H237.547ZM248.445 170V155.859H250.594V168.145H256.98V170H248.445ZM112.156 178.16V187.555H110.301V178.16H112.156ZM102.527 188.395V190.367H110.32V188.395H112.156V195.445H100.711V188.395H102.527ZM102.527 193.922H110.32V191.832H102.527V193.922ZM102.664 178.961C105.34 178.961 107.312 180.621 107.312 183.023C107.312 185.426 105.34 187.086 102.664 187.066C99.9883 187.086 97.9961 185.426 97.9961 183.023C97.9961 180.621 99.9883 178.961 102.664 178.961ZM102.664 180.523C101.004 180.504 99.8125 181.539 99.8125 183.023C99.8125 184.527 101.004 185.543 102.664 185.543C104.305 185.543 105.496 184.527 105.496 183.023C105.496 181.539 104.305 180.504 102.664 180.523ZM129.461 178.16V195.66H127.605V178.16H129.461ZM117.84 179.859V189.605C120.389 189.586 123.074 189.381 125.887 188.805L126.141 190.367C123.035 190.992 120.223 191.207 117.469 191.207H116.004V179.859H117.84ZM145.848 178.16V184.938H148.66V186.461H145.848V195.699H143.992V178.16H145.848ZM141.141 179.84V181.344H134.812V189.801C137.752 189.791 139.959 189.664 142.449 189.215L142.684 190.777C139.949 191.266 137.625 191.363 134.363 191.344H132.957V179.84H141.141ZM152.723 179.859L152.547 189.918H150.613L150.438 179.859H152.723ZM151.59 194.137C150.828 194.137 150.184 193.512 150.203 192.75C150.184 191.988 150.828 191.363 151.59 191.363C152.332 191.363 152.977 191.988 152.977 192.75C152.977 193.512 152.332 194.137 151.59 194.137ZM173.562 178.16V185.484H176.199V187.047H173.562V195.66H171.707V178.16H173.562ZM159.637 190.895C161.014 190.895 162.615 190.895 164.285 190.836V189.059C162.312 188.785 161.023 187.594 161.043 185.895C161.023 183.922 162.723 182.613 165.223 182.613C167.703 182.613 169.422 183.922 169.441 185.895C169.422 187.594 168.113 188.795 166.141 189.078V190.758C167.693 190.699 169.256 190.572 170.711 190.367L170.828 191.734C167.039 192.418 162.938 192.438 159.93 192.438L159.637 190.895ZM170.457 180.23V181.715H159.969V180.23H164.285V178.199H166.141V180.23H170.457ZM165.223 184.059C163.758 184.059 162.781 184.781 162.781 185.895C162.781 187.008 163.758 187.691 165.223 187.691C166.688 187.691 167.664 187.008 167.664 185.895C167.664 184.781 166.688 184.059 165.223 184.059ZM186.062 179.645V181.129H189.871V178.18H191.727V190.934H189.871V186.402H186.062V187.926H177.938V179.645H186.062ZM179.773 181.148V186.461H184.246V181.148H179.773ZM192.117 193.785V195.289H180.301V189.762H182.176V193.785H192.117ZM186.062 184.879H189.871V182.652H186.062V184.879Z" fill="black"/>
</svg>
