<svg width="333" height="253" viewBox="0 0 333 253" fill="none" xmlns="http://www.w3.org/2000/svg">
<rect width="333" height="253" fill="#D9D9D9"/>
<path d="M150.181 125.47V133.737H148.338V130.732H145.433V129.238H148.338V125.47H150.181ZM142.146 134.418V135.912H148.354V134.418H150.181V140.295H140.336V134.418H142.146ZM142.146 138.801H148.354V137.34H142.146V138.801ZM145.516 126.184C145.499 130.201 143.44 132.891 138.626 134.318L137.912 132.841C140.112 132.218 141.573 131.347 142.461 130.251L138.161 130.583L137.879 129.122L143.241 128.923C143.382 128.524 143.482 128.109 143.54 127.678H138.643V126.184H145.516ZM164.79 125.47V140.494H162.931V125.47H164.79ZM156.705 126.565C158.963 126.565 160.606 128.624 160.623 131.861C160.606 135.132 158.963 137.174 156.705 137.174C154.431 137.174 152.787 135.132 152.787 131.861C152.787 128.624 154.431 126.565 156.705 126.565ZM156.705 128.226C155.427 128.226 154.563 129.57 154.563 131.861C154.563 134.169 155.427 135.514 156.705 135.514C157.967 135.514 158.83 134.169 158.83 131.861C158.83 129.57 157.967 128.226 156.705 128.226ZM174.934 126.881V136.825H167.795V126.881H174.934ZM169.621 128.325V135.348H173.141V128.325H169.621ZM179.482 125.47V140.494H177.623V125.47H179.482ZM187.352 129.736C187.352 132.193 188.796 134.783 191.22 135.796L190.207 137.257C188.431 136.493 187.136 134.916 186.455 133.007C185.758 135.065 184.446 136.792 182.687 137.622L181.624 136.178C183.998 135.082 185.476 132.293 185.476 129.736V128.475H182.172V126.947H190.639V128.475H187.352V129.736ZM194.175 125.47V140.478H192.315V125.47H194.175Z" fill="black"/>
</svg>
